<?xml version="1.0" encoding="utf-8"?>
<!-- Generator: Adobe Illustrator 24.2.0, SVG Export Plug-In . SVG Version: 6.00 Build 0)  -->
<svg version="1.1" id="레이어_1" xmlns="http://www.w3.org/2000/svg" xmlns:xlink="http://www.w3.org/1999/xlink" x="0px"
	 y="0px" viewBox="0 0 80 80" style="enable-background:new 0 0 80 80;" xml:space="preserve">
<style type="text/css">
	.st0{fill:#040000;}
	.st1{fill:#FFFFFF;}
</style>
<g>
	<path class="st0" d="M40,80C17.94,80,0,62.06,0,40S17.94,0,40,0s40,17.94,40,40S62.06,80,40,80z"/>
	<path class="st1" d="M58.68,34.3c-10,0-18.14-8.14-18.14-18.14v-0.25H40.5h-1h-0.03v0.25c0,10-8.14,18.14-18.14,18.14h-0.25v1.03
		h0.25c8.45,0,15.63-5.5,18.18-13.11v41.87h1.03V22.31c2.57,7.56,9.72,13.02,18.14,13.02h0.25V34.3H58.68z"/>
</g>
</svg>
