<?xml version="1.0" encoding="utf-8"?>
<!-- Generator: Adobe Illustrator 24.2.0, SVG Export Plug-In . SVG Version: 6.00 Build 0)  -->
<svg version="1.1" id="레이어_1" xmlns="http://www.w3.org/2000/svg" xmlns:xlink="http://www.w3.org/1999/xlink" x="0px"
	 y="0px" viewBox="0 0 165 165" style="enable-background:new 0 0 165 165;" xml:space="preserve">
<style type="text/css">
	.st0{fill:#32342E;}
	.st1{fill:#262727;}
	.st2{fill:#313231;}
	.st3{fill:#5E6256;}
	.st4{fill:#C19D51;}
	.st5{fill:#161717;}
	.st6{fill:#896932;}
	.st7{fill:#040000;}
	.st8{fill:#040000;enable-background:new    ;}
</style>
<g>
	<path class="st0" d="M90.19,32.14c1.56-1.06,2.41-2.33,2.48-3.71c0.05-0.93-0.25-2.26-1.86-3.54c0.01-8.21-1.39-9.51-1.93-10.02
		c-2.21-2.08-5.21-2.18-6.3-2.2c-0.05,0-0.09,0-0.14,0c-0.05,0-0.1,0-0.16,0c-0.05,0-0.11,0-0.16,0c-0.05,0-0.09,0-0.14,0
		c-1.09,0.02-4.09,0.12-6.3,2.2c-0.75,0.71-1.56,2.06-1.83,6.74c-0.1,1.65-0.1,3.25-0.09,4.2c-0.82,1.02-0.96,2.01-0.9,2.71
		c0.07,0.84,0.48,2.03,1.93,3.2c0.03,1.98,0.05,6.6-0.32,12.16c0-0.02,0-0.04,0-0.06l0.96-0.62c0.35-0.22,0.71-0.42,1.09-0.6
		c0-0.03,0-0.07,0.01-0.1l1.24-0.39c1.16-0.37,2.34-0.6,3.54-0.71c0.4-0.03,0.8-0.05,1.2-0.06l0,0c0.8-0.01,1.6,0.04,2.4,0.15
		c0.4,0.06,0.79,0.13,1.19,0.21s0.78,0.19,1.17,0.3l0.1,0.03l1.07,0.32c0,0,0,0,0,0l0.79,0.23L90.47,43c0.13,2.2-0.17-0.45,0.11,2
		c0,0-0.73,0.66-1.81,1.84c0.49,5.62,1.39,11.9,3.02,17.48c0.95,1.89,5.93,11.77,6.79,13.32c3.41,6.16,4.98,12.85,5.64,18.88
		c0.44,4.06,0.59,13.36,0.79,16.13c0.04,0.62-0.38,1.27-1.07,1.88c-0.14,14.72-0.18,26.42-0.53,28.34c-0.33,1.82,0.85,5.86-12.3,7.1
		l2.96,1.63c3.22-0.47,5.69-1.18,7.44-2.14c3.47-1.9,3.68-4.43,3.79-5.79c0.01-0.17,0.03-0.35,0.05-0.45
		c0.31-1.7,0.38-8.64,0.5-21.8c0.03-3.81,0.07-8.14,0.12-12.56c0.2-17.6-2.2-23.77-9.66-38.29C90.27,58.86,90.12,37.63,90.19,32.14z
		"/>
	<path class="st1" d="M91.63,64.01c0,0,0.06,0.11,0.16,0.31c-1.63-5.58-2.53-11.86-3.02-17.48c-2.5,2.73-6.91,8.31-8.88,15.4
		c-1.42,5.13-2.19,13.91-1.64,20c0.66,7.28-1.18,7.87-3.15,12.59c-1.86,4.47-3.67,7.23-2.86,10.7c2.57,1.4,6.17,1.69,10.1-3.16
		c0,0,5.04,6.44,10.24,3.7C91.53,91.46,91.63,64.01,91.63,64.01z"/>
	<path class="st2" d="M94.55,71.49c-1.1-2.14-2.01-4.58-2.76-7.16c-0.1-0.2-0.16-0.31-0.16-0.31s-0.1,27.45,0.96,42.05
		c1.26-0.66,2.52-1.85,3.72-3.8c0,0,2.01,6.51,1.97,14.43c-0.05,9.4-2.99,20.78-15.64,25.69c0,0-1.15-0.31-2.84-1.21
		c1.33,2.54,3.4,5.24,6.42,6.26c0.43,0.15,0.85,0.33,1.25,0.55l3.63,2c13.15-1.24,11.97-5.28,12.3-7.1
		c0.35-1.92,0.39-13.62,0.53-28.34c0.02-1.85,0.04-3.75,0.06-5.68C104.18,91.55,101.82,85.65,94.55,71.49z"/>
	<path class="st3" d="M103.99,108.86c-0.02,1.93-0.04,3.83-0.06,5.68c0.69-0.61,1.12-1.26,1.07-1.88
		c-0.2-2.76-0.35-12.07-0.79-16.13c-0.66-6.03-2.23-12.72-5.64-18.88c-0.86-1.55-5.84-11.44-6.79-13.32
		c0.75,2.58,1.66,5.02,2.76,7.16C101.82,85.65,104.18,91.55,103.99,108.86z"/>
	<path class="st4" d="M96.31,102.27c-1.2,1.95-2.47,3.14-3.72,3.8c-5.2,2.74-10.24-3.7-10.24-3.7c-3.93,4.85-7.54,4.56-10.1,3.16
		c0.05,0.2,0.1,0.39,0.18,0.58c0.06,0.17,0.15,0.37,0.23,0.57c0.26,0.16,0.53,0.31,0.79,0.45c3,1.64,5.95,0.7,8.76-2.77l0.15-0.19
		l0.16,0.18c0.04,0.04,3.82,4.31,7.87,3.97c0.81-0.07,1.59-0.33,2.32-0.75c1.08-0.64,2.07-1.66,2.95-3.08l0.25-0.4l0.12,0.46
		c0.02,0.06,1.46,5.46,1.39,12.15c-0.01,1.01-0.05,2.06-0.14,3.11c-0.4,4.74-1.59,8.85-3.56,12.24c-2.46,4.24-6.14,7.33-10.93,9.19
		l-0.06,0.02l-0.06-0.02c-0.04-0.01-1.07-0.3-2.58-1.1c-0.31-0.17-0.66-0.36-1.04-0.6c0.22,0.53,0.47,1.07,0.76,1.63
		c1.68,0.9,2.84,1.21,2.84,1.21c12.64-4.91,15.59-16.29,15.64-25.69C98.32,108.78,96.31,102.27,96.31,102.27z"/>
	<path class="st5" d="M91.1,149.98l-3.63-2c-0.4-0.22-0.82-0.4-1.25-0.55c-3.02-1.02-5.09-3.71-6.42-6.26
		c-5.68-3.02-17.41-12.66-11.42-39.21c0,0,1.48,2.26,3.86,3.55c-0.81-3.47,1-6.23,2.86-10.7c1.97-4.72,3.8-5.31,3.15-12.59
		c-0.55-6.09,0.22-14.86,1.64-20c1.97-7.09,6.38-12.66,8.88-15.4c1.08-1.19,1.81-1.84,1.81-1.84c-0.28-2.45,0.02,0.2-0.11-2
		l-1.23-0.39l-0.79-0.23c0,0,0,0,0,0l-1.07-0.32l-0.1-0.03c-0.39-0.12-0.78-0.22-1.17-0.3s-0.79-0.16-1.19-0.21
		c-0.79-0.11-1.6-0.16-2.4-0.15c-0.4,0-0.8,0.02-1.2,0.06c-1.2,0.1-2.38,0.34-3.54,0.71l-1.24,0.39c0,0.03,0,0.07-0.01,0.1
		c-0.37,0.18-0.74,0.38-1.09,0.6l-0.96,0.62c0,0.02,0,0.04,0,0.06c-0.06,0.86-0.12,1.75-0.2,2.66c-0.11,1.29-0.24,2.55-0.38,3.78
		c-0.14,1.23-0.3,2.42-0.48,3.58c-0.26,1.74-0.56,3.4-0.89,4.97c-0.22,1.05-0.45,2.06-0.7,3.03s-0.51,1.9-0.79,2.79
		c-0.69,2.23-1.48,4.19-2.34,5.88c-1.63,3.18-3.02,5.95-4.2,8.54c-0.5,1.11-0.97,2.18-1.39,3.23c-2.27,5.62-3.46,10.69-3.89,17.7
		c-0.04,0.66-0.07,1.33-0.1,2.02c-0.08,2.08-0.1,4.33-0.08,6.8c0.03,2.21,0.05,4.39,0.07,6.5c0.02,2.11,0.04,4.14,0.05,6.05
		c0.12,13.16,0.19,20.1,0.5,21.8c0.01,0.05,0.02,0.12,0.02,0.2c0.01,0.08,0.02,0.17,0.02,0.25c0.01,0.13,0.02,0.27,0.04,0.41
		c0.01,0.15,0.03,0.3,0.06,0.47c0.02,0.11,0.04,0.22,0.06,0.34c0.05,0.26,0.12,0.53,0.22,0.82c0.06,0.18,0.13,0.36,0.22,0.55
		c0.19,0.43,0.45,0.87,0.81,1.3c0.22,0.26,0.47,0.53,0.77,0.79c0.44,0.39,0.98,0.77,1.63,1.12c1.25,0.68,2.86,1.24,4.86,1.68
		c0.66,0.15,1.37,0.28,2.12,0.39c2.25,0.35,4.89,0.59,7.93,0.7c1.01,0.04,2.07,0.06,3.18,0.07c0.14,0.01,0.26,0.01,0.38,0.01
		c0.18,0,0.36,0,0.54,0c0.18,0,0.36,0,0.54,0c0.12,0,0.24,0,0.38-0.01c0,0,0,0,0,0c0.54-0.01,1.06-0.01,1.58-0.03
		c0.17,0,0.32-0.01,0.49-0.01c0.35-0.01,0.69-0.02,1.03-0.03c0.2-0.01,0.38-0.02,0.58-0.02c0.29-0.01,0.59-0.02,0.88-0.04
		c0.2-0.01,0.39-0.02,0.59-0.03c0.27-0.02,0.54-0.03,0.8-0.05c0.2-0.01,0.39-0.03,0.59-0.04c0.25-0.02,0.5-0.04,0.74-0.06
		c0.19-0.02,0.38-0.04,0.57-0.05c0.23-0.02,0.47-0.04,0.69-0.07c0.19-0.02,0.37-0.04,0.55-0.06c0.22-0.03,0.44-0.05,0.65-0.08
		c0.18-0.02,0.35-0.05,0.53-0.07c0.13-0.02,0.25-0.04,0.37-0.05L91.1,149.98z"/>
	<path class="st6" d="M70.47,130.15c-3.47-6.82-4.05-15.5-1.73-25.8l0.07-0.31l0.25,0.2c0.02,0.02,1.75,1.35,3.58,2.44
		c-0.08-0.2-0.17-0.41-0.23-0.57c-0.07-0.19-0.13-0.38-0.18-0.58c-2.38-1.3-3.86-3.55-3.86-3.55c-5.99,26.55,5.74,36.19,11.42,39.21
		c-0.29-0.56-0.54-1.1-0.76-1.63C76.62,138.07,73.03,135.19,70.47,130.15z"/>
	<g>
		<path class="st6" d="M72.32,119.68c-0.21,0-0.4,0.06-0.55,0.19c-0.15,0.13-0.23,0.29-0.23,0.48c0,0.23,0.12,0.39,0.36,0.47
			c0.08-0.26,0.13-0.45,0.17-0.58s0.08-0.24,0.13-0.35h0.12c0.03,0,0.06,0,0.09,0.01c0.03,0,0.06,0.01,0.09,0.01
			c-0.05,0.13-0.1,0.3-0.16,0.5c-0.05,0.17-0.08,0.34-0.11,0.49c0.04,0,0.07,0,0.09,0c0.05,0,0.09,0,0.14-0.01
			c-0.01,0.1-0.11,0.17-0.29,0.2c-0.05,0.19-0.11,0.34-0.17,0.47c0.17,0.06,0.34,0.11,0.52,0.17c0.16,0,0.31-0.11,0.44-0.33
			c0.13-0.22,0.19-0.47,0.19-0.76c0-0.29-0.08-0.53-0.23-0.7C72.78,119.77,72.58,119.68,72.32,119.68z"/>
		<path class="st6" d="M79.89,125.97c-0.01-0.2-0.04-0.43-0.08-0.67c-0.04,0.01-0.08,0.03-0.11,0.03c-0.06,0-0.1-0.03-0.13-0.09
			c-0.03-0.06-0.05-0.13-0.05-0.23c0-0.06,0-0.11,0.01-0.15s0.02-0.11,0.05-0.21l0.02-0.07l-0.07,0.01l0.01-0.08
			c0-0.01,0.01-0.02,0.03-0.02c0.02,0,0.04-0.01,0.06-0.01c-1.04-4.35-5.03-13.13-6.73-17.17c-1.6-0.91-3.22-2.09-3.83-2.55
			c-2.22,10.06-1.63,18.55,1.76,25.21c2.35,4.63,5.58,7.4,7.94,8.93c-0.28-0.73-0.5-1.39-0.65-1.91
			C77.33,134.23,80.09,129.7,79.89,125.97z M78.41,125.01c0-0.13,0.04-0.32,0.13-0.56h0.18c-0.02,0.05-0.04,0.1-0.05,0.14
			c-0.01,0.04-0.03,0.09-0.04,0.14c0.11-0.1,0.2-0.18,0.26-0.22c0.06-0.04,0.12-0.06,0.17-0.06c0.04,0,0.07,0.02,0.1,0.06
			c0.03,0.04,0.04,0.09,0.04,0.14c0,0.04-0.02,0.14-0.07,0.29c-0.02,0.07-0.03,0.13-0.03,0.18c0,0.04,0.01,0.06,0.03,0.06
			c0.02,0,0.06-0.02,0.12-0.07c0.08-0.06,0.15-0.12,0.22-0.2v0.19l-0.05,0.04c-0.08,0.07-0.15,0.12-0.21,0.15
			c-0.05,0.03-0.1,0.04-0.15,0.04c-0.05,0-0.08-0.02-0.11-0.06c-0.03-0.04-0.04-0.09-0.04-0.15c0-0.05,0.01-0.1,0.03-0.17
			c0.05-0.15,0.07-0.24,0.07-0.27c0-0.04-0.01-0.07-0.03-0.07c-0.04,0-0.16,0.1-0.36,0.29l-0.02,0.02c0,0.02,0,0.05,0,0.07
			c0,0.02,0,0.04,0,0.04c0,0.02,0,0.03,0,0.05v0.17l0.01,0.05h-0.17c-0.01-0.05-0.01-0.09-0.01-0.12V125.01z M73.12,121.63
			c-0.2,0.27-0.42,0.4-0.67,0.4c-0.08,0-0.18-0.03-0.3-0.08c-0.15-0.07-0.25-0.11-0.29-0.12c-0.1,0.08-0.18,0.14-0.25,0.16
			c-0.07,0.03-0.14,0.04-0.22,0.04c-0.11,0-0.16-0.04-0.16-0.12c0-0.07,0.04-0.13,0.11-0.2c0.09-0.08,0.22-0.13,0.38-0.15
			c0.06-0.09,0.1-0.25,0.14-0.48c-0.18-0.03-0.33-0.11-0.43-0.24c-0.11-0.13-0.16-0.28-0.16-0.47c0-0.26,0.1-0.49,0.31-0.67
			c0.21-0.18,0.46-0.28,0.76-0.28c0.32,0,0.58,0.1,0.78,0.31c0.22,0.22,0.33,0.51,0.33,0.87C73.44,121,73.33,121.35,73.12,121.63z
			 M75.54,121.63c-0.09,0.07-0.19,0.1-0.31,0.1c-0.07,0-0.13-0.01-0.19-0.04c-0.06-0.03-0.12-0.07-0.18-0.14
			c-0.18,0.33-0.42,0.49-0.7,0.49c-0.15,0-0.27-0.05-0.36-0.14c-0.09-0.1-0.13-0.23-0.13-0.41c0-0.28,0.08-0.51,0.25-0.7
			c0.17-0.19,0.38-0.28,0.65-0.28l-0.02,0.22c-0.19,0.03-0.33,0.1-0.42,0.23c-0.09,0.12-0.13,0.29-0.13,0.49
			c0,0.23,0.07,0.34,0.22,0.34c0.09,0,0.18-0.05,0.27-0.15c0.09-0.1,0.14-0.22,0.17-0.36c-0.02-0.05-0.02-0.09-0.03-0.12
			c0-0.03-0.01-0.05-0.01-0.08c0-0.07,0.01-0.14,0.02-0.22c0.01-0.08,0.04-0.15,0.07-0.21h0.25c0.01,0.05,0.02,0.09,0.02,0.13
			c0,0.04,0,0.07,0,0.09c0,0.14-0.02,0.28-0.07,0.43c0.12,0.12,0.22,0.19,0.3,0.19c0.1,0,0.2-0.06,0.3-0.17V121.63z M76.54,120.88
			c-0.04,0-0.12,0.05-0.23,0.14c-0.08,0.07-0.21,0.19-0.39,0.36v0.25v0.4h-0.28c-0.01-0.08-0.02-0.19-0.02-0.31
			c-0.01-0.12-0.01-0.21-0.01-0.24c0-0.11,0.02-0.24,0.06-0.41s0.1-0.35,0.17-0.56h0.33l-0.02,0.05c-0.03,0.09-0.06,0.17-0.08,0.22
			c-0.02,0.06-0.04,0.13-0.06,0.21c0.17-0.17,0.31-0.3,0.41-0.37s0.19-0.11,0.26-0.11c0.06,0,0.11,0.03,0.15,0.08
			c0.06,0.07,0.08,0.17,0.08,0.3v0.06c0.15-0.12,0.25-0.2,0.3-0.23c0.14-0.1,0.25-0.14,0.33-0.14c0.07,0,0.13,0.03,0.18,0.09
			c0.05,0.06,0.08,0.14,0.08,0.23c0,0.08-0.02,0.17-0.06,0.28c-0.08,0.24-0.12,0.4-0.12,0.46c0,0.03,0.01,0.06,0.02,0.08
			c0.01,0.02,0.02,0.03,0.04,0.03c0.05,0,0.12-0.04,0.22-0.12c0.1-0.08,0.22-0.19,0.35-0.34v0.32c-0.14,0.14-0.27,0.24-0.38,0.31
			c-0.11,0.07-0.21,0.1-0.3,0.1c-0.1,0-0.17-0.05-0.22-0.14c-0.03-0.06-0.05-0.12-0.05-0.19c0-0.09,0.02-0.19,0.06-0.3
			c0.09-0.26,0.13-0.41,0.13-0.46c0-0.05-0.02-0.07-0.05-0.07c-0.03,0-0.12,0.06-0.27,0.18c-0.08,0.07-0.16,0.14-0.24,0.2
			l-0.06,0.06c-0.01,0.06-0.02,0.13-0.04,0.23c-0.02,0.1-0.06,0.25-0.11,0.47h-0.32c0.07-0.27,0.12-0.44,0.14-0.52
			c0.06-0.24,0.09-0.42,0.09-0.53C76.6,120.91,76.58,120.88,76.54,120.88z M78.27,124.04c0,0.02-0.01,0.05-0.02,0.09
			c-0.01,0.04-0.03,0.06-0.04,0.08c-0.02,0.02-0.04,0.02-0.09,0.02c-0.06,0-0.08-0.02-0.08-0.05c0-0.05,0.01-0.1,0.03-0.14
			c0.02-0.04,0.05-0.06,0.09-0.06C78.23,123.97,78.27,123.99,78.27,124.04z M77.69,124.46c-0.01,0-0.02-0.01-0.03-0.02
			c0,0-0.01-0.01-0.03-0.03l-0.02-0.02c-0.08,0.24-0.17,0.44-0.27,0.59c-0.08,0.13-0.17,0.22-0.27,0.28
			c-0.07,0.05-0.14,0.07-0.21,0.07c-0.06,0-0.11-0.02-0.15-0.07c-0.04-0.05-0.06-0.11-0.06-0.19c0-0.09,0.02-0.21,0.06-0.37
			l0.13-0.44c0.03-0.09,0.04-0.14,0.04-0.17c0-0.01,0-0.01,0-0.02c0,0,0,0,0-0.01c-0.01,0-0.06,0.03-0.14,0.09
			c-0.05,0.04-0.09,0.07-0.12,0.09l-0.03-0.13c0.21-0.2,0.35-0.3,0.43-0.3c0.05,0,0.07,0.04,0.07,0.12c0,0.04-0.01,0.1-0.02,0.18
			c-0.02,0.08-0.03,0.14-0.04,0.18l-0.14,0.49c-0.02,0.06-0.03,0.11-0.04,0.16c-0.01,0.04-0.01,0.08-0.01,0.1
			c0,0.04,0.01,0.07,0.02,0.09c0.02,0.02,0.03,0.03,0.06,0.03c0.08,0,0.16-0.07,0.26-0.2c0.09-0.11,0.16-0.24,0.22-0.38
			c0.02-0.06,0.04-0.11,0.06-0.15c0.01-0.03,0.03-0.09,0.05-0.19c-0.02-0.03-0.02-0.07-0.02-0.11c0-0.06,0.01-0.11,0.02-0.17
			c0.01-0.06,0.03-0.1,0.05-0.12c0.01-0.01,0.04-0.02,0.08-0.02c0.03,0,0.05,0.01,0.06,0.02c0.01,0.01,0.02,0.04,0.02,0.08
			c0,0.09-0.02,0.2-0.06,0.34c0.02,0.02,0.04,0.04,0.06,0.07c0.03,0.03,0.04,0.04,0.06,0.05L77.69,124.46z M77.83,125.22
			c-0.01-0.04-0.01-0.1-0.01-0.18c0-0.08,0.01-0.17,0.04-0.27c0.02-0.1,0.06-0.21,0.1-0.32h0.18l-0.02,0.07
			c-0.05,0.14-0.08,0.24-0.1,0.33c-0.02,0.08-0.03,0.15-0.03,0.21c0,0.07,0.01,0.1,0.04,0.1c0.04,0,0.11-0.04,0.21-0.13
			c0.04-0.04,0.09-0.08,0.13-0.12v0.19c-0.06,0.06-0.12,0.11-0.2,0.16c-0.09,0.06-0.17,0.08-0.24,0.08
			C77.88,125.33,77.84,125.29,77.83,125.22z"/>
		<path class="st6" d="M79.77,125.16c0,0,0.01-0.01,0.01-0.01c-0.02-0.09-0.05-0.2-0.07-0.3c-0.01,0.04-0.01,0.08-0.01,0.12
			C79.71,125.1,79.73,125.16,79.77,125.16z"/>
	</g>
	<g>
		<path class="st4" d="M95.74,105.11c-0.9,1.34-1.9,2.31-3,2.92c-0.73,0.4-1.51,0.64-2.32,0.71c-3.81,0.31-7.26-3.09-8.05-3.93
			c-3.63,4.35-6.96,3.87-9.13,2.69c-0.11-0.06-0.22-0.13-0.33-0.19c1.7,4.04,5.69,12.82,6.73,17.17c0,0,0,0,0,0l0.16-0.49l0.18,0
			l-0.15,0.47l0.2,0L80,124.58h-0.08h-0.14l-0.01,0.04c-0.02,0.07-0.04,0.14-0.05,0.2c0,0.01,0,0.02,0,0.04
			c0.02,0.1,0.05,0.21,0.07,0.3c0.02,0,0.06-0.02,0.1-0.05c0.07-0.05,0.14-0.11,0.23-0.2v0.19c-0.1,0.09-0.19,0.15-0.27,0.19
			c-0.02,0.01-0.03,0.01-0.04,0.01c0.04,0.24,0.07,0.47,0.08,0.67c0.2,3.74-2.56,8.26-1.77,11.01c0.15,0.52,0.36,1.18,0.65,1.91
			c0.56,0.36,1.07,0.66,1.5,0.89c1.26,0.67,2.18,0.97,2.43,1.05c4.67-1.83,8.26-4.85,10.66-8.99c1.94-3.33,3.11-7.39,3.5-12.07
			c0.09-1.07,0.13-2.11,0.14-3.13C97.05,111.14,96.08,106.53,95.74,105.11z M87.73,120.51l0.31,0l-0.25,1.23
			c0.04-0.03,0.08-0.07,0.14-0.12c0.19-0.18,0.3-0.28,0.33-0.31v0.32c-0.18,0.15-0.36,0.29-0.54,0.44c-0.05,0.26-0.1,0.44-0.18,0.54
			c-0.07,0.11-0.18,0.16-0.31,0.16c-0.1,0-0.19-0.03-0.26-0.09s-0.11-0.13-0.11-0.21c0-0.07,0.03-0.15,0.1-0.22
			c0.04-0.04,0.16-0.12,0.36-0.25l0.11-0.06l0.06-0.27l-0.06,0.06c-0.11,0.11-0.2,0.19-0.27,0.23s-0.15,0.07-0.22,0.07
			c-0.12,0-0.22-0.05-0.3-0.16c-0.08-0.1-0.12-0.23-0.12-0.39c0-0.25,0.08-0.48,0.24-0.68s0.34-0.3,0.55-0.3
			c0.07,0,0.13,0.02,0.17,0.05c0.05,0.03,0.11,0.09,0.2,0.19L87.73,120.51z M86.85,116.92c0.09-0.12,0.2-0.18,0.33-0.18
			c0.12,0,0.18,0.06,0.18,0.17c0,0.1-0.05,0.19-0.15,0.26c-0.05,0.04-0.14,0.08-0.26,0.13l-0.05,0.02v0.01
			c0,0.05,0.01,0.09,0.02,0.12c0.02,0.05,0.06,0.07,0.11,0.07c0.09,0,0.18-0.02,0.26-0.07c0.09-0.04,0.19-0.12,0.31-0.22v0.18
			c-0.22,0.16-0.44,0.24-0.65,0.24c-0.08,0-0.14-0.03-0.18-0.1c-0.04-0.06-0.06-0.14-0.06-0.22
			C86.71,117.19,86.76,117.05,86.85,116.92z M85.62,117.33c0-0.13,0.04-0.32,0.13-0.56h0.18c-0.02,0.05-0.04,0.1-0.05,0.14
			c-0.01,0.04-0.03,0.09-0.04,0.14c0.11-0.1,0.2-0.18,0.26-0.22c0.06-0.04,0.12-0.06,0.17-0.06c0.04,0,0.07,0.02,0.1,0.06
			c0.03,0.04,0.04,0.09,0.04,0.14c0,0.04-0.02,0.14-0.07,0.29c-0.02,0.07-0.04,0.13-0.04,0.17c0,0.04,0.01,0.06,0.04,0.06
			c0.02,0,0.06-0.02,0.12-0.07c0.08-0.06,0.15-0.12,0.22-0.2v0.19l-0.05,0.04c-0.08,0.07-0.15,0.12-0.21,0.15s-0.1,0.04-0.15,0.04
			c-0.05,0-0.08-0.02-0.11-0.06s-0.04-0.09-0.04-0.15c0-0.05,0.01-0.1,0.03-0.17c0.05-0.15,0.07-0.24,0.07-0.27
			c0-0.04-0.01-0.07-0.03-0.07c-0.04,0-0.16,0.1-0.36,0.29l-0.02,0.02c0,0.02,0,0.05,0,0.07s0,0.04,0,0.04c0,0.02,0,0.03,0,0.05
			v0.17l0.01,0.05h-0.18c-0.01-0.05-0.01-0.09-0.01-0.12V117.33z M86.06,120.51l-0.04,0.11c-0.08,0.23-0.13,0.42-0.17,0.56
			c-0.03,0.14-0.05,0.26-0.05,0.37c0,0.12,0.02,0.18,0.07,0.18c0.06,0,0.18-0.08,0.36-0.23c0.08-0.07,0.15-0.13,0.23-0.2v0.32
			c-0.1,0.1-0.22,0.19-0.35,0.27c-0.16,0.1-0.3,0.14-0.41,0.14c-0.09,0-0.16-0.07-0.19-0.2c-0.02-0.07-0.02-0.17-0.02-0.31
			c0-0.14,0.02-0.29,0.06-0.47c0.04-0.18,0.1-0.36,0.18-0.55H86.06z M85.89,120.03c0-0.09,0.02-0.17,0.06-0.23
			c0.04-0.07,0.09-0.1,0.15-0.1c0.12,0,0.19,0.04,0.19,0.11c0,0.04-0.01,0.09-0.03,0.15c-0.02,0.06-0.04,0.11-0.07,0.13
			c-0.03,0.03-0.08,0.04-0.15,0.04C85.94,120.12,85.89,120.09,85.89,120.03z M84.72,116.94c0.09-0.12,0.2-0.17,0.32-0.17
			c0.04,0,0.07,0.01,0.1,0.03c0.03,0.02,0.07,0.05,0.11,0.11l0.03-0.14l0.18,0l-0.15,0.71c0.02-0.01,0.05-0.04,0.08-0.07
			c0.11-0.1,0.17-0.16,0.19-0.18v0.19c-0.1,0.08-0.21,0.17-0.31,0.25c-0.03,0.15-0.06,0.25-0.1,0.31s-0.1,0.09-0.18,0.09
			c-0.06,0-0.11-0.02-0.15-0.05c-0.04-0.04-0.06-0.08-0.06-0.12c0-0.04,0.02-0.08,0.06-0.12c0.02-0.02,0.09-0.07,0.21-0.14
			l0.06-0.03l0.03-0.16l-0.03,0.04c-0.06,0.06-0.12,0.11-0.16,0.14c-0.04,0.03-0.09,0.04-0.13,0.04c-0.07,0-0.13-0.03-0.17-0.09
			c-0.05-0.06-0.07-0.14-0.07-0.23C84.58,117.19,84.62,117.06,84.72,116.94z M84.59,120.36c0,0.06-0.02,0.13-0.06,0.23
			c0.13,0.05,0.22,0.08,0.26,0.11c0.11,0.07,0.17,0.17,0.17,0.33c0,0.07-0.02,0.16-0.05,0.26c-0.08,0.23-0.12,0.36-0.12,0.39
			c0,0.04,0.02,0.06,0.06,0.06c0.11,0,0.31-0.15,0.61-0.44v0.32c-0.32,0.28-0.58,0.41-0.76,0.41c-0.07,0-0.13-0.03-0.17-0.08
			c-0.04-0.06-0.06-0.13-0.06-0.22s0.03-0.21,0.1-0.37c0.07-0.16,0.1-0.26,0.1-0.32c0-0.11-0.07-0.2-0.2-0.25
			c-0.08,0.17-0.22,0.35-0.43,0.55c-0.07,0.07-0.17,0.16-0.31,0.29v-0.01c-0.39,0.28-0.76,0.42-1.12,0.42
			c-0.13,0-0.24-0.05-0.3-0.16c-0.07-0.11-0.1-0.23-0.1-0.37c0-0.27,0.08-0.52,0.25-0.73c0.16-0.21,0.35-0.32,0.57-0.32
			c0.2,0,0.3,0.1,0.3,0.29c0,0.17-0.09,0.32-0.26,0.45c-0.09,0.07-0.24,0.15-0.45,0.23l-0.08,0.03v0.02c0,0.09,0.01,0.16,0.04,0.21
			c0.04,0.08,0.1,0.12,0.19,0.12c0.15,0,0.3-0.04,0.46-0.12c0.15-0.08,0.33-0.2,0.53-0.38v0.02c0.14-0.13,0.23-0.23,0.29-0.3
			c0.11-0.13,0.2-0.25,0.25-0.37c-0.04-0.07-0.05-0.13-0.05-0.17c0-0.08,0.01-0.14,0.02-0.18c0.02-0.04,0.06-0.07,0.12-0.07
			c0.1,0,0.17,0.01,0.19,0.02S84.59,120.31,84.59,120.36z M84.69,124.37l-0.11-0.07c0.08-0.06,0.15-0.11,0.2-0.16
			c0.09-0.08,0.18-0.19,0.28-0.32h0.03c0.03,0,0.05,0,0.06,0s0.03,0,0.04,0.01c-0.06,0.19-0.12,0.36-0.16,0.52
			c-0.02,0.07-0.05,0.15-0.07,0.22l-0.21,0.76l-0.2,0l0.13-0.42l0.06-0.22c0.02-0.06,0.04-0.13,0.07-0.23
			c0.04-0.12,0.06-0.2,0.07-0.23C84.81,124.29,84.75,124.34,84.69,124.37z M82.49,125.12c0.02,0.05,0.06,0.07,0.11,0.07
			c0.09,0,0.18-0.02,0.26-0.07s0.19-0.12,0.31-0.22v0.18c-0.22,0.16-0.44,0.24-0.65,0.24c-0.08,0-0.14-0.03-0.18-0.09
			c-0.04-0.06-0.06-0.14-0.06-0.22c0-0.16,0.05-0.3,0.14-0.42c0.09-0.12,0.2-0.18,0.33-0.18c0.12,0,0.17,0.06,0.17,0.17
			c0,0.1-0.05,0.19-0.15,0.26c-0.05,0.04-0.14,0.08-0.26,0.13L82.46,125V125C82.46,125.05,82.47,125.09,82.49,125.12z M81.77,125.16
			c-0.06,0.06-0.12,0.11-0.16,0.14s-0.08,0.04-0.13,0.04c-0.07,0-0.13-0.03-0.17-0.09s-0.07-0.14-0.07-0.23
			c0-0.15,0.05-0.28,0.14-0.39c0.09-0.12,0.2-0.17,0.32-0.17c0.04,0,0.07,0.01,0.1,0.03s0.07,0.05,0.12,0.11l0.03-0.14l0.18,0
			l-0.15,0.71c0.02-0.01,0.05-0.04,0.08-0.07c0.11-0.1,0.17-0.16,0.19-0.18v0.19c-0.1,0.08-0.21,0.17-0.31,0.25
			c-0.03,0.15-0.06,0.25-0.1,0.31c-0.04,0.06-0.1,0.09-0.18,0.09c-0.06,0-0.11-0.02-0.15-0.05c-0.04-0.04-0.06-0.08-0.06-0.12
			c0-0.04,0.02-0.08,0.06-0.12c0.02-0.02,0.09-0.07,0.21-0.14l0.06-0.04l0.03-0.16L81.77,125.16z M80.53,125.28
			c-0.05,0.03-0.09,0.05-0.13,0.05c-0.07,0-0.12-0.03-0.17-0.09c-0.05-0.06-0.07-0.14-0.07-0.22c0-0.16,0.05-0.29,0.15-0.41
			c0.09-0.11,0.19-0.16,0.3-0.16c0.04,0,0.08,0.01,0.12,0.03c0.04,0.02,0.07,0.06,0.1,0.1l0.04-0.14h0.18l-0.11,0.46
			c-0.01,0.04-0.02,0.07-0.03,0.12c-0.01,0.04-0.01,0.07-0.01,0.09c0,0.03,0.01,0.04,0.03,0.04c0.02,0,0.06-0.02,0.11-0.06
			s0.12-0.1,0.19-0.18v0.19c-0.17,0.16-0.3,0.23-0.4,0.23c-0.05,0-0.08-0.02-0.09-0.05c-0.02-0.03-0.02-0.07-0.02-0.12v-0.04
			C80.63,125.2,80.58,125.25,80.53,125.28z M81.09,121.08c-0.04,0.15-0.07,0.3-0.11,0.45c-0.11,0.34-0.28,0.51-0.51,0.51
			c-0.06,0-0.09-0.01-0.12-0.04c-0.02-0.03-0.04-0.08-0.06-0.17l-0.02-0.09c0.06,0.01,0.11,0.02,0.14,0.02
			c0.09,0,0.16-0.06,0.21-0.17c0.05-0.12,0.12-0.34,0.18-0.66c0.05-0.24,0.09-0.42,0.12-0.54c0.05-0.17,0.1-0.33,0.17-0.48h0.14
			c0.03,0,0.07,0,0.1,0c0.03,0.01,0.05,0.01,0.06,0.02c-0.04,0.09-0.07,0.18-0.11,0.3s-0.08,0.27-0.13,0.49l-0.02,0.1
			c0.08,0.06,0.15,0.09,0.23,0.09c0.13,0,0.24-0.06,0.33-0.18c0.09-0.12,0.14-0.27,0.14-0.44c0-0.17-0.06-0.31-0.17-0.42
			c-0.11-0.11-0.26-0.16-0.45-0.16c-0.21,0-0.39,0.06-0.55,0.17c-0.14,0.1-0.21,0.22-0.21,0.34c0,0.05,0.03,0.1,0.08,0.13
			c0.06,0.04,0.08,0.06,0.08,0.08c0,0.04-0.01,0.07-0.03,0.09c-0.02,0.03-0.05,0.04-0.08,0.04c-0.08,0-0.16-0.04-0.22-0.11
			c-0.06-0.07-0.09-0.15-0.09-0.25c0-0.2,0.1-0.38,0.3-0.53c0.2-0.15,0.44-0.22,0.71-0.22c0.28,0,0.51,0.08,0.68,0.23
			c0.17,0.15,0.25,0.35,0.25,0.61c0,0.24-0.08,0.45-0.23,0.62c-0.15,0.18-0.34,0.26-0.55,0.26c-0.06,0-0.1,0-0.13-0.01
			S81.17,121.12,81.09,121.08z M83.63,116.93c0.09-0.11,0.19-0.16,0.3-0.16c0.04,0,0.08,0.01,0.12,0.03c0.04,0.02,0.07,0.06,0.1,0.1
			l0.04-0.14h0.18l-0.11,0.46c-0.01,0.04-0.02,0.07-0.03,0.12c-0.01,0.04-0.01,0.07-0.01,0.09c0,0.03,0.01,0.04,0.03,0.04
			c0.02,0,0.06-0.02,0.11-0.06s0.12-0.1,0.19-0.18v0.19c-0.17,0.16-0.3,0.23-0.4,0.23c-0.05,0-0.08-0.02-0.09-0.05
			s-0.02-0.07-0.02-0.12v-0.04c-0.07,0.08-0.13,0.13-0.17,0.16c-0.05,0.03-0.09,0.05-0.13,0.05c-0.07,0-0.12-0.03-0.17-0.09
			s-0.07-0.14-0.07-0.22C83.48,117.18,83.53,117.04,83.63,116.93z M80.71,117.09c0.02-0.1,0.06-0.2,0.1-0.32H81l-0.01,0.03
			c-0.02,0.05-0.03,0.1-0.04,0.13c-0.01,0.03-0.02,0.08-0.03,0.12c0.1-0.1,0.18-0.17,0.23-0.21s0.11-0.06,0.15-0.06
			c0.03,0,0.06,0.02,0.09,0.05c0.03,0.04,0.05,0.1,0.05,0.17v0.04c0.09-0.07,0.14-0.11,0.17-0.14c0.08-0.06,0.14-0.08,0.19-0.08
			c0.04,0,0.07,0.02,0.1,0.05c0.03,0.04,0.04,0.08,0.04,0.13c0,0.05-0.01,0.1-0.03,0.16c-0.05,0.14-0.07,0.23-0.07,0.27
			c0,0.02,0,0.03,0.01,0.04c0.01,0.01,0.01,0.02,0.02,0.02c0.03,0,0.07-0.02,0.12-0.07s0.12-0.11,0.2-0.2v0
			c0.17-0.19,0.33-0.41,0.47-0.65h0.15l-0.12,0.49l0.03-0.04c0.07-0.1,0.13-0.16,0.18-0.2c0.05-0.04,0.11-0.06,0.16-0.06
			s0.1,0.02,0.14,0.07c0.04,0.05,0.05,0.11,0.05,0.18c0,0.19-0.06,0.35-0.19,0.5c0.06,0,0.11-0.02,0.17-0.06
			c0.03-0.02,0.07-0.06,0.14-0.13c0.01-0.01,0.03-0.03,0.05-0.05c0.01-0.01,0.01-0.02,0.03-0.04v0.19c-0.1,0.09-0.15,0.14-0.17,0.15
			c-0.07,0.05-0.14,0.07-0.21,0.07c-0.03,0-0.08-0.01-0.13-0.03c-0.04,0.02-0.09,0.03-0.14,0.03c-0.07,0-0.11-0.02-0.11-0.07
			c0-0.03,0.01-0.07,0.02-0.1c0.01-0.03,0.04-0.04,0.07-0.04c0.02,0,0.04,0,0.07,0.01c0.01,0,0.03,0.01,0.07,0.02
			c0.05-0.04,0.08-0.1,0.11-0.17c0.03-0.09,0.05-0.17,0.05-0.26c0-0.09-0.02-0.14-0.07-0.14c-0.04,0-0.08,0.02-0.12,0.07
			c-0.05,0.05-0.1,0.11-0.16,0.2c-0.07,0.12-0.13,0.26-0.18,0.43c-0.05,0.17-0.09,0.31-0.11,0.41c-0.01,0.04-0.04,0.06-0.08,0.06
			c-0.08,0-0.11-0.03-0.11-0.08v-0.02c0-0.02,0-0.04,0.01-0.06c0,0,0.01-0.03,0.04-0.09c0.06-0.14,0.11-0.29,0.16-0.45
			s0.09-0.31,0.13-0.48c-0.07,0.13-0.14,0.23-0.2,0.31c-0.06,0.07-0.12,0.15-0.2,0.21v-0.18c0,0,0,0.01-0.01,0.01v0.18
			c-0.08,0.08-0.15,0.14-0.21,0.17c-0.06,0.04-0.12,0.06-0.17,0.06c-0.06,0-0.1-0.03-0.13-0.08c-0.02-0.03-0.03-0.07-0.03-0.11
			c0-0.05,0.01-0.11,0.03-0.17c0.05-0.15,0.07-0.24,0.07-0.27c0-0.03-0.01-0.04-0.03-0.04c-0.02,0-0.07,0.04-0.16,0.1
			c-0.05,0.04-0.09,0.08-0.14,0.12l-0.03,0.03c0,0.03-0.01,0.08-0.03,0.13c-0.01,0.06-0.03,0.15-0.06,0.27h-0.18
			c0.04-0.15,0.07-0.25,0.08-0.3c0.03-0.14,0.05-0.24,0.05-0.3c0-0.04-0.01-0.06-0.04-0.06c-0.02,0-0.07,0.03-0.13,0.08
			c-0.05,0.04-0.12,0.11-0.23,0.21v0.15v0.23h-0.16c-0.01-0.05-0.01-0.11-0.01-0.18c0-0.07-0.01-0.12-0.01-0.14
			C80.68,117.26,80.69,117.19,80.71,117.09z M79.55,117.42c-0.07,0.07-0.13,0.13-0.2,0.17c-0.07,0.04-0.13,0.06-0.18,0.06
			c-0.04,0-0.08-0.02-0.11-0.06c-0.03-0.04-0.05-0.08-0.05-0.14c0-0.06,0.02-0.14,0.06-0.25s0.06-0.18,0.06-0.22
			c0-0.03-0.01-0.05-0.04-0.05c-0.04,0-0.1,0.03-0.17,0.08c-0.07,0.06-0.15,0.14-0.24,0.24c0,0.04-0.01,0.07-0.01,0.09
			s0,0.05,0,0.09l0.01,0.2h-0.17c0-0.01-0.01-0.06-0.01-0.15c-0.01-0.09-0.01-0.14-0.01-0.15v0.07c-0.19,0.15-0.37,0.23-0.55,0.23
			c-0.15,0-0.26-0.05-0.34-0.15c-0.08-0.1-0.12-0.23-0.12-0.41c0-0.25,0.06-0.47,0.19-0.66c0.13-0.19,0.29-0.29,0.47-0.29
			c0.09,0,0.17,0.03,0.22,0.09c0.06,0.06,0.08,0.14,0.08,0.23c0,0.13-0.03,0.24-0.1,0.35c-0.07,0.12-0.16,0.18-0.27,0.18
			c-0.06,0-0.1-0.02-0.14-0.05s-0.05-0.08-0.05-0.14c0-0.07,0.01-0.12,0.04-0.16c0.03-0.05,0.07-0.07,0.14-0.07
			c0.02,0,0.03,0,0.03,0.01c-0.01,0.04-0.03,0.08-0.04,0.12c-0.01,0.04-0.02,0.07-0.02,0.09c0,0.05,0.02,0.08,0.05,0.08
			c0.04,0,0.09-0.04,0.13-0.13c0.05-0.09,0.07-0.17,0.07-0.25c0-0.13-0.05-0.19-0.16-0.19c-0.12,0-0.23,0.09-0.33,0.26
			c-0.09,0.16-0.14,0.34-0.14,0.52c0,0.13,0.03,0.24,0.09,0.32c0.06,0.08,0.13,0.12,0.23,0.12c0.09,0,0.17-0.02,0.25-0.07
			c0.08-0.04,0.17-0.12,0.27-0.21v0.11c0-0.11,0.02-0.26,0.06-0.44c0.05-0.21,0.11-0.38,0.18-0.51c0.09-0.17,0.18-0.25,0.28-0.25
			c0.05,0,0.09,0.02,0.12,0.06c0.03,0.04,0.05,0.09,0.05,0.15c0,0.15-0.08,0.32-0.23,0.52c0.07-0.04,0.12-0.07,0.15-0.08
			s0.06-0.02,0.09-0.02c0.04,0,0.07,0.02,0.09,0.05c0.02,0.03,0.03,0.08,0.03,0.14c0,0.06-0.02,0.14-0.06,0.25
			c-0.04,0.11-0.06,0.19-0.06,0.24c0,0.03,0.01,0.05,0.03,0.05c0.07,0,0.18-0.09,0.33-0.27V117.42z M79.96,117.6
			c-0.05,0.03-0.09,0.05-0.13,0.05c-0.07,0-0.12-0.03-0.17-0.09c-0.05-0.06-0.07-0.14-0.07-0.22c0-0.16,0.05-0.29,0.15-0.41
			c0.09-0.11,0.19-0.16,0.3-0.16c0.04,0,0.08,0.01,0.12,0.03c0.04,0.02,0.07,0.06,0.1,0.1l0.04-0.14h0.18l-0.11,0.46
			c-0.01,0.04-0.02,0.07-0.03,0.12c-0.01,0.04-0.01,0.07-0.01,0.09c0,0.03,0.01,0.04,0.03,0.04c0.02,0,0.06-0.02,0.11-0.06
			s0.12-0.1,0.19-0.18v0.19c-0.17,0.16-0.3,0.23-0.4,0.23c-0.05,0-0.08-0.02-0.09-0.05c-0.02-0.03-0.02-0.07-0.02-0.12v-0.04
			C80.06,117.52,80,117.57,79.96,117.6z M84.81,135.9l-2.03-1.48l-1.57,1.38l0.43-2.36l-1.9-1.31c0,0,2.16,0,2.26,0.03
			s0.69-2.13,0.69-2.13l0.89,2.1l1.93,0.03l-1.41,1.41L84.81,135.9z M86.08,124.93c-0.19,0.27-0.4,0.4-0.63,0.4
			c-0.02,0-0.03-0.01-0.04-0.02c-0.01-0.01-0.01-0.04-0.01-0.08c0-0.02,0.01-0.03,0.04-0.03c0.13-0.02,0.26-0.09,0.37-0.21
			c0.1-0.1,0.18-0.22,0.24-0.36c-0.06,0.04-0.11,0.07-0.15,0.09s-0.08,0.03-0.12,0.03c-0.08,0-0.14-0.03-0.19-0.09
			s-0.07-0.13-0.07-0.22c0-0.16,0.05-0.3,0.16-0.43c0.1-0.12,0.22-0.19,0.36-0.19c0.09,0,0.17,0.03,0.23,0.09
			c0.06,0.06,0.08,0.15,0.08,0.26C86.35,124.42,86.26,124.67,86.08,124.93z M87.35,124.25c-0.05,0.06-0.13,0.13-0.26,0.23
			c0.07,0.09,0.11,0.17,0.13,0.22c0.02,0.05,0.03,0.11,0.03,0.17c0,0.13-0.04,0.24-0.13,0.33c-0.09,0.09-0.2,0.14-0.32,0.14
			c-0.1,0-0.17-0.03-0.24-0.09s-0.09-0.14-0.09-0.23c0-0.11,0.05-0.22,0.15-0.32c0.05-0.06,0.13-0.12,0.25-0.2
			c-0.07-0.1-0.1-0.19-0.1-0.28c0-0.1,0.04-0.19,0.11-0.27c0.07-0.07,0.16-0.11,0.26-0.11c0.08,0,0.15,0.02,0.2,0.07
			c0.05,0.04,0.08,0.1,0.08,0.17C87.42,124.13,87.39,124.19,87.35,124.25z M88.34,124.76c0.03,0,0.05,0.01,0.05,0.02
			c0,0.01,0,0.03-0.01,0.06s-0.02,0.04-0.02,0.04l-0.18,0l-0.12,0.41c-0.01,0.03-0.03,0.04-0.05,0.04h-0.12
			c-0.01,0-0.02,0-0.02-0.01l0.01-0.03l0.12-0.41c-0.06,0-0.12,0-0.17,0.01c-0.18,0.01-0.28,0.02-0.29,0.02
			c-0.03,0-0.04-0.01-0.04-0.04c0-0.09,0.05-0.21,0.14-0.36c0.08-0.13,0.19-0.26,0.31-0.39c0.12-0.12,0.22-0.22,0.31-0.28h0.19
			l-0.26,0.93H88.34z M90.15,121.63l-0.08,0.07c-0.15,0.13-0.27,0.21-0.36,0.26c-0.09,0.05-0.18,0.08-0.27,0.08
			c-0.08,0-0.14-0.03-0.19-0.1c-0.05-0.06-0.07-0.15-0.07-0.26c0-0.08,0.02-0.17,0.06-0.29c0.08-0.25,0.12-0.41,0.12-0.47
			c0-0.08-0.02-0.11-0.06-0.11c-0.06,0-0.27,0.17-0.63,0.51l-0.04,0.04c0,0.04-0.01,0.08-0.01,0.12c0,0.04,0,0.06,0,0.08
			c0,0.03,0,0.06,0,0.08v0.3l0.01,0.09h-0.3c-0.01-0.08-0.02-0.15-0.02-0.22v-0.33c0-0.23,0.08-0.55,0.23-0.97h0.32
			c-0.04,0.09-0.06,0.18-0.09,0.25c-0.02,0.07-0.05,0.15-0.07,0.24c0.19-0.18,0.34-0.31,0.45-0.38s0.21-0.11,0.29-0.11
			c0.07,0,0.12,0.03,0.17,0.1c0.05,0.07,0.07,0.15,0.07,0.25c0,0.08-0.04,0.24-0.13,0.5c-0.04,0.12-0.06,0.22-0.06,0.3
			c0,0.07,0.02,0.11,0.06,0.11c0.03,0,0.1-0.04,0.21-0.11c0.14-0.1,0.26-0.21,0.38-0.35V121.63z M92.11,121.63
			c-0.09,0.07-0.19,0.1-0.31,0.1c-0.07,0-0.13-0.01-0.19-0.04c-0.06-0.03-0.12-0.07-0.18-0.14c-0.18,0.33-0.42,0.49-0.7,0.49
			c-0.15,0-0.27-0.05-0.36-0.14c-0.09-0.1-0.13-0.23-0.13-0.41c0-0.28,0.08-0.51,0.25-0.7c0.17-0.19,0.38-0.28,0.65-0.28l-0.02,0.22
			c-0.19,0.03-0.33,0.1-0.42,0.23c-0.09,0.12-0.13,0.29-0.13,0.49c0,0.23,0.07,0.34,0.22,0.34c0.09,0,0.18-0.05,0.27-0.15
			c0.09-0.1,0.14-0.22,0.17-0.36c-0.02-0.05-0.02-0.09-0.03-0.12c0-0.03-0.01-0.05-0.01-0.08c0-0.07,0.01-0.14,0.02-0.22
			c0.01-0.08,0.04-0.15,0.07-0.21h0.25c0.01,0.05,0.02,0.09,0.02,0.13c0,0.04,0,0.07,0,0.09c0,0.14-0.02,0.28-0.07,0.43
			c0.12,0.12,0.22,0.19,0.3,0.19c0.1,0,0.2-0.06,0.3-0.17V121.63z M94,121.63l-0.08,0.07c-0.15,0.13-0.27,0.21-0.36,0.26
			c-0.09,0.05-0.18,0.08-0.27,0.08c-0.08,0-0.14-0.03-0.19-0.1c-0.05-0.06-0.07-0.15-0.07-0.26c0-0.08,0.02-0.17,0.06-0.29
			c0.08-0.25,0.12-0.41,0.12-0.47c0-0.08-0.02-0.11-0.06-0.11c-0.06,0-0.27,0.17-0.63,0.51l-0.04,0.04c0,0.04-0.01,0.08-0.01,0.12
			c0,0.04,0,0.06,0,0.08c0,0.03,0,0.06,0,0.08v0.3l0.01,0.09h-0.3c-0.01-0.08-0.02-0.15-0.02-0.22v-0.33c0-0.23,0.08-0.55,0.23-0.97
			h0.32c-0.04,0.09-0.06,0.18-0.09,0.25c-0.02,0.07-0.05,0.15-0.07,0.24c0.19-0.18,0.34-0.31,0.45-0.38
			c0.11-0.07,0.21-0.11,0.29-0.11c0.07,0,0.12,0.03,0.17,0.1c0.05,0.07,0.07,0.15,0.07,0.25c0,0.08-0.04,0.24-0.13,0.5
			c-0.04,0.12-0.06,0.22-0.06,0.3c0,0.07,0.02,0.11,0.06,0.11c0.03,0,0.1-0.04,0.21-0.11c0.14-0.1,0.26-0.21,0.38-0.35V121.63z"/>
		<path class="st4" d="M81.59,125.57c0,0.02,0,0.03,0.01,0.05c0.01,0.01,0.02,0.02,0.04,0.02c0.01,0,0.03-0.01,0.04-0.04
			c0.01-0.03,0.03-0.08,0.04-0.15c-0.04,0.02-0.07,0.04-0.1,0.07C81.61,125.53,81.59,125.55,81.59,125.57z"/>
		<path class="st4" d="M80.79,124.72c-0.05-0.06-0.08-0.09-0.1-0.11c-0.02-0.02-0.05-0.03-0.07-0.03c-0.07,0-0.13,0.04-0.19,0.12
			c-0.06,0.08-0.08,0.17-0.08,0.27c0,0.06,0.01,0.11,0.03,0.15c0.02,0.04,0.05,0.06,0.08,0.06c0.04,0,0.1-0.03,0.16-0.1
			c0.04-0.05,0.08-0.1,0.13-0.15L80.79,124.72z"/>
		<path class="st4" d="M81.85,124.91C81.85,124.91,81.85,124.91,81.85,124.91l0.04-0.19c-0.03-0.04-0.06-0.07-0.07-0.09
			c-0.04-0.04-0.07-0.06-0.11-0.06c-0.06,0-0.11,0.03-0.17,0.09c-0.07,0.08-0.1,0.18-0.1,0.3c0,0.06,0.01,0.11,0.03,0.15
			s0.05,0.06,0.08,0.06c0.03,0,0.07-0.02,0.12-0.07c0.04-0.03,0.08-0.07,0.11-0.12l0.04-0.05
			C81.83,124.94,81.84,124.93,81.85,124.91z"/>
		<path class="st4" d="M84.88,117.5c0.03,0,0.07-0.02,0.12-0.07c0.04-0.03,0.08-0.07,0.11-0.12l0.04-0.05
			c0.01-0.01,0.01-0.02,0.02-0.03c0,0,0,0,0-0.01l0.04-0.18c-0.03-0.04-0.06-0.07-0.07-0.09c-0.04-0.04-0.07-0.06-0.11-0.06
			c-0.06,0-0.11,0.03-0.17,0.09c-0.07,0.08-0.1,0.18-0.1,0.3c0,0.06,0.01,0.11,0.03,0.15C84.82,117.48,84.85,117.5,84.88,117.5z"/>
		<path class="st4" d="M87.21,116.92c0-0.03-0.02-0.05-0.05-0.05c-0.05,0-0.1,0.03-0.15,0.09s-0.08,0.13-0.1,0.21
			c0.09-0.03,0.16-0.07,0.22-0.12C87.18,117.01,87.21,116.97,87.21,116.92z"/>
		<path class="st4" d="M87.03,120.9c-0.12,0.13-0.18,0.31-0.18,0.53c0,0.1,0.02,0.19,0.05,0.25c0.04,0.07,0.08,0.1,0.14,0.1
			c0.06,0,0.13-0.04,0.22-0.12c0.07-0.06,0.13-0.13,0.2-0.21l0.06-0.08c0.01-0.01,0.03-0.03,0.04-0.06c0,0,0-0.01,0-0.01l0.07-0.31
			c-0.06-0.07-0.1-0.12-0.12-0.15c-0.06-0.07-0.13-0.1-0.19-0.1C87.22,120.75,87.12,120.8,87.03,120.9z"/>
		<path class="st4" d="M82.78,124.6c0-0.03-0.02-0.05-0.05-0.05c-0.05,0-0.1,0.03-0.15,0.09c-0.05,0.06-0.08,0.13-0.1,0.21
			c0.09-0.03,0.16-0.07,0.22-0.12C82.75,124.69,82.78,124.65,82.78,124.6z"/>
		<path class="st4" d="M84.93,117.89c0,0.02,0,0.03,0.01,0.05c0.01,0.01,0.02,0.02,0.04,0.02c0.01,0,0.03-0.01,0.04-0.04
			c0.01-0.03,0.03-0.08,0.04-0.15c-0.04,0.02-0.07,0.04-0.1,0.07C84.94,117.85,84.93,117.87,84.93,117.89z"/>
		<path class="st4" d="M83.79,117.5c0.04,0,0.1-0.03,0.16-0.1c0.04-0.05,0.08-0.1,0.13-0.15l0.05-0.22
			c-0.05-0.06-0.08-0.09-0.1-0.11c-0.02-0.02-0.05-0.03-0.07-0.03c-0.07,0-0.13,0.04-0.19,0.12s-0.08,0.17-0.08,0.27
			c0,0.06,0.01,0.11,0.03,0.15S83.75,117.5,83.79,117.5z"/>
		<path class="st4" d="M83.05,120.78c0-0.06-0.03-0.08-0.09-0.08c-0.08,0-0.17,0.05-0.25,0.15c-0.09,0.1-0.14,0.22-0.17,0.36
			c0.16-0.06,0.28-0.13,0.37-0.2C83.01,120.93,83.05,120.85,83.05,120.78z"/>
		<path class="st4" d="M86.7,124.83c-0.05,0.07-0.07,0.14-0.07,0.21c0,0.05,0.02,0.09,0.05,0.12c0.03,0.03,0.07,0.05,0.12,0.05
			c0.07,0,0.14-0.03,0.19-0.09c0.06-0.06,0.08-0.13,0.08-0.21c0-0.09-0.05-0.19-0.14-0.31C86.83,124.68,86.75,124.76,86.7,124.83z"
			/>
		<path class="st4" d="M79.03,116.37c0-0.05-0.01-0.08-0.04-0.08c-0.05,0-0.1,0.09-0.17,0.26c-0.06,0.18-0.11,0.34-0.13,0.49
			c0.12-0.16,0.21-0.29,0.26-0.39C79.01,116.54,79.03,116.45,79.03,116.37z"/>
		<path class="st4" d="M87.84,124.47c-0.08,0.11-0.14,0.21-0.18,0.3l0.16-0.01h0.21l0.03-0.1c0.02-0.09,0.05-0.19,0.09-0.3
			c0.03-0.11,0.07-0.21,0.1-0.3l0.03-0.09c-0.08,0.07-0.15,0.15-0.21,0.21C87.98,124.28,87.9,124.38,87.84,124.47z"/>
		<path class="st4" d="M86.03,123.95c-0.09,0-0.17,0.06-0.24,0.19c-0.06,0.11-0.09,0.21-0.09,0.3c0,0.1,0.04,0.15,0.13,0.15
			c0.07,0,0.14-0.03,0.21-0.08c0.1-0.08,0.14-0.2,0.14-0.36c0-0.06-0.01-0.11-0.04-0.15S86.08,123.95,86.03,123.95z"/>
		<path class="st4" d="M87.12,123.95c-0.06,0-0.1,0.02-0.14,0.06s-0.06,0.09-0.06,0.15c0,0.06,0.03,0.13,0.09,0.22
			c0.09-0.07,0.16-0.13,0.19-0.17c0.04-0.05,0.06-0.09,0.06-0.13c0-0.04-0.01-0.06-0.04-0.09
			C87.19,123.96,87.16,123.95,87.12,123.95z"/>
		<path class="st4" d="M80.22,117.04c-0.05-0.06-0.08-0.09-0.1-0.11c-0.02-0.02-0.05-0.03-0.07-0.03c-0.07,0-0.13,0.04-0.19,0.12
			c-0.06,0.08-0.08,0.17-0.08,0.27c0,0.06,0.01,0.11,0.03,0.15s0.05,0.06,0.08,0.06c0.04,0,0.1-0.03,0.16-0.1
			c0.04-0.05,0.08-0.1,0.13-0.15L80.22,117.04z"/>
		<path class="st4" d="M87.12,122.46c0,0.03,0.01,0.06,0.02,0.08c0.02,0.02,0.04,0.03,0.07,0.03c0.02,0,0.05-0.02,0.07-0.07
			c0.02-0.05,0.05-0.14,0.08-0.26c-0.07,0.04-0.13,0.08-0.17,0.12C87.15,122.39,87.12,122.42,87.12,122.46z"/>
		<polygon class="st4" points="83.72,121.32 83.72,121.33 83.72,121.63 83.72,121.63 		"/>
	</g>
	<g>
		<path class="st7" d="M81.3,120.22c0.04-0.11,0.07-0.21,0.11-0.3c-0.02,0-0.04-0.01-0.06-0.02c-0.04,0-0.07,0-0.1,0H81.1
			c-0.07,0.14-0.12,0.3-0.17,0.48c-0.03,0.11-0.07,0.29-0.12,0.54c-0.07,0.32-0.13,0.54-0.18,0.66c-0.05,0.12-0.13,0.17-0.21,0.17
			c-0.03,0-0.07-0.01-0.14-0.02l0.02,0.09c0.02,0.09,0.04,0.15,0.06,0.17c0.02,0.03,0.06,0.04,0.12,0.04c0.23,0,0.41-0.17,0.51-0.51
			c0.04-0.15,0.07-0.3,0.11-0.45c0.08,0.04,0.13,0.06,0.15,0.07s0.07,0.01,0.13,0.01c0.21,0,0.39-0.09,0.55-0.26
			c0.15-0.18,0.23-0.38,0.23-0.62c0-0.25-0.08-0.46-0.25-0.61c-0.17-0.15-0.39-0.23-0.68-0.23c-0.27,0-0.51,0.07-0.71,0.22
			c-0.2,0.15-0.3,0.32-0.3,0.53c0,0.09,0.03,0.18,0.09,0.25c0.06,0.07,0.14,0.11,0.22,0.11c0.03,0,0.06-0.01,0.08-0.04
			c0.02-0.03,0.03-0.06,0.03-0.09c0-0.02-0.03-0.04-0.08-0.08c-0.06-0.04-0.08-0.08-0.08-0.13c0-0.12,0.07-0.23,0.21-0.34
			c0.15-0.11,0.34-0.17,0.55-0.17c0.19,0,0.34,0.05,0.45,0.16c0.11,0.11,0.17,0.25,0.17,0.42c0,0.17-0.05,0.31-0.14,0.44
			c-0.09,0.12-0.2,0.18-0.33,0.18c-0.08,0-0.16-0.03-0.23-0.09l0.02-0.1C81.22,120.49,81.27,120.33,81.3,120.22z"/>
		<path class="st7" d="M83.72,121.32v-0.02c-0.2,0.17-0.38,0.3-0.53,0.38c-0.15,0.08-0.31,0.12-0.46,0.12
			c-0.09,0-0.15-0.04-0.19-0.12c-0.03-0.05-0.04-0.12-0.04-0.21v-0.02l0.08-0.03c0.21-0.09,0.36-0.16,0.45-0.23
			c0.18-0.13,0.26-0.28,0.26-0.45c0-0.19-0.1-0.29-0.3-0.29c-0.21,0-0.4,0.11-0.57,0.32c-0.16,0.21-0.25,0.46-0.25,0.73
			c0,0.14,0.03,0.26,0.1,0.37c0.07,0.11,0.17,0.16,0.3,0.16c0.36,0,0.74-0.14,1.12-0.42L83.72,121.32
			C83.72,121.33,83.72,121.33,83.72,121.32z M82.71,120.85c0.09-0.1,0.17-0.15,0.25-0.15c0.06,0,0.09,0.03,0.09,0.08
			c0,0.08-0.05,0.15-0.14,0.23c-0.09,0.08-0.22,0.14-0.37,0.2C82.57,121.07,82.63,120.95,82.71,120.85z"/>
		<path class="st7" d="M85.46,121.63v-0.32c-0.3,0.3-0.5,0.44-0.61,0.44c-0.04,0-0.06-0.02-0.06-0.06c0-0.03,0.04-0.16,0.12-0.39
			c0.04-0.1,0.05-0.19,0.05-0.26c0-0.15-0.06-0.26-0.17-0.33c-0.05-0.03-0.13-0.06-0.26-0.11c0.04-0.1,0.06-0.18,0.06-0.23
			s-0.01-0.09-0.04-0.11s-0.09-0.02-0.19-0.02c-0.06,0-0.1,0.02-0.12,0.07c-0.02,0.04-0.02,0.11-0.02,0.18
			c0,0.04,0.02,0.1,0.05,0.17c-0.06,0.12-0.14,0.24-0.25,0.37c-0.06,0.06-0.15,0.16-0.29,0.3v0.3c0,0-0.01,0-0.01,0v0.01
			c0.14-0.13,0.25-0.23,0.31-0.29c0.2-0.2,0.35-0.38,0.43-0.55c0.13,0.05,0.2,0.14,0.2,0.25c0,0.06-0.03,0.17-0.1,0.32
			c-0.07,0.16-0.1,0.28-0.1,0.37s0.02,0.16,0.06,0.22c0.04,0.06,0.1,0.08,0.17,0.08C84.88,122.04,85.14,121.91,85.46,121.63z"/>
		<path class="st7" d="M86.19,120.08c0.03-0.03,0.05-0.07,0.07-0.13c0.02-0.06,0.03-0.11,0.03-0.15c0-0.07-0.06-0.11-0.19-0.11
			c-0.06,0-0.11,0.03-0.15,0.1c-0.04,0.07-0.06,0.15-0.06,0.23c0,0.06,0.05,0.09,0.14,0.09C86.11,120.12,86.16,120.11,86.19,120.08z
			"/>
		<path class="st7" d="M85.57,121.07c-0.04,0.18-0.06,0.33-0.06,0.47c0,0.14,0.01,0.24,0.02,0.31c0.03,0.13,0.09,0.2,0.19,0.2
			c0.11,0,0.25-0.05,0.41-0.14c0.14-0.08,0.25-0.17,0.35-0.27v-0.32c-0.08,0.07-0.15,0.14-0.23,0.2c-0.18,0.15-0.3,0.23-0.36,0.23
			c-0.05,0-0.07-0.06-0.07-0.18c0-0.1,0.02-0.23,0.05-0.37c0.03-0.14,0.09-0.33,0.17-0.56l0.04-0.11h-0.32
			C85.67,120.71,85.61,120.89,85.57,121.07z"/>
		<path class="st7" d="M87.3,120.51c-0.2,0-0.39,0.1-0.55,0.3s-0.24,0.43-0.24,0.68c0,0.16,0.04,0.29,0.12,0.39
			c0.08,0.1,0.18,0.16,0.3,0.16c0.07,0,0.14-0.02,0.22-0.07s0.17-0.12,0.27-0.23l0.06-0.06l-0.06,0.27l-0.11,0.06
			c-0.2,0.12-0.32,0.21-0.36,0.25c-0.07,0.07-0.1,0.14-0.1,0.22c0,0.08,0.04,0.14,0.11,0.21s0.16,0.09,0.26,0.09
			c0.14,0,0.24-0.05,0.31-0.16c0.07-0.11,0.13-0.29,0.18-0.54c0.18-0.14,0.36-0.29,0.54-0.44v-0.32c-0.03,0.03-0.14,0.13-0.33,0.31
			c-0.06,0.06-0.11,0.1-0.14,0.12l0.25-1.23l-0.31,0l-0.05,0.24c-0.09-0.1-0.15-0.16-0.2-0.19
			C87.43,120.53,87.37,120.51,87.3,120.51z M87.29,122.49c-0.02,0.05-0.05,0.07-0.07,0.07c-0.03,0-0.06-0.01-0.07-0.03
			c-0.02-0.02-0.02-0.05-0.02-0.08s0.02-0.07,0.07-0.11c0.05-0.04,0.1-0.08,0.17-0.12C87.34,122.36,87.31,122.44,87.29,122.49z
			 M87.63,121l-0.07,0.31c0,0.01,0,0.01,0,0.01c-0.01,0.03-0.03,0.04-0.04,0.06l-0.06,0.08c-0.06,0.08-0.13,0.15-0.2,0.21
			c-0.09,0.08-0.16,0.12-0.22,0.12c-0.06,0-0.1-0.03-0.14-0.1c-0.04-0.07-0.05-0.15-0.05-0.25c0-0.22,0.06-0.39,0.18-0.53
			c0.09-0.1,0.19-0.16,0.29-0.16c0.06,0,0.12,0.03,0.19,0.1C87.53,120.88,87.57,120.93,87.63,121z"/>
		<path class="st7" d="M89.55,121.77c-0.04,0-0.06-0.04-0.06-0.11c0-0.08,0.02-0.18,0.06-0.3c0.09-0.26,0.13-0.42,0.13-0.5
			c0-0.1-0.02-0.18-0.07-0.25c-0.05-0.07-0.1-0.1-0.17-0.1c-0.08,0-0.18,0.04-0.29,0.11s-0.26,0.2-0.45,0.38
			c0.02-0.09,0.05-0.17,0.07-0.24c0.02-0.07,0.05-0.16,0.09-0.25h-0.32c-0.15,0.42-0.23,0.74-0.23,0.97v0.33
			c0,0.07,0.01,0.14,0.02,0.22h0.3l-0.01-0.09v-0.3c0-0.02,0-0.05,0-0.08c0-0.01,0-0.04,0-0.08c0-0.04,0.01-0.08,0.01-0.12
			l0.04-0.04c0.36-0.34,0.57-0.51,0.63-0.51c0.04,0,0.06,0.04,0.06,0.11c0,0.06-0.04,0.21-0.12,0.47c-0.04,0.11-0.06,0.21-0.06,0.29
			c0,0.11,0.02,0.19,0.07,0.26c0.05,0.06,0.11,0.1,0.19,0.1c0.09,0,0.17-0.03,0.27-0.08c0.09-0.05,0.21-0.14,0.36-0.26l0.08-0.07
			v-0.32c-0.12,0.14-0.25,0.25-0.38,0.35C89.66,121.73,89.59,121.77,89.55,121.77z"/>
		<path class="st7" d="M91.51,121.3c0.05-0.15,0.07-0.29,0.07-0.43c0-0.02,0-0.05,0-0.09c0-0.04-0.01-0.08-0.02-0.13H91.3
			c-0.04,0.06-0.06,0.13-0.07,0.21c-0.01,0.08-0.02,0.16-0.02,0.22c0,0.03,0,0.06,0.01,0.08c0,0.03,0.01,0.06,0.03,0.12
			c-0.03,0.14-0.08,0.26-0.17,0.36c-0.09,0.1-0.18,0.15-0.27,0.15c-0.15,0-0.22-0.11-0.22-0.34c0-0.2,0.04-0.37,0.13-0.49
			c0.09-0.12,0.23-0.2,0.42-0.23l0.02-0.22c-0.27,0-0.49,0.09-0.65,0.28c-0.17,0.19-0.25,0.42-0.25,0.7c0,0.17,0.04,0.31,0.13,0.41
			c0.09,0.1,0.2,0.14,0.36,0.14c0.29,0,0.52-0.16,0.7-0.49c0.06,0.07,0.12,0.11,0.18,0.14c0.06,0.03,0.12,0.04,0.19,0.04
			c0.12,0,0.23-0.03,0.31-0.1v-0.32c-0.1,0.12-0.2,0.17-0.3,0.17C91.73,121.48,91.63,121.42,91.51,121.3z"/>
		<path class="st7" d="M93.62,121.66c-0.11,0.08-0.18,0.11-0.21,0.11c-0.04,0-0.06-0.04-0.06-0.11c0-0.08,0.02-0.18,0.06-0.3
			c0.09-0.26,0.13-0.42,0.13-0.5c0-0.1-0.02-0.18-0.07-0.25c-0.05-0.07-0.1-0.1-0.17-0.1c-0.08,0-0.18,0.04-0.29,0.11
			c-0.11,0.07-0.26,0.2-0.45,0.38c0.02-0.09,0.05-0.17,0.07-0.24c0.02-0.07,0.05-0.16,0.09-0.25H92.4
			c-0.15,0.42-0.23,0.74-0.23,0.97v0.33c0,0.07,0.01,0.14,0.02,0.22h0.3l-0.01-0.09v-0.3c0-0.02,0-0.05,0-0.08c0-0.01,0-0.04,0-0.08
			c0-0.04,0-0.08,0.01-0.12l0.04-0.04c0.36-0.34,0.57-0.51,0.63-0.51c0.04,0,0.06,0.04,0.06,0.11c0,0.06-0.04,0.21-0.12,0.47
			c-0.04,0.11-0.06,0.21-0.06,0.29c0,0.11,0.02,0.19,0.07,0.26c0.05,0.06,0.11,0.1,0.19,0.1c0.09,0,0.17-0.03,0.27-0.08
			c0.09-0.05,0.21-0.14,0.36-0.26l0.08-0.07v-0.32C93.88,121.44,93.75,121.56,93.62,121.66z"/>
		<path class="st7" d="M77.93,117.65c0.18,0,0.37-0.08,0.55-0.23v-0.07v-0.11c-0.1,0.1-0.19,0.17-0.27,0.21
			c-0.08,0.04-0.16,0.07-0.25,0.07c-0.1,0-0.18-0.04-0.23-0.12c-0.06-0.08-0.09-0.18-0.09-0.32c0-0.19,0.05-0.36,0.14-0.52
			c0.1-0.18,0.21-0.26,0.33-0.26c0.1,0,0.16,0.06,0.16,0.19c0,0.08-0.02,0.16-0.07,0.25c-0.05,0.09-0.09,0.13-0.13,0.13
			c-0.04,0-0.05-0.03-0.05-0.08c0-0.02,0.01-0.05,0.02-0.09c0.01-0.04,0.03-0.08,0.04-0.12c0-0.01-0.01-0.01-0.03-0.01
			c-0.06,0-0.11,0.02-0.14,0.07c-0.02,0.04-0.04,0.09-0.04,0.16c0,0.06,0.02,0.11,0.05,0.14s0.08,0.05,0.14,0.05
			c0.1,0,0.19-0.06,0.27-0.18c0.07-0.11,0.1-0.23,0.1-0.35c0-0.1-0.03-0.17-0.08-0.23c-0.06-0.06-0.13-0.09-0.22-0.09
			c-0.18,0-0.34,0.1-0.47,0.29c-0.13,0.19-0.19,0.42-0.19,0.66c0,0.17,0.04,0.31,0.12,0.41C77.67,117.6,77.78,117.65,77.93,117.65z"
			/>
		<path class="st7" d="M78.51,117.64h0.17l-0.01-0.2c0-0.04,0-0.07,0-0.09s0-0.05,0.01-0.09c0.09-0.1,0.17-0.18,0.24-0.24
			c0.07-0.06,0.13-0.08,0.17-0.08c0.02,0,0.04,0.02,0.04,0.05c0,0.04-0.02,0.12-0.06,0.22S79,117.4,79,117.45
			c0,0.06,0.02,0.1,0.05,0.14c0.03,0.04,0.07,0.06,0.11,0.06c0.05,0,0.12-0.02,0.18-0.06c0.07-0.04,0.14-0.1,0.2-0.17v-0.19
			c-0.15,0.18-0.26,0.27-0.33,0.27c-0.02,0-0.03-0.02-0.03-0.05c0-0.05,0.02-0.13,0.06-0.24c0.04-0.11,0.06-0.19,0.06-0.25
			c0-0.06-0.01-0.11-0.03-0.14c-0.02-0.03-0.05-0.05-0.09-0.05c-0.03,0-0.06,0.01-0.09,0.02s-0.08,0.04-0.15,0.08
			c0.16-0.2,0.23-0.38,0.23-0.52c0-0.06-0.02-0.11-0.05-0.15c-0.03-0.04-0.07-0.06-0.12-0.06c-0.1,0-0.19,0.08-0.28,0.25
			c-0.07,0.14-0.13,0.31-0.18,0.51c-0.04,0.18-0.06,0.33-0.06,0.44c0,0,0,0.05,0.01,0.15C78.5,117.58,78.5,117.63,78.51,117.64z
			 M78.82,116.55c0.06-0.18,0.12-0.26,0.17-0.26c0.03,0,0.04,0.03,0.04,0.08c0,0.08-0.03,0.17-0.08,0.28
			c-0.05,0.11-0.14,0.24-0.26,0.39C78.71,116.89,78.76,116.73,78.82,116.55z"/>
		<path class="st7" d="M80.15,117.6c0.02,0.03,0.05,0.05,0.09,0.05c0.1,0,0.23-0.08,0.4-0.23v-0.19c-0.07,0.08-0.13,0.13-0.19,0.18
			s-0.09,0.06-0.11,0.06c-0.02,0-0.03-0.01-0.03-0.04c0-0.02,0-0.04,0.01-0.09c0.01-0.04,0.02-0.08,0.03-0.12l0.11-0.46h-0.18
			l-0.04,0.14c-0.03-0.05-0.07-0.08-0.1-0.1c-0.04-0.02-0.08-0.03-0.12-0.03c-0.11,0-0.21,0.05-0.3,0.16
			c-0.1,0.12-0.15,0.25-0.15,0.41c0,0.08,0.02,0.16,0.07,0.22c0.05,0.06,0.11,0.09,0.17,0.09c0.04,0,0.09-0.02,0.13-0.05
			c0.05-0.03,0.1-0.08,0.17-0.16v0.04C80.13,117.52,80.14,117.56,80.15,117.6z M80.04,117.4c-0.06,0.06-0.11,0.1-0.16,0.1
			c-0.03,0-0.06-0.02-0.08-0.06s-0.03-0.09-0.03-0.15c0-0.1,0.03-0.19,0.08-0.27c0.06-0.08,0.12-0.12,0.19-0.12
			c0.03,0,0.05,0.01,0.07,0.03c0.02,0.01,0.05,0.05,0.1,0.11l-0.05,0.22C80.12,117.31,80.08,117.35,80.04,117.4z"/>
		<path class="st7" d="M80.69,117.64h0.16v-0.23v-0.15c0.1-0.1,0.18-0.17,0.23-0.21c0.06-0.05,0.11-0.08,0.13-0.08
			c0.03,0,0.04,0.02,0.04,0.06c0,0.06-0.02,0.16-0.05,0.3c-0.01,0.05-0.04,0.15-0.08,0.3h0.18c0.03-0.12,0.05-0.21,0.06-0.27
			c0.01-0.06,0.02-0.1,0.03-0.13l0.03-0.03c0.05-0.04,0.09-0.08,0.14-0.12c0.09-0.07,0.14-0.1,0.16-0.1c0.02,0,0.03,0.01,0.03,0.04
			c0,0.03-0.02,0.12-0.07,0.27c-0.02,0.07-0.03,0.12-0.03,0.17c0,0.04,0.01,0.08,0.03,0.11c0.03,0.05,0.07,0.08,0.13,0.08
			c0.05,0,0.11-0.02,0.17-0.06c0.06-0.04,0.13-0.1,0.21-0.17v-0.18c0,0,0-0.01,0.01-0.01v0c-0.08,0.08-0.15,0.15-0.2,0.2
			s-0.1,0.07-0.12,0.07c-0.01,0-0.02-0.01-0.02-0.02c-0.01-0.01-0.01-0.03-0.01-0.04c0-0.04,0.02-0.13,0.07-0.27
			c0.02-0.06,0.03-0.12,0.03-0.16c0-0.05-0.01-0.1-0.04-0.13c-0.03-0.04-0.06-0.05-0.1-0.05c-0.05,0-0.11,0.03-0.19,0.08
			c-0.03,0.02-0.09,0.07-0.17,0.14V117c0-0.07-0.02-0.13-0.05-0.17c-0.03-0.03-0.06-0.05-0.09-0.05c-0.04,0-0.09,0.02-0.15,0.06
			s-0.14,0.11-0.23,0.21c0.01-0.05,0.02-0.09,0.03-0.12c0.01-0.03,0.03-0.08,0.04-0.13l0.01-0.03h-0.19
			c-0.04,0.12-0.08,0.23-0.1,0.32c-0.02,0.1-0.04,0.17-0.04,0.24c0,0.02,0,0.07,0.01,0.14C80.68,117.54,80.69,117.6,80.69,117.64z"
			/>
		<path class="st7" d="M82.39,117.2c0.06-0.08,0.13-0.18,0.2-0.31c-0.04,0.16-0.08,0.32-0.13,0.48s-0.1,0.3-0.16,0.45
			c-0.02,0.06-0.04,0.09-0.04,0.09c-0.01,0.02-0.01,0.05-0.01,0.06v0.02c0,0.06,0.04,0.08,0.11,0.08c0.05,0,0.07-0.02,0.08-0.06
			c0.03-0.1,0.07-0.24,0.11-0.41c0.05-0.17,0.11-0.32,0.18-0.43c0.06-0.09,0.11-0.15,0.16-0.2c0.05-0.05,0.09-0.07,0.12-0.07
			c0.04,0,0.07,0.05,0.07,0.14c0,0.09-0.02,0.17-0.05,0.26c-0.03,0.07-0.06,0.13-0.11,0.17c-0.04-0.01-0.06-0.02-0.07-0.02
			c-0.02-0.01-0.05-0.01-0.07-0.01c-0.03,0-0.05,0.02-0.07,0.04c-0.01,0.03-0.02,0.06-0.02,0.1c0,0.05,0.04,0.07,0.11,0.07
			c0.06,0,0.1-0.01,0.14-0.03c0.05,0.02,0.1,0.03,0.13,0.03c0.07,0,0.14-0.02,0.21-0.07c0.01-0.01,0.07-0.06,0.17-0.15v-0.19
			c-0.01,0.02-0.02,0.03-0.03,0.04c-0.02,0.02-0.03,0.04-0.05,0.05c-0.07,0.07-0.12,0.11-0.14,0.13c-0.06,0.04-0.12,0.06-0.17,0.06
			c0.13-0.15,0.19-0.31,0.19-0.5c0-0.07-0.02-0.13-0.05-0.18c-0.04-0.05-0.08-0.07-0.14-0.07s-0.11,0.02-0.16,0.06
			c-0.05,0.04-0.11,0.11-0.18,0.2l-0.03,0.04l0.12-0.49h-0.15c-0.14,0.25-0.29,0.46-0.47,0.65v0.18
			C82.27,117.35,82.33,117.28,82.39,117.2z"/>
		<path class="st7" d="M83.73,117.65c0.04,0,0.09-0.02,0.13-0.05c0.05-0.03,0.1-0.08,0.17-0.16v0.04c0,0.05,0.01,0.09,0.02,0.12
			s0.05,0.05,0.09,0.05c0.1,0,0.23-0.08,0.4-0.23v-0.19c-0.07,0.08-0.13,0.13-0.19,0.18s-0.09,0.06-0.11,0.06
			c-0.02,0-0.03-0.01-0.03-0.04c0-0.02,0-0.04,0.01-0.09c0.01-0.04,0.02-0.08,0.03-0.12l0.11-0.46h-0.18l-0.04,0.14
			c-0.03-0.05-0.07-0.08-0.1-0.1c-0.04-0.02-0.08-0.03-0.12-0.03c-0.11,0-0.21,0.05-0.3,0.16c-0.1,0.12-0.15,0.25-0.15,0.41
			c0,0.08,0.02,0.16,0.07,0.22S83.66,117.65,83.73,117.65z M83.76,117.02c0.06-0.08,0.12-0.12,0.19-0.12c0.03,0,0.05,0.01,0.07,0.03
			c0.02,0.01,0.05,0.05,0.1,0.11l-0.05,0.22c-0.04,0.05-0.08,0.1-0.13,0.15c-0.06,0.06-0.11,0.1-0.16,0.1
			c-0.03,0-0.06-0.02-0.08-0.06s-0.03-0.09-0.03-0.15C83.68,117.19,83.7,117.1,83.76,117.02z"/>
		<path class="st7" d="M84.82,117.65c0.04,0,0.08-0.01,0.13-0.04c0.04-0.03,0.1-0.07,0.16-0.14l0.03-0.04l-0.03,0.16l-0.06,0.03
			c-0.12,0.07-0.19,0.12-0.21,0.14c-0.04,0.04-0.06,0.08-0.06,0.12c0,0.04,0.02,0.08,0.06,0.12c0.04,0.04,0.09,0.05,0.15,0.05
			c0.08,0,0.14-0.03,0.18-0.09s0.08-0.17,0.1-0.31c0.1-0.08,0.21-0.17,0.31-0.25v-0.19c-0.02,0.02-0.08,0.08-0.19,0.18
			c-0.04,0.03-0.06,0.06-0.08,0.07l0.15-0.71l-0.18,0l-0.03,0.14c-0.05-0.06-0.09-0.09-0.11-0.11c-0.03-0.02-0.06-0.03-0.1-0.03
			c-0.12,0-0.22,0.06-0.32,0.17s-0.14,0.25-0.14,0.39c0,0.09,0.02,0.17,0.07,0.23C84.69,117.62,84.75,117.65,84.82,117.65z
			 M85.02,117.91c-0.01,0.03-0.03,0.04-0.04,0.04c-0.02,0-0.03-0.01-0.04-0.02c-0.01-0.01-0.01-0.03-0.01-0.05
			c0-0.02,0.01-0.04,0.04-0.06c0.03-0.02,0.06-0.04,0.1-0.07C85.05,117.83,85.04,117.88,85.02,117.91z M84.87,117
			c0.05-0.06,0.11-0.09,0.17-0.09c0.04,0,0.07,0.02,0.11,0.06c0.01,0.01,0.04,0.04,0.07,0.09l-0.04,0.18c0,0,0,0.01,0,0.01
			c-0.01,0.01-0.01,0.03-0.02,0.03l-0.04,0.05c-0.04,0.05-0.07,0.09-0.11,0.12c-0.05,0.05-0.09,0.07-0.12,0.07
			c-0.03,0-0.06-0.02-0.08-0.06c-0.02-0.04-0.03-0.09-0.03-0.15C84.77,117.17,84.8,117.07,84.87,117z"/>
		<path class="st7" d="M85.8,117.64l-0.01-0.05v-0.17c0-0.01,0-0.03,0-0.05c0-0.01,0-0.02,0-0.04s0-0.05,0-0.07l0.02-0.02
			c0.21-0.2,0.33-0.29,0.36-0.29c0.02,0,0.03,0.02,0.03,0.07c0,0.03-0.02,0.12-0.07,0.27c-0.02,0.07-0.03,0.12-0.03,0.17
			c0,0.06,0.01,0.11,0.04,0.15s0.06,0.06,0.11,0.06c0.05,0,0.1-0.01,0.15-0.04s0.12-0.08,0.21-0.15l0.05-0.04v-0.19
			c-0.07,0.08-0.14,0.15-0.22,0.2c-0.06,0.04-0.1,0.07-0.12,0.07c-0.02,0-0.04-0.02-0.04-0.06c0-0.05,0.01-0.1,0.04-0.17
			c0.05-0.15,0.07-0.25,0.07-0.29c0-0.06-0.01-0.1-0.04-0.14c-0.03-0.04-0.06-0.06-0.1-0.06c-0.05,0-0.1,0.02-0.17,0.06
			c-0.06,0.04-0.15,0.11-0.26,0.22c0.01-0.05,0.03-0.1,0.04-0.14c0.01-0.04,0.03-0.09,0.05-0.14h-0.18
			c-0.09,0.24-0.13,0.43-0.13,0.56v0.19c0,0.04,0,0.08,0.01,0.12H85.8z"/>
		<path class="st7" d="M86.94,117.66c0.21,0,0.43-0.08,0.65-0.24v-0.18c-0.12,0.1-0.22,0.17-0.31,0.22
			c-0.09,0.04-0.18,0.07-0.26,0.07c-0.05,0-0.09-0.02-0.11-0.07c-0.02-0.03-0.02-0.07-0.02-0.12v-0.01l0.05-0.02
			c0.12-0.05,0.21-0.09,0.26-0.13c0.1-0.07,0.15-0.16,0.15-0.26c0-0.11-0.06-0.17-0.18-0.17c-0.12,0-0.23,0.06-0.33,0.18
			c-0.09,0.12-0.14,0.26-0.14,0.42c0,0.08,0.02,0.15,0.06,0.22C86.81,117.62,86.87,117.66,86.94,117.66z M87.01,116.96
			c0.05-0.06,0.1-0.09,0.15-0.09c0.03,0,0.05,0.02,0.05,0.05c0,0.04-0.03,0.09-0.08,0.13c-0.05,0.04-0.13,0.08-0.22,0.12
			C86.93,117.09,86.96,117.02,87.01,116.96z"/>
		<path class="st7" d="M72.33,119.42c-0.3,0-0.55,0.09-0.76,0.28c-0.21,0.18-0.31,0.41-0.31,0.67c0,0.19,0.05,0.34,0.16,0.47
			c0.11,0.13,0.25,0.21,0.43,0.24c-0.04,0.23-0.09,0.39-0.14,0.48c-0.16,0.02-0.29,0.07-0.38,0.15c-0.07,0.06-0.11,0.13-0.11,0.2
			c0,0.08,0.05,0.12,0.16,0.12c0.08,0,0.16-0.01,0.22-0.04c0.07-0.03,0.15-0.08,0.25-0.16c0.04,0.01,0.14,0.05,0.29,0.12
			c0.12,0.06,0.22,0.08,0.3,0.08c0.25,0,0.47-0.13,0.67-0.4c0.21-0.28,0.32-0.63,0.32-1.04c0-0.36-0.11-0.65-0.33-0.87
			C72.91,119.52,72.65,119.42,72.33,119.42z M72.96,121.4c-0.13,0.22-0.28,0.33-0.44,0.33c-0.17-0.06-0.35-0.11-0.52-0.17
			c0.07-0.12,0.13-0.28,0.17-0.47c0.18-0.03,0.28-0.09,0.29-0.2c-0.05,0.01-0.1,0.01-0.14,0.01c-0.02,0-0.04,0-0.09,0
			c0.03-0.16,0.07-0.32,0.11-0.49c0.06-0.2,0.11-0.37,0.16-0.5c-0.03,0-0.06-0.01-0.09-0.01c-0.03,0-0.06-0.01-0.09-0.01h-0.12
			c-0.05,0.11-0.09,0.22-0.13,0.35s-0.1,0.32-0.17,0.58c-0.24-0.08-0.36-0.24-0.36-0.47c0-0.19,0.08-0.35,0.23-0.48
			c0.15-0.13,0.33-0.19,0.55-0.19c0.25,0,0.46,0.09,0.61,0.26c0.15,0.17,0.23,0.41,0.23,0.7C73.16,120.92,73.09,121.17,72.96,121.4z
			"/>
		<path class="st7" d="M74.94,121.3c0.05-0.15,0.07-0.29,0.07-0.43c0-0.02,0-0.05,0-0.09c0-0.04-0.01-0.08-0.02-0.13h-0.25
			c-0.04,0.06-0.06,0.13-0.07,0.21c-0.01,0.08-0.02,0.16-0.02,0.22c0,0.03,0,0.06,0.01,0.08c0,0.03,0.01,0.06,0.03,0.12
			c-0.03,0.14-0.08,0.26-0.17,0.36c-0.09,0.1-0.18,0.15-0.27,0.15c-0.15,0-0.22-0.11-0.22-0.34c0-0.2,0.04-0.37,0.13-0.49
			c0.09-0.12,0.23-0.2,0.42-0.23l0.02-0.22c-0.27,0-0.49,0.09-0.65,0.28c-0.17,0.19-0.25,0.42-0.25,0.7c0,0.17,0.04,0.31,0.13,0.41
			c0.09,0.1,0.2,0.14,0.36,0.14c0.29,0,0.52-0.16,0.7-0.49c0.06,0.07,0.12,0.11,0.18,0.14c0.06,0.03,0.12,0.04,0.19,0.04
			c0.12,0,0.23-0.03,0.31-0.1v-0.32c-0.1,0.12-0.2,0.17-0.3,0.17C75.16,121.48,75.06,121.42,74.94,121.3z"/>
		<path class="st7" d="M76.37,122.02h0.32c0.05-0.21,0.09-0.37,0.11-0.47c0.02-0.1,0.04-0.18,0.04-0.23l0.06-0.06
			c0.08-0.07,0.16-0.14,0.24-0.2c0.15-0.12,0.24-0.18,0.27-0.18c0.04,0,0.05,0.02,0.05,0.07c0,0.05-0.04,0.2-0.13,0.46
			c-0.04,0.11-0.06,0.21-0.06,0.3c0,0.07,0.02,0.13,0.05,0.19c0.05,0.09,0.12,0.14,0.22,0.14c0.09,0,0.19-0.03,0.3-0.1
			c0.11-0.07,0.23-0.17,0.38-0.31v-0.32c-0.14,0.14-0.25,0.26-0.35,0.34c-0.1,0.08-0.17,0.12-0.22,0.12c-0.02,0-0.03-0.01-0.04-0.03
			c-0.01-0.02-0.02-0.05-0.02-0.08c0-0.07,0.04-0.22,0.12-0.46c0.04-0.11,0.06-0.2,0.06-0.28c0-0.09-0.03-0.17-0.08-0.23
			c-0.05-0.06-0.11-0.09-0.18-0.09c-0.08,0-0.19,0.05-0.33,0.14c-0.05,0.04-0.15,0.11-0.3,0.23v-0.06c0-0.13-0.03-0.23-0.08-0.3
			c-0.05-0.06-0.1-0.08-0.15-0.08c-0.07,0-0.16,0.04-0.26,0.11S76.17,120.82,76,121c0.02-0.08,0.04-0.15,0.06-0.21
			c0.02-0.06,0.04-0.13,0.08-0.22l0.02-0.05h-0.33c-0.08,0.21-0.13,0.39-0.17,0.56s-0.06,0.3-0.06,0.41c0,0.04,0,0.12,0.01,0.24
			c0.01,0.12,0.01,0.23,0.02,0.31h0.28v-0.4v-0.25c0.18-0.17,0.31-0.29,0.39-0.36c0.11-0.09,0.18-0.14,0.23-0.14
			c0.04,0,0.07,0.03,0.07,0.1c0,0.11-0.03,0.28-0.09,0.53C76.49,121.58,76.44,121.76,76.37,122.02z"/>
		<path class="st7" d="M77.66,124.25c0.04-0.14,0.06-0.25,0.06-0.34c0-0.04-0.01-0.07-0.02-0.08c-0.01-0.01-0.03-0.02-0.06-0.02
			c-0.04,0-0.07,0.01-0.08,0.02c-0.02,0.02-0.04,0.07-0.05,0.12c-0.01,0.06-0.02,0.11-0.02,0.17c0,0.04,0.01,0.08,0.02,0.11
			c-0.02,0.09-0.04,0.15-0.05,0.19c-0.01,0.05-0.03,0.1-0.06,0.15c-0.06,0.14-0.14,0.27-0.22,0.38c-0.1,0.13-0.19,0.2-0.26,0.2
			c-0.02,0-0.04-0.01-0.06-0.03c-0.02-0.02-0.02-0.05-0.02-0.09c0-0.03,0-0.06,0.01-0.1c0.01-0.04,0.02-0.09,0.04-0.16l0.14-0.49
			c0.01-0.04,0.03-0.1,0.04-0.18c0.02-0.08,0.02-0.14,0.02-0.18c0-0.08-0.02-0.12-0.07-0.12c-0.08,0-0.23,0.1-0.43,0.3l0.03,0.13
			c0.03-0.02,0.07-0.05,0.12-0.09c0.08-0.06,0.13-0.09,0.14-0.09c0,0,0,0.01,0,0.01c0,0,0,0.01,0,0.02c0,0.03-0.01,0.09-0.04,0.17
			l-0.13,0.44c-0.04,0.15-0.06,0.28-0.06,0.37c0,0.08,0.02,0.14,0.06,0.19c0.04,0.05,0.09,0.07,0.15,0.07
			c0.06,0,0.13-0.02,0.21-0.07c0.09-0.06,0.18-0.16,0.27-0.28c0.1-0.15,0.19-0.35,0.27-0.59l0.02,0.02
			c0.02,0.02,0.03,0.03,0.03,0.03c0.01,0.01,0.02,0.02,0.03,0.02l0.09-0.09c-0.01-0.01-0.03-0.02-0.06-0.05
			C77.7,124.29,77.67,124.27,77.66,124.25z"/>
		<path class="st7" d="M78.03,125.16c-0.03,0-0.04-0.04-0.04-0.1c0-0.06,0.01-0.13,0.03-0.21c0.02-0.08,0.05-0.19,0.1-0.33
			l0.02-0.07h-0.18c-0.04,0.11-0.08,0.22-0.1,0.32c-0.02,0.1-0.04,0.19-0.04,0.27c0,0.08,0,0.14,0.01,0.18
			c0.02,0.08,0.05,0.11,0.11,0.11c0.06,0,0.14-0.03,0.24-0.08c0.08-0.05,0.15-0.1,0.2-0.16v-0.19c-0.04,0.04-0.09,0.08-0.13,0.12
			C78.14,125.11,78.07,125.16,78.03,125.16z"/>
		<path class="st7" d="M78.07,124.03c-0.02,0.04-0.03,0.08-0.03,0.14c0,0.04,0.03,0.05,0.08,0.05c0.04,0,0.07-0.01,0.09-0.02
			c0.02-0.02,0.03-0.04,0.04-0.08c0.01-0.04,0.02-0.07,0.02-0.09c0-0.04-0.04-0.06-0.11-0.06C78.12,123.97,78.1,123.99,78.07,124.03
			z"/>
		<path class="st7" d="M79.12,125.17c-0.02,0-0.03-0.02-0.03-0.06c0-0.05,0.01-0.1,0.03-0.18c0.05-0.15,0.07-0.24,0.07-0.29
			c0-0.06-0.01-0.1-0.04-0.14c-0.03-0.04-0.06-0.06-0.1-0.06c-0.05,0-0.1,0.02-0.17,0.06c-0.06,0.04-0.15,0.11-0.26,0.22
			c0.01-0.05,0.03-0.1,0.04-0.14c0.01-0.04,0.03-0.09,0.05-0.14h-0.18c-0.09,0.24-0.13,0.43-0.13,0.56v0.19c0,0.04,0,0.08,0.01,0.12
			h0.17l-0.01-0.05v-0.17c0-0.01,0-0.03,0-0.05c0-0.01,0-0.02,0-0.04c0-0.02,0-0.05,0-0.07l0.02-0.02c0.21-0.2,0.33-0.29,0.36-0.29
			c0.02,0,0.03,0.02,0.03,0.07c0,0.03-0.02,0.12-0.07,0.27c-0.02,0.07-0.03,0.12-0.03,0.17c0,0.06,0.01,0.11,0.04,0.15
			c0.03,0.04,0.06,0.06,0.11,0.06c0.05,0,0.1-0.01,0.15-0.04c0.05-0.03,0.12-0.08,0.21-0.15l0.05-0.04v-0.19
			c-0.07,0.08-0.14,0.15-0.22,0.2C79.18,125.15,79.14,125.17,79.12,125.17z"/>
		<path class="st7" d="M79.79,125.16c0,0-0.01,0.01-0.01,0.01c-0.04,0-0.07-0.06-0.07-0.19c0-0.03,0.01-0.08,0.01-0.12
			c0-0.01,0-0.02,0-0.04c0.01-0.06,0.03-0.12,0.05-0.2l0.01-0.04h0.14H80l0.03-0.13l-0.2,0l0.15-0.47l-0.18,0l-0.16,0.49
			c0,0,0,0,0,0c-0.02,0-0.05,0.01-0.06,0.01c-0.02,0-0.03,0.01-0.03,0.02l-0.01,0.08l0.07-0.01l-0.02,0.07
			c-0.03,0.1-0.05,0.17-0.05,0.21s-0.01,0.09-0.01,0.15c0,0.1,0.02,0.17,0.05,0.23c0.03,0.06,0.08,0.09,0.13,0.09
			c0.03,0,0.07-0.02,0.11-0.03c0.01-0.01,0.03,0,0.04-0.01c0.08-0.04,0.17-0.1,0.27-0.19v-0.19c-0.08,0.09-0.16,0.15-0.23,0.2
			C79.84,125.14,79.81,125.15,79.79,125.16z"/>
		<path class="st7" d="M80.91,125.15c-0.02,0-0.03-0.01-0.03-0.04c0-0.02,0-0.04,0.01-0.09c0.01-0.04,0.02-0.08,0.03-0.12l0.11-0.46
			h-0.18l-0.04,0.14c-0.03-0.05-0.07-0.08-0.1-0.1c-0.04-0.02-0.08-0.03-0.12-0.03c-0.11,0-0.21,0.05-0.3,0.16
			c-0.1,0.12-0.15,0.25-0.15,0.41c0,0.08,0.02,0.16,0.07,0.22c0.05,0.06,0.11,0.09,0.17,0.09c0.04,0,0.09-0.02,0.13-0.05
			c0.05-0.03,0.1-0.08,0.17-0.16v0.04c0,0.05,0.01,0.09,0.02,0.12c0.02,0.03,0.05,0.05,0.09,0.05c0.1,0,0.23-0.08,0.4-0.23v-0.19
			c-0.07,0.08-0.13,0.13-0.19,0.18S80.94,125.15,80.91,125.15z M80.74,124.93c-0.04,0.05-0.08,0.1-0.13,0.15
			c-0.06,0.06-0.11,0.1-0.16,0.1c-0.03,0-0.06-0.02-0.08-0.06c-0.02-0.04-0.03-0.09-0.03-0.15c0-0.1,0.03-0.19,0.08-0.27
			c0.06-0.08,0.12-0.12,0.19-0.12c0.03,0,0.05,0.01,0.07,0.03c0.02,0.01,0.05,0.05,0.1,0.11L80.74,124.93z"/>
		<path class="st7" d="M81.97,125.16l0.15-0.71l-0.18,0l-0.03,0.14c-0.05-0.06-0.09-0.09-0.12-0.11s-0.06-0.03-0.1-0.03
			c-0.12,0-0.22,0.06-0.32,0.17c-0.09,0.11-0.14,0.25-0.14,0.39c0,0.09,0.02,0.17,0.07,0.23s0.1,0.09,0.17,0.09
			c0.04,0,0.08-0.01,0.13-0.04s0.1-0.07,0.16-0.14l0.03-0.03l-0.03,0.16l-0.06,0.04c-0.12,0.07-0.19,0.12-0.21,0.14
			c-0.04,0.04-0.06,0.08-0.06,0.12c0,0.04,0.02,0.08,0.06,0.12c0.04,0.04,0.09,0.05,0.15,0.05c0.08,0,0.14-0.03,0.18-0.09
			c0.04-0.06,0.08-0.17,0.1-0.31c0.1-0.08,0.21-0.17,0.31-0.25v-0.19c-0.02,0.02-0.08,0.08-0.19,0.18
			C82.02,125.12,81.99,125.14,81.97,125.16z M81.69,125.59c-0.01,0.03-0.03,0.04-0.04,0.04c-0.02,0-0.03-0.01-0.04-0.02
			c-0.01-0.01-0.01-0.03-0.01-0.05c0-0.02,0.01-0.04,0.04-0.06c0.03-0.02,0.06-0.04,0.1-0.07C81.72,125.51,81.7,125.56,81.69,125.59
			z M81.85,124.91C81.85,124.91,81.85,124.91,81.85,124.91c-0.01,0.02-0.02,0.03-0.02,0.04l-0.04,0.05
			c-0.04,0.05-0.07,0.09-0.11,0.12c-0.05,0.05-0.09,0.07-0.12,0.07c-0.03,0-0.06-0.02-0.08-0.06s-0.03-0.09-0.03-0.15
			c0-0.13,0.03-0.23,0.1-0.3c0.05-0.06,0.11-0.09,0.17-0.09c0.04,0,0.07,0.02,0.11,0.06c0.01,0.01,0.04,0.04,0.07,0.09L81.85,124.91
			z"/>
		<path class="st7" d="M82.6,125.19c-0.05,0-0.09-0.02-0.11-0.07c-0.02-0.03-0.02-0.07-0.02-0.12V125l0.05-0.02
			c0.12-0.05,0.21-0.09,0.26-0.13c0.1-0.07,0.15-0.16,0.15-0.26c0-0.11-0.06-0.17-0.17-0.17c-0.12,0-0.23,0.06-0.33,0.18
			c-0.09,0.12-0.14,0.26-0.14,0.42c0,0.08,0.02,0.15,0.06,0.22c0.04,0.06,0.1,0.09,0.18,0.09c0.21,0,0.43-0.08,0.65-0.24v-0.18
			c-0.12,0.1-0.22,0.17-0.31,0.22S82.68,125.19,82.6,125.19z M82.58,124.64c0.05-0.06,0.1-0.09,0.15-0.09
			c0.03,0,0.05,0.02,0.05,0.05c0,0.04-0.03,0.09-0.08,0.13c-0.05,0.04-0.13,0.08-0.22,0.12C82.5,124.77,82.53,124.7,82.58,124.64z"
			/>
		<path class="st7" d="M85.08,123.82h-0.03c-0.09,0.13-0.19,0.23-0.28,0.32c-0.05,0.05-0.12,0.1-0.2,0.16l0.11,0.07
			c0.05-0.03,0.11-0.08,0.19-0.14c-0.01,0.03-0.04,0.11-0.07,0.23c-0.03,0.1-0.05,0.17-0.07,0.23l-0.06,0.22l-0.13,0.42l0.2,0
			l0.21-0.76c0.02-0.07,0.04-0.15,0.07-0.22c0.05-0.15,0.1-0.33,0.16-0.52c-0.01,0-0.03-0.01-0.04-0.01S85.11,123.82,85.08,123.82z"
			/>
		<path class="st7" d="M86.04,123.83c-0.13,0-0.25,0.06-0.36,0.19c-0.1,0.12-0.16,0.27-0.16,0.43c0,0.09,0.02,0.16,0.07,0.22
			s0.11,0.09,0.19,0.09c0.04,0,0.08-0.01,0.12-0.03s0.09-0.05,0.15-0.09c-0.07,0.14-0.15,0.26-0.24,0.36
			c-0.12,0.12-0.24,0.19-0.37,0.21c-0.03,0-0.04,0.01-0.04,0.03c0,0.04,0,0.07,0.01,0.08c0.01,0.01,0.02,0.02,0.04,0.02
			c0.22,0,0.43-0.13,0.63-0.4c0.18-0.25,0.27-0.5,0.27-0.75c0-0.11-0.03-0.2-0.08-0.26C86.21,123.86,86.14,123.83,86.04,123.83z
			 M86.04,124.52c-0.07,0.06-0.14,0.08-0.21,0.08c-0.09,0-0.13-0.05-0.13-0.15c0-0.09,0.03-0.19,0.09-0.3
			c0.07-0.13,0.15-0.19,0.24-0.19c0.05,0,0.08,0.02,0.11,0.06s0.04,0.09,0.04,0.15C86.19,124.32,86.14,124.44,86.04,124.52z"/>
		<path class="st7" d="M87.14,123.82c-0.1,0-0.19,0.04-0.26,0.11c-0.07,0.07-0.11,0.16-0.11,0.27c0,0.09,0.03,0.18,0.1,0.28
			c-0.11,0.08-0.19,0.15-0.25,0.2c-0.1,0.11-0.15,0.21-0.15,0.32c0,0.1,0.03,0.17,0.09,0.23s0.14,0.09,0.24,0.09
			c0.13,0,0.23-0.05,0.32-0.14c0.09-0.09,0.13-0.2,0.13-0.33c0-0.06-0.01-0.12-0.03-0.17c-0.02-0.05-0.07-0.13-0.13-0.22
			c0.13-0.1,0.22-0.17,0.26-0.23c0.05-0.06,0.07-0.12,0.07-0.19c0-0.07-0.03-0.13-0.08-0.17C87.29,123.85,87.22,123.82,87.14,123.82
			z M87,125.11c-0.06,0.06-0.12,0.09-0.19,0.09c-0.05,0-0.09-0.02-0.12-0.05c-0.03-0.03-0.05-0.07-0.05-0.12
			c0-0.07,0.02-0.14,0.07-0.21c0.05-0.07,0.13-0.15,0.24-0.24c0.09,0.12,0.14,0.22,0.14,0.31C87.08,124.98,87.05,125.05,87,125.11z
			 M87.2,124.21c-0.04,0.05-0.1,0.1-0.19,0.17c-0.06-0.09-0.09-0.16-0.09-0.22c0-0.06,0.02-0.11,0.06-0.15s0.09-0.06,0.14-0.06
			c0.04,0,0.07,0.01,0.1,0.03c0.03,0.02,0.04,0.05,0.04,0.09C87.26,124.12,87.24,124.16,87.2,124.21z"/>
		<path class="st7" d="M88.28,123.83c-0.09,0.07-0.2,0.16-0.31,0.28c-0.13,0.13-0.23,0.26-0.31,0.39c-0.1,0.15-0.14,0.27-0.14,0.36
			c0,0.03,0.01,0.04,0.04,0.04c0.01,0,0.11-0.01,0.29-0.02c0.05,0,0.11-0.01,0.17-0.01l-0.12,0.41l-0.01,0.03
			c0,0.01,0.01,0.01,0.02,0.01h0.12c0.02,0,0.04-0.01,0.05-0.04l0.12-0.41l0.18,0c0.01,0,0.01-0.01,0.02-0.04s0.01-0.05,0.01-0.06
			c0-0.01-0.02-0.02-0.05-0.02H88.2l0.26-0.93H88.28z M88.24,124.07c-0.03,0.09-0.06,0.19-0.1,0.3c-0.03,0.11-0.06,0.21-0.09,0.3
			l-0.03,0.1h-0.21l-0.16,0.01c0.04-0.09,0.1-0.19,0.18-0.3c0.07-0.09,0.14-0.19,0.23-0.28c0.06-0.07,0.13-0.14,0.21-0.21
			L88.24,124.07z"/>
	</g>
	<path class="st8" d="M96.02,104.54l-0.12-0.46l-0.25,0.4c-0.88,1.42-1.87,2.44-2.95,3.08c-0.73,0.43-1.5,0.69-2.32,0.75
		c-4.05,0.34-7.83-3.93-7.87-3.97l-0.16-0.18l-0.15,0.19c-2.82,3.47-5.76,4.41-8.76,2.77c-0.26-0.14-0.53-0.29-0.79-0.45
		c-1.83-1.09-3.56-2.43-3.58-2.44l-0.25-0.2l-0.07,0.31c-2.32,10.3-1.74,18.98,1.73,25.8c2.56,5.04,6.15,7.92,8.57,9.4
		c0.38,0.23,0.73,0.43,1.04,0.6c1.51,0.8,2.53,1.09,2.58,1.1l0.06,0.02l0.06-0.02c4.79-1.86,8.47-4.95,10.93-9.19
		c1.97-3.38,3.16-7.5,3.56-12.24c0.09-1.06,0.13-2.1,0.14-3.11C97.48,110,96.04,104.6,96.02,104.54z M96.87,119.77
		c-0.39,4.67-1.57,8.73-3.5,12.07c-2.4,4.14-5.99,7.16-10.66,8.99c-0.24-0.07-1.17-0.38-2.43-1.05c-0.44-0.23-0.95-0.53-1.5-0.89
		c-2.35-1.53-5.58-4.3-7.94-8.93c-3.39-6.67-3.98-15.15-1.76-25.21c0.61,0.46,2.24,1.64,3.83,2.55c0.11,0.06,0.22,0.13,0.33,0.19
		c2.17,1.18,5.5,1.66,9.13-2.69c0.79,0.84,4.24,4.25,8.05,3.93c0.82-0.07,1.59-0.31,2.32-0.71c1.1-0.6,2.1-1.57,3-2.92
		c0.34,1.43,1.31,6.04,1.26,11.54C96.99,117.66,96.95,118.71,96.87,119.77z"/>
	<path class="st7" d="M83.57,132.13l-0.89-2.1c0,0-0.59,2.16-0.69,2.13s-2.26-0.03-2.26-0.03l1.9,1.31l-0.43,2.36l1.57-1.38
		l2.03,1.48l-0.72-2.33l1.41-1.41L83.57,132.13z"/>
</g>
</svg>
