<?xml version="1.0" encoding="utf-8"?>
<!-- Generator: Adobe Illustrator 24.2.0, SVG Export Plug-In . SVG Version: 6.00 Build 0)  -->
<svg version="1.1" id="레이어_1" xmlns="http://www.w3.org/2000/svg" xmlns:xlink="http://www.w3.org/1999/xlink" x="0px"
	 y="0px" viewBox="0 0 53.06 10.23" style="enable-background:new 0 0 53.06 10.23;" xml:space="preserve">
<style type="text/css">
	.st0{fill:#FFFFFF;}
</style>
<g>
	<path class="st0" d="M13.61,4.89c0.32,0.11,0.65,0.22,0.98,0.34c0.09,0.03,0.18,0.09,0.23,0.17c1.07,1.52,2.14,3.04,3.21,4.57
		c0.05,0.07,0.1,0.15,0.17,0.27c-0.09-0.01-0.13-0.01-0.17-0.03c-0.49-0.17-0.97-0.34-1.45-0.52c-0.1-0.04-0.19-0.12-0.26-0.2
		C15.28,8,14.24,6.52,13.2,5.03c-0.11-0.16-0.22-0.22-0.4-0.2c-0.13,0.01-0.26,0-0.42,0c0,0.08,0,2.61,0.01,3.81
		c0,0.1,0.06,0.21,0.13,0.29c0.19,0.21,0.4,0.39,0.59,0.59c0.05,0.05,0.09,0.1,0.16,0.19c-0.98,0-1.91,0-2.88,0
		c0.05-0.07,0.09-0.14,0.14-0.19c0.24-0.24,0.57-0.44,0.69-0.72c0.12-0.3,0.04-0.69,0.04-1.04c0-2.13,0-4.25,0-6.38
		c0-0.17-0.04-0.3-0.17-0.41c-0.19-0.17-0.37-0.36-0.55-0.54c-0.05-0.05-0.09-0.1-0.14-0.16c0.04-0.02,0.06-0.04,0.07-0.04
		c1.32,0.01,2.63,0,3.95,0.05c0.69,0.02,1.35,0.23,1.91,0.66c0.61,0.46,0.88,1.28,0.69,2.02c-0.25,0.94-0.93,1.43-1.8,1.67
		C14.69,4.77,14.15,4.8,13.61,4.89z M12.39,0.6c0,1.32,0,2.56,0,3.78c0.61,0,1.2,0.03,1.79-0.01c0.44-0.03,0.85-0.21,1.17-0.52
		c0.55-0.55,0.62-1.22,0.41-1.92c-0.19-0.66-0.69-1.05-1.33-1.16C13.77,0.65,13.09,0.65,12.39,0.6z"/>
	<path class="st0" d="M23.07,9.92c-1.3-0.07-2.43-0.5-3.34-1.44C19.07,7.79,18.69,6.94,18.53,6c-0.17-1-0.11-1.98,0.24-2.93
		c0.49-1.3,1.36-2.26,2.7-2.71c1.67-0.56,3.26-0.39,4.71,0.68c0.76,0.56,1.25,1.33,1.53,2.23c0.31,0.98,0.34,1.97,0.11,2.95
		C27.45,7.83,26.52,9,24.94,9.6c-0.25,0.09-0.5,0.17-0.76,0.21C23.81,9.86,23.44,9.88,23.07,9.92z M26.72,4.88
		c-0.04-0.29-0.07-0.72-0.17-1.13c-0.27-1.18-0.8-2.22-1.89-2.85c-1-0.58-2.05-0.62-3.09-0.08c-0.9,0.47-1.41,1.27-1.65,2.22
		c-0.41,1.59-0.32,3.14,0.47,4.6c0.58,1.07,1.45,1.75,2.7,1.86c1.17,0.1,2.11-0.33,2.79-1.29C26.57,7.25,26.72,6.15,26.72,4.88z"/>
	<path class="st0" d="M48.19,9.86c-1.27-0.06-2.39-0.47-3.3-1.38c-0.7-0.71-1.11-1.58-1.27-2.56c-0.16-1-0.11-1.98,0.26-2.92
		c0.63-1.62,1.8-2.62,3.53-2.91c1.11-0.19,2.18-0.06,3.19,0.46c1.32,0.69,2.08,1.81,2.35,3.25c0.25,1.31,0.1,2.58-0.56,3.75
		c-0.71,1.25-1.8,1.99-3.23,2.22C48.84,9.81,48.51,9.83,48.19,9.86z M51.83,5.35c-0.03-0.38-0.04-0.77-0.1-1.15
		c-0.17-1.21-0.6-2.28-1.57-3.08c-0.75-0.62-1.63-0.84-2.59-0.68c-1.26,0.22-2.03,1.04-2.45,2.19c-0.45,1.23-0.44,2.49-0.12,3.74
		c0.28,1.08,0.82,1.99,1.8,2.61c1.53,0.96,3.59,0.39,4.41-1.21C51.61,7.02,51.79,6.21,51.83,5.35z"/>
	<path class="st0" d="M5.73,5.29c1.01,0,2.03,0,3.06,0c0,1.48,0,2.95,0,4.43C8.77,9.72,8.76,9.74,8.74,9.75
		C8.7,9.7,8.64,9.65,8.61,9.59c-0.2-0.41-0.4-0.82-0.6-1.23C7.97,8.29,7.93,8.22,7.89,8.14C7.72,8.36,7.56,8.57,7.38,8.76
		C6.75,9.43,5.96,9.78,5.04,9.86C3.99,9.97,3,9.75,2.12,9.18C0.98,8.43,0.33,7.36,0.1,6.04c-0.18-1-0.13-1.98,0.23-2.93
		c0.62-1.63,1.78-2.67,3.53-2.97c1-0.17,1.97-0.08,2.89,0.34c0.95,0.43,1.69,1.11,2.08,2.1c0.02,0.04,0.02,0.13,0,0.15
		c-0.32,0.26-0.65,0.5-1,0.77c-0.07-0.3-0.13-0.56-0.2-0.82C7.25,1.41,6.17,0.55,4.84,0.47C3.77,0.4,2.87,0.75,2.18,1.57
		C1.67,2.19,1.4,2.92,1.31,3.72c-0.15,1.28,0.01,2.5,0.64,3.64C2.67,8.67,4.22,9.38,5.7,9.07C6.52,8.9,7.16,8.5,7.6,7.78
		c0.25-0.41,0.38-0.86,0.41-1.34c0-0.05-0.08-0.14-0.14-0.17c-0.65-0.27-1.31-0.53-1.96-0.8C5.83,5.45,5.77,5.4,5.7,5.35
		C5.71,5.33,5.72,5.31,5.73,5.29z"/>
	<path class="st0" d="M42.66,0.24l-13.83,0c-0.12,0.69-0.23,1.38-0.36,2.13c0.1-0.07,0.15-0.09,0.19-0.13
		c0.29-0.34,0.58-0.69,0.86-1.04c0.44-0.55,0.43-0.55,1.14-0.55c0.47,0,0.94,0,1.43,0c0,0.11,0,4.93,0,7.25
		c0,0.29,0.07,0.62-0.03,0.87c-0.1,0.25-0.38,0.43-0.58,0.64c-0.08,0.08-0.15,0.18-0.25,0.3c0.97,0,1.88,0,2.83,0
		c-0.06-0.09-0.1-0.16-0.15-0.21c-0.18-0.2-0.37-0.4-0.56-0.59c-0.11-0.11-0.13-0.22-0.13-0.36c0-2.55,0-7.81,0-7.91l5.03-0.01
		c0,0.1,0,5.37,0,7.92c0,0.17-0.05,0.29-0.17,0.41c-0.23,0.22-0.44,0.46-0.7,0.74c0.98,0,1.89,0,2.84,0
		c-0.07-0.09-0.1-0.15-0.15-0.2c-0.18-0.2-0.38-0.39-0.55-0.6c-0.07-0.09-0.13-0.22-0.13-0.34c-0.01-2.56,0-7.84,0.01-7.93
		c0.64,0,1.26,0.01,1.88,0c0.15,0,0.25,0.05,0.34,0.16c0.37,0.46,0.75,0.92,1.13,1.37c0.05,0.06,0.12,0.11,0.18,0.16
		c0.02-0.01,0.03-0.03,0.05-0.04C42.88,1.61,42.77,0.92,42.66,0.24z"/>
</g>
</svg>
