<?xml version="1.0" encoding="utf-8"?>
<!-- Generator: Adobe Illustrator 24.2.0, SVG Export Plug-In . SVG Version: 6.00 Build 0)  -->
<svg version="1.1" xmlns="http://www.w3.org/2000/svg" xmlns:xlink="http://www.w3.org/1999/xlink" x="0px" y="0px"
	 viewBox="0 0 200 40.41" style="enable-background:new 0 0 200 40.41;" xml:space="preserve">
<style type="text/css">
	.st0{fill:#FFFFFF;}
</style>
<g id="Layer_1">
	<g>
		<path class="st0" d="M47.88,39.72H36.63c0.25-0.54,0.25-0.54,0.25-0.54l2.83-2.95c0.18-0.18,0.25-0.35,0.2-0.61
			c-0.52-2.98-4.29-24.83-4.78-27.31c-0.13,0.35-11.19,31.43-11.19,31.43s-1.24-0.01-1.7-0.01L10.96,8.28c-0.03,0-0.07,0-0.1,0.01
			L6.1,35.63C6.03,36,6.24,36.13,6.45,36.3l3.54,2.88l0.31,0.53H0l0.29-0.53l3.64-3.01c0.15-0.12,0.29-0.38,0.33-0.57L9.58,4.78
			c0.03-0.16-0.01-0.34-0.06-0.5c-0.29-0.82-0.59-1.63-0.9-2.48l4.29-1.64l10.27,28.63l1.04,3.99l0.1,0.22
			c0.43-1.21,9.08-25.48,10.03-28.31c0.15-0.46-0.05-1.05-0.13-1.57l-0.43-2.17l4.51-0.79c0,0,6.03,34.18,6.27,35.4
			c0.05,0.24,0.17,0.49,0.34,0.67l2.69,2.95L47.88,39.72z"/>
		<path class="st0" d="M161.71,0.72c3.94,0,7.75,0,11.71,0l-0.25,0.49l-3.05,3c-0.13,0.13-0.23,0.37-0.23,0.56l0.02,13.58h21.86
			c0,0-0.01-13.7-0.01-13.47c0-0.23-0.11-0.51-0.27-0.68l-2.72-2.95l-0.35-0.51h11.25l-0.24,0.53l-2.8,2.99
			c-0.12,0.13-0.21,0.35-0.21,0.53c-0.01,10.28-0.01,20.56,0,30.85c0,0.18,0.09,0.4,0.22,0.52l3.1,3.03l0.27,0.52
			c-3.95,0-7.77,0-11.72,0l0.24-0.54l2.96-2.96c0.15-0.16,0.27-0.42,0.27-0.64l-0.01-15.46H169.9l-0.01,15.68
			c0,0.22,0.11,0.27,0.26,0.42l3.04,2.96l0.25,0.53c-3.94,0-7.76,0-11.71,0l0.26-0.52l2.9-2.88c0.22-0.22,0.33-0.43,0.33-0.75
			c-0.01-10.22,0-30.67,0-30.67c0-0.3-0.09-0.51-0.31-0.72l-2.96-2.91L161.71,0.72z"/>
		<path class="st0" d="M155.84,29.77c0.39,0.2,0.76,0.38,1.15,0.57c-0.61,1.36-1.36,2.61-2.26,3.79c-1.5,1.95-3.36,3.46-5.56,4.53
			c-1.8,0.88-3.71,1.39-5.7,1.61c-2.6,0.29-5.17,0.16-7.7-0.48c-2.53-0.64-4.82-1.78-6.88-3.41c-2.46-1.95-4.26-4.4-5.48-7.25
			c-1.51-3.53-1.94-7.21-1.63-10.99c0.2-2.4,1.21-6.12,2.34-8.24c1.82-3.41,4.42-6.03,7.87-7.8c2.15-1.1,4.41-1.73,6.8-1.97
			c3.23-0.32,6.39,0,9.42,1.21c1.85,0.74,3.52,1.8,5.02,3.15c1.46,1.31,2.59,2.85,3.46,4.6c0.28,0.56,0.49,1.16,0.7,1.74
			c-1.32,1.05-2.79,2.17-4.12,3.21l-0.4-0.35c-0.22-1.06-0.38-2.15-0.69-3.18c-0.72-2.43-2.01-4.52-3.97-6.17
			c-1.98-1.67-4.28-2.49-6.85-2.65c-1.79-0.11-3.54,0.06-5.23,0.66c-2.35,0.83-4.27,2.28-5.77,4.26c-1.96,2.59-2.97,5.55-3.35,8.74
			c-0.37,3.12-0.22,6.21,0.52,9.25c0.69,2.84,1.89,5.44,3.81,7.68c1.42,1.65,3.1,2.95,5.11,3.82c2.79,1.21,5.69,1.45,8.67,0.99
			c2.93-0.45,5.51-1.69,7.74-3.63c1.09-0.95,1.98-2.08,2.72-3.32C155.66,30.01,155.74,29.91,155.84,29.77z"/>
		<path class="st0" d="M58.56,39.71c-3.18,0-6.23,0-9.43,0c0.12-0.24,0.25-0.53,0.25-0.53l2.73-2.44c0.69-0.55,1.05-1.27,1.39-2.05
			L65.77,6.08c0.15-0.34,0.19-0.64-0.01-1.01l-1.38-2.85l4.4-2.01l15.31,35.46c0.09,0.21,0.23,0.41,0.38,0.57l2.89,2.93l0.25,0.54
			c-4.08,0-8.02,0-12.09,0l0.23-0.54l3.1-3.01c0.09-0.09,0.14-0.31,0.09-0.43l-4.05-9.51c-0.13-0.3-0.28-0.43-0.64-0.43l-14.41,0
			c-0.36,0-0.52,0.1-0.67,0.45l-4.02,9.44c-0.13,0.3,0.03,0.43,0.2,0.59c0,0,0.02-0.02,2.94,2.9
			C58.29,39.18,58.42,39.46,58.56,39.71z M73.94,24.03l-6.91-16.1l-6.86,16.1H73.94z"/>
		<path class="st0" d="M117.41,0.7L85.91,0.7l-1.43,8.69l0.7-0.33c1.75-2.09,3.49-4.19,5.22-6.3c0.2-0.25,0.41-0.35,0.74-0.35
			l8.18,0.01l0.01,32.82c0,0.46-0.14,0.79-0.46,1.11l-2.74,2.83l-0.24,0.55c3.87,0,7.61,0,11.47,0l-0.25-0.54l-2.67-2.83
			c-0.31-0.32-0.47-0.63-0.47-1.1L104,2.41l8.32,0.01c0.15,0,0.33,0.1,0.43,0.21l5.26,6.33l0.77,0.25
			C118.33,6.39,117.87,3.56,117.41,0.7z"/>
	</g>
</g>
<g id="Layer_2">
</g>
</svg>
