<?xml version="1.0" encoding="utf-8"?>
<!-- Generator: Adobe Illustrator 24.2.0, SVG Export Plug-In . SVG Version: 6.00 Build 0)  -->
<svg version="1.1" id="레이어_1" xmlns="http://www.w3.org/2000/svg" xmlns:xlink="http://www.w3.org/1999/xlink" x="0px"
	 y="0px" viewBox="0 0 151 151" style="enable-background:new 0 0 151 151;" xml:space="preserve">
<style type="text/css">
	.st0{fill:#FFFFFF;}
</style>
<path class="st0" d="M75.5,151C33.87,151,0,117.13,0,75.5S33.87,0,75.5,0C117.13,0,151,33.87,151,75.5S117.13,151,75.5,151z M75.5,1
	C34.42,1,1,34.42,1,75.5C1,116.58,34.42,150,75.5,150S150,116.58,150,75.5C150,34.42,116.58,1,75.5,1z"/>
<path class="st0" d="M75.97,112.4V30.5h-1v81.63c-3.78-15.67-17.91-27.35-34.72-27.35v1c19.14,0,34.72,15.58,34.72,34.72h0.06h0.94
	h0.06c0-19.14,15.58-34.72,34.72-34.72v-1C93.84,84.78,79.65,96.59,75.97,112.4z"/>
</svg>
