<?xml version="1.0" encoding="utf-8"?>
<!-- Generator: Adobe Illustrator 24.2.0, SVG Export Plug-In . SVG Version: 6.00 Build 0)  -->
<svg version="1.1" id="레이어_1" xmlns="http://www.w3.org/2000/svg" xmlns:xlink="http://www.w3.org/1999/xlink" x="0px"
	 y="0px" viewBox="0 0 165 165" style="enable-background:new 0 0 165 165;" xml:space="preserve">
<style type="text/css">
	.st0{fill:#D7E5EA;}
	.st1{fill:#201B18;}
	.st2{fill:#423F2A;}
	.st3{fill:#322522;}
	.st4{fill:#C19D51;}
	.st5{fill:#896932;}
	.st6{fill:#2A2D1E;}
	.st7{fill:#D5AD5A;}
	.st8{fill:#F4F8F8;}
	.st9{fill:#881B2B;}
	.st10{fill:#EB605F;}
	.st11{fill:#4C5136;}
	.st12{fill:#7D7A52;}
</style>
<path class="st0" d="M81.15,55.42l3.83,9.78c0.09-0.02,0.17-0.04,0.26-0.05c0.9-1.26,1.71-2.68,2.4-4.17
	c-0.27-0.97-0.54-2.07-0.72-3.23c-0.45-2.84-3.52-9.56-4.76-12.2c-1.67-1.44-3.07-2.62-3.66-3.89c0.12,1.67,0.28,4.99,0.28,8.04
	l1.68,5.63C80.46,55.33,81.18,55.39,81.15,55.42z"/>
<path class="st1" d="M58.76,28.22c3.04,1.16,2.81,8.35,7.85,13.76c0.67,0.72,1.29,1.54,1.87,2.42c0.02-0.01,0.04-0.02,0.06-0.03
	c0.49-0.23,0.99-0.48,1.48-0.73c0.11-0.06,0.22-0.11,0.34-0.17c0.47-0.24,0.94-0.49,1.41-0.74c0.05-0.03,0.09-0.05,0.14-0.08
	c0.51-0.27,1.01-0.56,1.52-0.85c0.1-0.06,0.21-0.12,0.31-0.18l-6.11-15.58c-0.5-1.27-1.58-2.37-2.88-2.93
	c-1.15-0.49-2.35-0.54-3.39-0.12c-1.17,0.47-2.46,0.44-3.63-0.06c-1.21-0.52-2.18-1.53-2.66-2.75l-3.2-8.11l-2.85,1.13l1.5,3.79
	l1.25-0.5C51.78,16.48,55.72,27.06,58.76,28.22z"/>
<path class="st1" d="M87.71,77.32c-0.21,0.03-0.43,0.05-0.64,0.07c-2.55,0.28-4.99,0.29-7.1,0.03c0.47,1.97,0.43,3.71-0.65,5.03
	c-0.88,1.07-1.45,2.21-1.76,3.3c0.48-0.15,0.95-0.32,1.43-0.51l0.06-0.02c2.69-1.07,5.1-2.59,6.72-4.21
	c0.12-0.12,0.25-0.25,0.37-0.37C87.29,79.36,87.86,78.15,87.71,77.32z"/>
<path class="st1" d="M79.66,56.7c-0.1,0.08-0.21,0.17-0.33,0.26c-0.15,0.12-0.31,0.24-0.48,0.37c-0.15,0.11-0.3,0.22-0.46,0.34
	c-0.12,0.08-0.23,0.17-0.35,0.25c-0.07,0.05-0.15,0.1-0.22,0.15c-0.18,0.12-0.36,0.24-0.54,0.37c-0.21,0.14-0.44,0.29-0.67,0.43
	c-0.2,0.13-0.41,0.26-0.62,0.39c-0.25,0.15-0.5,0.3-0.76,0.45c-0.23,0.13-0.45,0.26-0.7,0.4c-0.09,0.05-0.17,0.1-0.26,0.15
	c0,0,0-0.01,0-0.01c0,0,0,0,0,0c0.06,0.27,0.1,0.53,0.16,0.8c0.2,1.03,0.37,2,0.5,2.86c0.2,1.26,0.66,2.64,1.24,4.07
	c1.86-1.07,4.34-1.77,6.98-2.38L79.66,56.7z"/>
<path class="st2" d="M49.03,13.19l2.85-1.13l0,0l1.72-0.68l0.59-0.23l-0.84-2.12c-0.12-0.31-0.48-0.47-0.79-0.34l-6.39,2.52
	c-0.04,0.01-0.06,0.04-0.1,0.06c-0.04,0.02-0.08,0.04-0.11,0.07c-0.02,0.02-0.03,0.05-0.05,0.07c-0.03,0.04-0.06,0.08-0.08,0.12
	c-0.01,0.03-0.02,0.07-0.02,0.11c-0.01,0.04-0.03,0.08-0.03,0.12c0,0.08,0.01,0.16,0.04,0.24l0.84,2.12l0.65-0.25L49.03,13.19
	L49.03,13.19z"/>
<rect x="47.99" y="13.39" transform="matrix(0.9301 -0.3674 0.3674 0.9301 -2.2459 19.0526)" class="st3" width="1.85" height="4.08"/>
<path class="st3" d="M55.08,20.17c0.48,1.23,1.46,2.23,2.66,2.75c1.17,0.51,2.46,0.53,3.63,0.06c1.04-0.41,2.24-0.37,3.39,0.12
	c1.3,0.56,2.38,1.66,2.88,2.93l6.11,15.58c0.02-0.01,0.04-0.02,0.05-0.03c0.52-0.3,1.04-0.61,1.56-0.93l0,0l0,0l0,0l-6-15.3
	c-0.33-0.84-0.83-1.6-1.44-2.25c-0.02-0.02-0.04-0.04-0.06-0.05c-0.15-0.16-0.31-0.3-0.47-0.45c-0.25-0.22-0.52-0.42-0.8-0.6
	c-0.07-0.05-0.14-0.1-0.22-0.15c-0.34-0.2-0.69-0.37-1.05-0.52c-0.04-0.02-0.09-0.04-0.13-0.06c-0.09-0.04-0.19-0.06-0.29-0.09
	c-0.11-0.04-0.22-0.08-0.34-0.11c-0.07-0.02-0.15-0.03-0.22-0.05c-0.14-0.03-0.27-0.07-0.41-0.09c-0.41-0.07-0.82-0.1-1.23-0.08
	c-0.02,0-0.04,0-0.07,0c-0.16,0.01-0.32,0.03-0.49,0.05c-0.06,0.01-0.11,0.01-0.17,0.02c-0.16,0.02-0.32,0.06-0.49,0.1
	c-0.05,0.01-0.11,0.02-0.16,0.03c-0.21,0.06-0.42,0.13-0.63,0.21c0,0,0,0-0.01,0c0,0,0,0,0,0c-1.35,0.54-2.85-0.05-3.61-1.23
	c-0.11-0.17-0.2-0.35-0.28-0.54l-3.2-8.11l-1.72,0.68L55.08,20.17z"/>
<path class="st3" d="M89.56,77.22c-0.01-0.06,0-0.12-0.01-0.18c-0.62,0.11-1.23,0.2-1.83,0.27c0.15,0.84-0.42,2.05-1.58,3.31
	c-0.11,0.12-0.24,0.25-0.37,0.37c-1.62,1.62-4.03,3.14-6.72,4.21l-0.06,0.02c-0.47,0.19-0.95,0.35-1.43,0.51
	c-0.2,0.71-0.3,1.4-0.29,2.03c0.22-0.06,0.44-0.14,0.67-0.21c0.17-0.05,0.34-0.1,0.51-0.16c0.4-0.14,0.81-0.29,1.22-0.45
	c0.22-0.09,0.43-0.18,0.65-0.28c0.2-0.08,0.4-0.17,0.59-0.25c0.21-0.09,0.4-0.19,0.6-0.29c0.18-0.09,0.37-0.17,0.55-0.27
	c0.2-0.1,0.39-0.21,0.59-0.32c0.17-0.09,0.34-0.18,0.5-0.28c0.2-0.11,0.38-0.23,0.57-0.35c0.15-0.09,0.3-0.18,0.45-0.28
	c0.13-0.09,0.25-0.18,0.38-0.26c0.06-0.04,0.11-0.08,0.17-0.12c0.13-0.09,0.27-0.18,0.4-0.28c0.18-0.13,0.34-0.26,0.51-0.4
	c0.12-0.1,0.25-0.19,0.36-0.28c0.17-0.14,0.32-0.28,0.47-0.42c0.11-0.09,0.22-0.19,0.32-0.28c0.16-0.15,0.29-0.3,0.44-0.44
	c0.09-0.09,0.18-0.18,0.26-0.27c0.14-0.15,0.27-0.31,0.39-0.46c0.07-0.09,0.15-0.17,0.22-0.25c0.12-0.16,0.23-0.32,0.34-0.47
	c0.06-0.08,0.12-0.16,0.18-0.25c0.1-0.16,0.18-0.31,0.27-0.46c0.05-0.08,0.1-0.17,0.14-0.25c0.08-0.15,0.13-0.3,0.19-0.45
	c0.04-0.09,0.08-0.18,0.11-0.26c0.05-0.15,0.08-0.29,0.12-0.44c0.02-0.08,0.05-0.17,0.07-0.25c0.03-0.15,0.04-0.29,0.05-0.43
	c0.01-0.08,0.02-0.16,0.03-0.24C89.59,77.51,89.57,77.36,89.56,77.22z"/>
<path class="st3" d="M81.15,55.42c0,0-0.01,0.01-0.01,0.01c-0.03,0.02-0.06,0.05-0.1,0.09c-0.05,0.05-0.11,0.1-0.19,0.17
	c-0.05,0.05-0.12,0.11-0.19,0.17c-0.09,0.08-0.18,0.16-0.29,0.25c-0.08,0.07-0.18,0.15-0.28,0.23c-0.12,0.1-0.25,0.2-0.39,0.32
	c-0.01,0.01-0.03,0.02-0.04,0.03l3.49,8.9c0.6-0.14,1.21-0.27,1.83-0.4L81.15,55.42L81.15,55.42L81.15,55.42z"/>
<path class="st4" d="M74.27,60.22c-0.11-0.56-0.24-1.14-0.38-1.73c-0.03-0.15-0.07-0.3-0.1-0.44c-0.11-0.47-0.23-0.94-0.35-1.42
	c-0.04-0.17-0.08-0.33-0.13-0.5c-0.17-0.62-0.34-1.25-0.53-1.88c0-0.01-0.01-0.03-0.01-0.04c-0.18-0.61-0.38-1.21-0.58-1.82
	c-0.06-0.17-0.12-0.34-0.17-0.5c-0.17-0.5-0.35-0.99-0.54-1.48c-0.06-0.14-0.11-0.29-0.16-0.43c-0.24-0.61-0.5-1.22-0.77-1.81
	c-0.04-0.09-0.09-0.18-0.13-0.27c-0.23-0.5-0.48-0.98-0.73-1.46c-0.08-0.15-0.17-0.31-0.25-0.46c-0.26-0.47-0.53-0.92-0.81-1.35
	c-0.04-0.07-0.09-0.14-0.13-0.21c-2.41,1.15-4.72,2.09-6.81,2.86c0.41,1.66,0.62,3.05,0.51,3.99c-0.49,4.45-3.94,6.88-5.92,6.36
	c-0.57-0.15-1.03-0.54-1.25-1.21c-0.41-1.28-1.32-3.73-2.37-6.45c-0.82,0.18-1.27,0.26-1.27,0.26l5.77,14.73
	c0.66-0.02,1.3-0.07,1.94-0.13c0.61-0.05,1.21-0.11,1.8-0.19c4.71-0.62,8.73-2.04,11.92-3.61c0.51-0.25,0.99-0.5,1.46-0.76
	C74.27,60.24,74.27,60.23,74.27,60.22z"/>
<path class="st5" d="M78.79,49.4l-3.43-8.75l0,0c-0.52,0.32-1.04,0.63-1.56,0.93c-0.02,0.01-0.04,0.02-0.05,0.03
	c-0.1,0.06-0.21,0.12-0.31,0.18c-0.51,0.29-1.02,0.58-1.52,0.85c-0.05,0.03-0.09,0.05-0.14,0.08c-0.47,0.26-0.94,0.5-1.41,0.74
	c-0.11,0.06-0.22,0.12-0.34,0.17c-0.5,0.25-0.99,0.5-1.48,0.73c-0.02,0.01-0.04,0.02-0.06,0.03c0.04,0.07,0.08,0.14,0.13,0.21
	c0.28,0.44,0.55,0.89,0.81,1.35c0.08,0.15,0.17,0.3,0.25,0.46c0.25,0.48,0.5,0.96,0.73,1.46c0.04,0.09,0.09,0.18,0.13,0.27
	c0.27,0.59,0.53,1.2,0.77,1.81c0.06,0.14,0.11,0.29,0.16,0.43c0.19,0.49,0.37,0.98,0.54,1.48c0.06,0.17,0.12,0.34,0.17,0.5
	c0.2,0.61,0.4,1.21,0.58,1.82c0,0.01,0.01,0.03,0.01,0.04c0.19,0.63,0.36,1.26,0.53,1.88c0.04,0.17,0.09,0.33,0.13,0.5
	c0.12,0.48,0.24,0.95,0.35,1.42c0.03,0.15,0.07,0.3,0.1,0.44c0.14,0.59,0.26,1.17,0.38,1.73c0,0.01,0,0.02,0.01,0.02
	c0.08-0.05,0.18-0.09,0.26-0.14c0.24-0.13,0.47-0.27,0.7-0.4c0.26-0.15,0.52-0.3,0.76-0.45c0.21-0.13,0.42-0.26,0.62-0.39
	c0.23-0.15,0.46-0.29,0.67-0.43c0.19-0.13,0.37-0.25,0.54-0.37c0.08-0.05,0.15-0.11,0.22-0.16c0.12-0.08,0.24-0.17,0.35-0.25
	c0.16-0.11,0.31-0.23,0.46-0.34c0.17-0.13,0.33-0.25,0.48-0.37c0.11-0.09,0.22-0.18,0.33-0.26c0.01-0.01,0.03-0.02,0.04-0.03
	c0.14-0.11,0.27-0.22,0.39-0.32c0.09-0.08,0.19-0.16,0.28-0.23c0.11-0.09,0.2-0.18,0.29-0.25c0.06-0.06,0.13-0.12,0.19-0.17
	c0.08-0.07,0.14-0.12,0.19-0.17c0.03-0.03,0.08-0.07,0.1-0.09c0.01-0.01,0.01-0.01,0.01-0.01L78.79,49.4z"/>
<path class="st6" d="M52.48,24.14c1.52,3.21,7.37,15.81,9.19,23.13c2.09-0.77,4.4-1.71,6.81-2.86c-0.58-0.88-1.2-1.7-1.87-2.42
	c-5.04-5.41-4.81-12.6-7.85-13.76c-3.04-1.16-6.98-11.74-6.98-11.74l-1.25,0.5l1.71,4.32C52.6,22.24,52.67,23.22,52.48,24.14z"/>
<path class="st6" d="M79.97,77.42c-2.79-0.35-4.99-1.18-6.13-2.48c-1.54,0.32-3.54,0.09-4.22-0.09c-1.36-0.36-2.69-0.8-2.33-1.56
	c0.36-0.76,1.59-0.48,1.59-0.48c-0.37-0.07-1.8-0.51-1.56-0.92c0.33-0.57,1.3,0.17,2.79-0.09c0.97-0.17,1.49-0.43,1.72-0.67
	c0.13-0.12,0.18-0.24,0.17-0.34c-0.02-0.37-1.01,0-1.94-0.73c-0.57-0.45,0-0.9,0.56-0.59s1.22-0.09,2.31,0.03
	c0.35,0.04,0.71,0.19,1.04,0.37c0.55-0.74,1.31-1.35,2.22-1.88c-0.58-1.43-1.05-2.81-1.24-4.07c-0.13-0.86-0.3-1.83-0.5-2.86
	c-0.05-0.26-0.1-0.52-0.16-0.8c-0.47,0.25-0.95,0.51-1.46,0.76c-3.19,1.57-7.21,3-11.92,3.61c-0.59,0.08-1.19,0.14-1.8,0.19
	l7.99,20.38c0.14,0.36,0.47,0.67,0.97,0.93c0.65,0.34,1.54,0.56,2.59,0.64c2,0.15,4.46-0.22,6.92-1.02c0.31-1.09,0.88-2.23,1.76-3.3
	C80.4,81.13,80.44,79.38,79.97,77.42z"/>
<path class="st2" d="M70.64,86.76c-1.05-0.08-1.95-0.3-2.59-0.64c-0.5-0.26-0.83-0.57-0.97-0.93l-7.99-20.38
	c-0.64,0.05-1.28,0.11-1.94,0.13l8.21,20.94c1.12,2.83,6.2,3.55,11.92,1.9c-0.01-0.63,0.08-1.32,0.29-2.03
	C75.1,86.55,72.65,86.92,70.64,86.76z"/>
<path class="st2" d="M52.65,49.95c-1.42-3.67-3.11-7.82-4.23-10.23c-1.95-4.21-3.04-8.56-1.61-10.71c0.44-0.66,2.24-1.62,3.08-2.51
	c1.54-1.62,2.23-3.13,2.23-3.13s0.14,0.28,0.37,0.77c0.19-0.92,0.12-1.9-0.25-2.84l-1.71-4.32l-1.72,0.68l1.71,4.32
	c0.08,0.19,0.13,0.39,0.17,0.59c0.01,0.07,0.01,0.14,0.02,0.2c0.02,0.13,0.03,0.26,0.03,0.39c0,0.07-0.02,0.14-0.02,0.21
	c-0.01,0.13-0.01,0.25-0.04,0.37c-0.02,0.08-0.05,0.15-0.07,0.23c-0.03,0.11-0.06,0.23-0.1,0.33c-0.03,0.08-0.08,0.15-0.11,0.22
	c-0.05,0.1-0.09,0.2-0.15,0.29c-0.05,0.07-0.11,0.14-0.16,0.2c-0.07,0.08-0.12,0.17-0.2,0.25c-0.06,0.07-0.14,0.12-0.21,0.18
	c-0.08,0.07-0.15,0.14-0.24,0.2c-0.08,0.05-0.17,0.09-0.25,0.13c-0.09,0.05-0.18,0.11-0.28,0.15c0,0-0.01,0-0.01,0.01
	c-0.12,0.05-0.23,0.1-0.34,0.16c-0.09,0.04-0.19,0.08-0.28,0.13c-0.1,0.06-0.2,0.12-0.3,0.18c-0.09,0.05-0.18,0.1-0.26,0.16
	c-0.1,0.07-0.18,0.14-0.28,0.21c-0.08,0.06-0.16,0.12-0.24,0.19c-0.09,0.08-0.17,0.16-0.25,0.24c-0.07,0.07-0.15,0.14-0.22,0.21
	c-0.08,0.09-0.15,0.18-0.23,0.27c-0.06,0.08-0.13,0.15-0.19,0.23c-0.07,0.09-0.14,0.2-0.2,0.29c-0.06,0.08-0.11,0.16-0.17,0.24
	c-0.06,0.1-0.12,0.21-0.17,0.31c-0.05,0.09-0.1,0.17-0.14,0.26c-0.05,0.11-0.1,0.22-0.15,0.34c-0.04,0.09-0.08,0.18-0.12,0.27
	c-0.04,0.11-0.08,0.23-0.11,0.34c-0.03,0.1-0.07,0.19-0.09,0.29c-0.03,0.11-0.05,0.23-0.08,0.34c-0.02,0.1-0.05,0.2-0.07,0.3
	c-0.02,0.12-0.03,0.24-0.05,0.35c-0.01,0.1-0.03,0.2-0.04,0.3c-0.01,0.12-0.01,0.25-0.02,0.37c0,0.1-0.01,0.19-0.01,0.29
	c0,0.12,0.01,0.24,0.01,0.36c0,0.1,0,0.2,0.01,0.3c0.01,0.11,0.03,0.23,0.05,0.34c0.01,0.11,0.02,0.21,0.04,0.32
	c0.02,0.13,0.06,0.26,0.09,0.39c0.02,0.09,0.04,0.18,0.06,0.27c0.06,0.22,0.13,0.43,0.22,0.64l11.41,29.11l-5.39-13.75
	C51.37,50.21,51.83,50.13,52.65,49.95z"/>
<path class="st7" d="M61.67,47.26c-3.66,1.34-6.66,2.14-8.46,2.56c-0.2,0.05-0.39,0.09-0.56,0.13c1.05,2.72,1.96,5.18,2.37,6.45
	c0.22,0.67,0.67,1.06,1.25,1.21c1.98,0.53,5.43-1.9,5.92-6.36C62.29,50.32,62.08,48.92,61.67,47.26z"/>
<path class="st6" d="M88.25,59.55c0.04-0.11,0.09-0.22,0.13-0.32c0.39-1,0.72-2.01,0.99-2.99c0.03-0.11,0.05-0.21,0.08-0.32
	c0.04-0.16,0.08-0.32,0.11-0.48c-1.69-4.84-4.85-7.69-7.42-9.9c1.24,2.64,4.31,9.36,4.76,12.2c0.19,1.16,0.45,2.27,0.72,3.23
	c0.03-0.06,0.05-0.12,0.08-0.18C87.91,60.38,88.09,59.97,88.25,59.55z"/>
<path class="st8" d="M92.64,30.26c-0.96,0.14-1.89,0.34-2.8,0.61l0.98,0.92c0.37,0.68-2.29,4.5-3.82,4.21
	c-0.45-0.08-0.71-0.78-0.78-1.65l-0.11-1.87c-0.23,0.13-0.48,0.26-0.79,0.4c-0.11,0.05-0.22,0.08-0.32,0.1
	c-1.15,0.67-2.23,1.43-3.22,2.27c-3.4,2.88-4.05,4.73-3.28,6.4c0.59,1.27,1.99,2.45,3.66,3.89c2.57,2.22,5.73,5.07,7.42,9.9
	c0.05-0.22,0.11-0.44,0.16-0.66c-0.05,0.23-0.09,0.45-0.15,0.68c0.15,0.43,0.29,0.87,0.41,1.33c0.54,2.01,0.3,4.65,0.14,7.25
	c2.82-0.72,5.31-1.62,6.85-3.08C99.3,43.07,95.25,32.46,92.64,30.26z M89.43,47.71c0.01,0,0.01,0.01,0.02,0.01
	c0.01,0.04,0.03,0.07,0.04,0.11C89.47,47.79,89.45,47.75,89.43,47.71z"/>
<path class="st1" d="M115.7,117.42c-0.02-1.22-0.05-2.34-0.08-3.34c-0.06-1.66-0.14-2.97-0.25-3.77c-0.03-0.21-0.02-0.53,0.02-0.92
	c0.57-5.52,7.47-27.66,3.54-36.89c-0.01,0.01-0.02,0.03-0.02,0.04c-0.04,0.08-0.09,0.17-0.14,0.25c-0.08,0.14-0.17,0.27-0.26,0.4
	c-0.06,0.08-0.11,0.15-0.18,0.23c-0.11,0.13-0.22,0.25-0.34,0.37c-0.06,0.06-0.12,0.13-0.19,0.19c-0.15,0.14-0.31,0.26-0.48,0.38
	c-0.05,0.03-0.09,0.07-0.13,0.1c-0.22,0.15-0.45,0.29-0.69,0.42c-0.07,0.04-0.14,0.07-0.21,0.1c-0.18,0.09-0.37,0.18-0.56,0.26
	c-0.1,0.04-0.2,0.08-0.3,0.12c-0.18,0.07-0.36,0.13-0.54,0.19c-0.11,0.04-0.22,0.07-0.34,0.1c-0.19,0.06-0.38,0.11-0.58,0.16
	c-0.11,0.03-0.23,0.06-0.34,0.08c-0.22,0.05-0.44,0.09-0.67,0.13c-0.1,0.02-0.19,0.04-0.29,0.05c-0.33,0.05-0.66,0.1-1,0.14
	c-0.06,0.01-0.12,0.01-0.18,0.02c-0.28,0.03-0.57,0.05-0.86,0.07c-0.13,0.01-0.26,0.01-0.39,0.02c-0.23,0.01-0.46,0.02-0.7,0.03
	c-0.14,0-0.29,0.01-0.43,0.01c-0.11,0-0.22,0-0.33,0c-0.02,0-0.03,0-0.05,0c0.93,9.54,3.52,13.83,2.84,24.01
	c-0.83,12.56-6.85,31.94-5,38.59c0.57,2.06,1.05,4.41,1.44,6.67c0.14,0.79,0.26,1.58,0.37,2.34c0.2,0.01,0.39,0.01,0.59,0.02
	c0.01,0,0.02,0,0.02,0c0.19,0,0.38,0.01,0.57,0.01c0.01,0,0.02,0,0.03,0c0.19,0,0.37,0,0.56,0c0.01,0,0.03,0,0.04,0
	c0.19,0,0.37-0.01,0.55-0.01c0.01,0,0.02,0,0.02,0c0.37-0.01,0.73-0.03,1.07-0.06c0.37-0.03,0.73-0.06,1.06-0.11
	c0.02,0,0.04-0.01,0.06-0.01c0.13-0.02,0.26-0.04,0.38-0.05c0.04-0.01,0.08-0.01,0.12-0.02c0.1-0.02,0.19-0.03,0.28-0.05
	c0.05-0.01,0.09-0.02,0.13-0.03c0.08-0.02,0.15-0.03,0.22-0.05c0.04-0.01,0.09-0.02,0.13-0.03c0.06-0.02,0.12-0.04,0.18-0.05
	c0.04-0.01,0.08-0.03,0.11-0.04c0.05-0.02,0.1-0.04,0.15-0.06c0.03-0.01,0.06-0.03,0.09-0.04c0.04-0.02,0.08-0.04,0.11-0.06
	c0.02-0.01,0.05-0.03,0.07-0.04c0.03-0.02,0.06-0.05,0.08-0.08c0.01-0.01,0.03-0.03,0.04-0.04c0.03-0.04,0.04-0.08,0.05-0.12
	c0,0,0,0,0,0c0.04-0.39,0.08-0.88,0.12-1.46c0.01-0.19,0.03-0.4,0.04-0.61c0.05-0.85,0.1-1.84,0.14-2.95s0.09-2.32,0.12-3.62
	c0.06-2.16,0.12-4.53,0.15-6.96c0.02-0.97,0.03-1.95,0.04-2.94c0.01-0.98,0.02-1.96,0.02-2.93c0.01-0.97,0.01-1.93,0.01-2.86
	c0-0.47,0-0.93,0-1.39C115.73,119.95,115.72,118.64,115.7,117.42z"/>
<path class="st6" d="M109.87,66.58c7.69-12.48-1.38-28.2-1.38-28.2l0,0c3.52,6.96,4.66,20.15-0.16,28.08
	c-0.35,0.58-0.72,1.13-1.13,1.65c-0.77,0.96-1.68,1.84-2.68,2.66c-0.14,0.11-0.28,0.22-0.42,0.33c-1.52,1.17-3.24,2.18-5.09,3.03
	c-0.47,0.22-0.94,0.42-1.42,0.62c0.1,0.03,0.19,0.05,0.29,0.08c0.16,0.04,0.31,0.08,0.47,0.13c0.19,0.05,0.38,0.1,0.57,0.14
	c0.02,0,0.04,0.01,0.06,0.02c0.14,0.03,0.29,0.07,0.43,0.1c0.19,0.04,0.39,0.09,0.58,0.13c0.06,0.01,0.12,0.03,0.18,0.04
	c0,0,0,0,0,0c0.87-0.55,1.85-1.17,2.93-1.9c0.76-0.52,1.46-1.06,2.12-1.61c0.17-0.14,0.33-0.28,0.5-0.43
	c1.01-0.89,1.91-1.82,2.68-2.78C108.94,67.99,109.43,67.3,109.87,66.58"/>
<path class="st8" d="M85.24,65.14c-0.09,0.02-0.17,0.04-0.26,0.05l0.08,0.2C85.12,65.31,85.18,65.22,85.24,65.14z"/>
<path class="st8" d="M104.59,47.25c-0.93-4.73-2.11-9.76-2.52-12.71c-0.03-0.18-0.04-0.35-0.06-0.51
	c-5.64,2.37,0.06,20.08-4.32,26.16c-0.2,0.28-0.44,0.54-0.7,0.78c-1.53,1.45-4.02,2.35-6.85,3.08c-1.57,0.4-3.24,0.75-4.89,1.1
	c-0.06,0.08-0.12,0.17-0.18,0.25l-0.08-0.2c-0.61,0.13-1.22,0.27-1.83,0.4c-2.65,0.61-5.13,1.31-6.98,2.38
	c-0.91,0.53-1.67,1.14-2.22,1.88c0.7,0.38,1.27,0.9,1.27,0.9s0.07,0.12,0.17,0.31c0.03,0.06,0.06,0.12,0.09,0.2
	c0.64-0.1,1.32-0.19,2.01-0.26c2.58-0.27,5.39-0.32,7.74-0.1c0.75,0.07,1.46,0.16,2.1,0.29c0.01,0,0.02,0,0.03,0
	c0.65,0.13,1.28,0.2,1.88,0.23c0.61,0.03,1.2,0.01,1.76-0.05c1.23-0.13,2.35-0.46,3.37-0.91c1.17-0.52,2.19-1.22,3.09-1.97
	c0.44-0.37,0.85-0.75,1.23-1.13c0.19-0.19,0.38-0.38,0.55-0.57c2.42-2.63,6.74-5.68,6.56-11.08
	C105.73,53.51,105.22,50.45,104.59,47.25z"/>
<path class="st9" d="M83.26,25.98c0.36,0,0.72,0.03,1.04,0.12c0.23,0.07,0.56,0.18,0.93,0.32c0.03-0.01,0.06-0.02,0.1-0.02
	c0.33-0.03,0.66,0.16,0.93,0.44c0.67,0.3,1.3,0.64,1.57,0.97c0.26,0.31,0.31,0.82,0.17,1.31l0.03,0.03
	c1.47-1.37-0.09-3.97-0.09-3.97c0.78-0.09,0.91-0.89,0.84-1.26c-0.36-1.94-3.09-1.25-4-0.83c-0.21,0.09-0.45,0.25-0.7,0.42
	c-0.37,0.47-0.94,1.27-0.95,1.75C83.14,25.42,83.19,25.68,83.26,25.98z"/>
<path class="st10" d="M83.26,25.98c-0.07-0.3-0.12-0.56-0.11-0.72c0-0.48,0.58-1.28,0.95-1.75c-0.17,0.12-0.34,0.24-0.51,0.38
	c-0.05,0.04-0.1,0.08-0.14,0.12c-0.15,0.12-0.29,0.25-0.43,0.38c-0.05,0.05-0.1,0.1-0.15,0.15c-0.17,0.17-0.33,0.34-0.46,0.5
	c-0.11,0.14-0.21,0.28-0.29,0.4c-0.16,0.25-0.27,0.46-0.34,0.64c-0.01,0.03-0.02,0.05-0.02,0.08c0,0,0.01-0.01,0.01-0.01
	C82.1,26.06,82.67,25.98,83.26,25.98z"/>
<path class="st6" d="M86.73,27.92l1.27,1.19c0.14-0.49,0.09-1-0.17-1.31c-0.27-0.33-0.9-0.67-1.57-0.97
	C86.54,27.15,86.73,27.56,86.73,27.92z"/>
<path class="st6" d="M85.23,26.43c-0.37-0.14-0.71-0.25-0.93-0.32c-0.31-0.1-0.67-0.12-1.04-0.12c-0.58,0-1.16,0.08-1.51,0.18
	c0,0-0.01,0.01-0.01,0.01c-0.55,0.16-0.63,0.78-0.57,1.26c0.06,0.48,0.63,0.86,0.63,0.86c0,0,0.01,0.01,0.01,0.01
	c-0.06-0.44,0-0.83,0.16-1.16c0.26-0.51,0.74-0.84,1.35-0.87c0.45-0.02,0.96,0.11,1.48,0.49l0.12,0.1
	C84.89,26.66,84.96,26.49,85.23,26.43z"/>
<path class="st6" d="M87.31,31.55c-0.18,0.19-0.36,0.35-0.53,0.49c-0.2,0.16-0.42,0.31-0.66,0.44l0.07,1.18
	c0.59-0.37,1.11-0.94,1.42-1.71c0.04-0.11,0.07-0.21,0.1-0.31c0.15-0.51,0.17-0.97,0.14-1.36C87.81,30.74,87.64,31.19,87.31,31.55z"
	/>
<path class="st8" d="M82.97,30.55c0,0,0.32,0.58,0.79,0.56c0.41-0.01,0.77-0.56,0.72-1.23c-0.08-0.04-0.17-0.08-0.25-0.12
	C83.99,29.96,83.58,30.27,82.97,30.55z"/>
<path class="st8" d="M84.22,29.77c0.08,0.04,0.17,0.08,0.25,0.12c-0.01-0.1-0.02-0.19-0.05-0.29C84.42,29.6,84.34,29.67,84.22,29.77
	z"/>
<g>
	<path class="st0" d="M118.92,72.5c3.93,9.23-2.96,31.37-3.54,36.89C115.96,103.87,122.85,81.73,118.92,72.5z"/>
	<path class="st0" d="M119.19,71.83c0.08-0.25,0.15-0.51,0.19-0.78c1.76-10.95-2.46-31.54-12.16-37.53
		c-0.62-0.38-1.24-0.73-1.86-1.04c-0.19-0.1-0.39-0.18-0.58-0.27c-0.42-0.2-0.85-0.41-1.27-0.58c-0.22-0.09-0.45-0.16-0.67-0.24
		c-0.39-0.15-0.78-0.29-1.17-0.41c-0.23-0.07-0.45-0.12-0.68-0.18c-0.38-0.1-0.76-0.21-1.14-0.29c-0.22-0.05-0.45-0.08-0.67-0.12
		c-0.38-0.07-0.76-0.14-1.13-0.18c-0.22-0.03-0.43-0.04-0.65-0.06c-0.38-0.03-0.75-0.07-1.13-0.08c-0.21-0.01-0.42,0-0.62,0
		c-0.37,0-0.75,0-1.12,0.02c-0.2,0.01-0.4,0.03-0.6,0.05c-0.37,0.03-0.74,0.07-1.1,0.11c-0.07,0.01-0.13,0.02-0.2,0.03
		c2.6,2.2,6.66,12.81,4.33,30.71c0.26-0.25,0.5-0.5,0.7-0.78c4.39-6.09-1.32-23.8,4.32-26.16c0,0,0-0.01,0-0.01
		c0.08-0.03,0.16-0.06,0.24-0.09c-0.08,0.03-0.16,0.07-0.24,0.1c0.02,0.16,0.03,0.33,0.06,0.51c0.41,2.95,1.59,7.98,2.52,12.71
		c0.63,3.2,1.14,6.27,1.22,8.45c0.18,5.4-4.14,8.46-6.56,11.08c-0.18,0.19-0.36,0.38-0.55,0.57c-0.38,0.38-0.79,0.77-1.23,1.13
		c-0.9,0.75-1.92,1.44-3.09,1.97c-1.01,0.45-2.13,0.78-3.37,0.91c-0.56,0.06-1.15,0.08-1.76,0.05c-0.6-0.03-1.23-0.1-1.88-0.23
		c-0.01,0-0.02,0-0.03,0c-0.64-0.12-1.35-0.22-2.1-0.29c-2.36-0.21-5.17-0.17-7.74,0.1c-0.69,0.07-1.36,0.16-2.01,0.26
		c0.33,0.72,0.75,2.04-0.08,2.93c-0.35,0.38-0.92,0.61-1.57,0.74c1.14,1.3,3.34,2.13,6.13,2.48c2.11,0.26,4.54,0.25,7.1-0.03
		c0.21-0.02,0.43-0.05,0.64-0.07c0.61-0.08,1.22-0.17,1.83-0.27c0-0.01,0-0.03,0-0.04c0,0.01,0,0.03,0,0.04
		c2.7-0.47,5.45-1.23,8.03-2.28c-0.08-0.02-0.16-0.05-0.25-0.07c0.08,0.02,0.17,0.05,0.25,0.07c0.48-0.2,0.96-0.4,1.42-0.62
		c1.85-0.85,3.57-1.86,5.09-3.03c0.14-0.11,0.28-0.22,0.42-0.33c1-0.82,1.91-1.7,2.68-2.66c0.41-0.52,0.78-1.07,1.13-1.65
		c4.82-7.93,3.67-21.12,0.16-28.08l0,0c0,0,9.07,15.72,1.38,28.2c0,0,0,0,0,0c-0.44,0.71-0.93,1.4-1.47,2.09
		c-0.77,0.96-1.66,1.89-2.68,2.78c1.4,0.89,2.52,2.03,2.9,3.85c0.07,0.33,0.12,0.68,0.14,1.06c0.11,0,0.22,0,0.33,0
		c0.14,0,0.29,0,0.43-0.01c0.23-0.01,0.47-0.02,0.7-0.03c0.13-0.01,0.26-0.01,0.39-0.02c0.29-0.02,0.58-0.04,0.86-0.07
		c0.06-0.01,0.12-0.01,0.18-0.02c0.34-0.04,0.67-0.08,1-0.14c0.1-0.02,0.19-0.04,0.29-0.05c0.23-0.04,0.45-0.08,0.67-0.13
		c0.12-0.03,0.23-0.05,0.34-0.08c0.2-0.05,0.39-0.1,0.58-0.16c0.11-0.03,0.23-0.07,0.34-0.1c0.19-0.06,0.36-0.13,0.54-0.19
		c0.1-0.04,0.2-0.08,0.3-0.12c0.19-0.08,0.38-0.17,0.56-0.26c0.07-0.03,0.14-0.06,0.21-0.1c0.24-0.13,0.47-0.27,0.69-0.42
		c0.05-0.03,0.09-0.07,0.13-0.1c0.17-0.12,0.33-0.25,0.48-0.38c0.07-0.06,0.13-0.13,0.19-0.19c0.12-0.12,0.23-0.24,0.34-0.37
		c0.06-0.07,0.12-0.15,0.18-0.23c0.09-0.13,0.18-0.26,0.26-0.4c0.05-0.08,0.1-0.16,0.14-0.25c0.01-0.01,0.02-0.03,0.02-0.04
		c0.07-0.14,0.13-0.29,0.18-0.44C119.13,71.98,119.17,71.91,119.19,71.83z"/>
</g>
<path class="st10" d="M75.48,71.26c-0.03-0.07-0.06-0.14-0.09-0.2c-0.1-0.19-0.17-0.31-0.17-0.31s-0.57-0.52-1.27-0.9
	c-0.33-0.18-0.69-0.33-1.04-0.37c-1.08-0.12-1.75,0.28-2.31-0.03s-1.13,0.14-0.56,0.59c0.93,0.73,1.92,0.36,1.94,0.73
	c0.01,0.09-0.05,0.21-0.17,0.34c-0.24,0.24-0.75,0.5-1.72,0.67c-1.49,0.26-2.46-0.48-2.79,0.09c-0.24,0.41,1.19,0.86,1.56,0.92
	c0,0-1.23-0.27-1.59,0.48c-0.36,0.76,0.97,1.21,2.33,1.56c0.68,0.18,2.68,0.41,4.22,0.09c0.65-0.13,1.22-0.36,1.57-0.74
	C76.23,73.31,75.81,71.98,75.48,71.26z"/>
<path class="st10" d="M110.74,147.98c-0.18,0.01-0.37,0.01-0.55,0.01c-0.01,0-0.03,0-0.04,0c-0.18,0-0.37,0-0.56,0
	c-0.01,0-0.02,0-0.03,0c-0.19,0-0.38,0-0.57-0.01c-0.01,0-0.02,0-0.02,0c-1.24-0.03-2.48-0.13-3.5-0.32
	c0.41,1.42,0.8,3.15,0.45,3.79c0.29,0.36,0.79,0.71,1.64,0.74c0.96,0.04,2.81-0.13,4.4-0.44c-0.21-0.86-0.18-2.4-0.11-3.84
	c-0.34,0.03-0.7,0.05-1.07,0.06C110.75,147.98,110.74,147.98,110.74,147.98z"/>
<path class="st1" d="M112.1,152.28c-0.06-0.15-0.11-0.33-0.16-0.52c-1.59,0.31-3.44,0.48-4.4,0.44c-0.85-0.03-1.34-0.38-1.64-0.74
	c-0.01,0.03-0.03,0.05-0.04,0.07c-0.3,0.44-1.15,0.75-2.32,1.19c-1.69,0.79-3.75,0.28-4.17,2.03c-0.04,0.17-0.07,0.36-0.08,0.58
	c-0.04,1.05,10.57,1.41,12.4,0.47c0.49-0.25,0.73-0.8,0.78-1.46C112.5,153.72,112.37,152.98,112.1,152.28z"/>
<path class="st10" d="M71.26,149.16c0,0-0.15-0.05-0.39-0.13c-0.11,1.05-0.26,2.01-0.5,2.44c0.29,0.36,0.79,0.71,1.64,0.74
	c0.96,0.04,2.81-0.13,4.4-0.44c-0.12-0.49-0.05-1.21,0.11-2C75.14,150.21,73.38,149.84,71.26,149.16z"/>
<path class="st1" d="M76.56,152.28c-0.06-0.15-0.11-0.33-0.16-0.52c-1.59,0.31-3.44,0.48-4.4,0.44c-0.85-0.03-1.34-0.38-1.64-0.74
	c-0.01,0.03-0.03,0.05-0.04,0.07c-0.3,0.44-1.15,0.75-2.32,1.19c-1.69,0.79-3.75,0.28-4.17,2.03c-0.04,0.17-0.07,0.36-0.08,0.58
	c-0.04,1.05,10.57,1.41,12.4,0.47c0.49-0.25,0.73-0.8,0.78-1.46C76.96,153.72,76.83,152.98,76.56,152.28z"/>
<path class="st1" d="M98.91,75.11c-0.19-0.05-0.38-0.09-0.57-0.14c-0.16-0.04-0.31-0.08-0.47-0.13c-0.1-0.03-0.2-0.05-0.29-0.08
	c-2.58,1.05-5.33,1.81-8.03,2.28c0.01,0.06,0.01,0.12,0.01,0.18c0.02,0.14,0.03,0.29,0.03,0.44c0,0.08-0.02,0.16-0.03,0.24
	c-0.01,0.14-0.02,0.29-0.05,0.43c-0.02,0.08-0.05,0.17-0.07,0.25c-0.04,0.15-0.07,0.29-0.12,0.44c-0.03,0.09-0.08,0.18-0.11,0.26
	c-0.06,0.15-0.12,0.3-0.19,0.45c-0.04,0.08-0.1,0.17-0.14,0.25c-0.09,0.15-0.17,0.31-0.27,0.46c-0.05,0.08-0.12,0.16-0.18,0.25
	c-0.11,0.16-0.21,0.32-0.34,0.47c-0.07,0.09-0.15,0.17-0.22,0.25c-0.13,0.16-0.25,0.31-0.39,0.46c-0.08,0.09-0.18,0.18-0.26,0.27
	c-0.14,0.15-0.28,0.3-0.44,0.44c-0.1,0.1-0.21,0.19-0.32,0.28c-0.16,0.14-0.31,0.28-0.47,0.42c-0.12,0.1-0.24,0.19-0.36,0.28
	c-0.17,0.13-0.33,0.27-0.51,0.4c-0.13,0.09-0.27,0.19-0.4,0.28c-0.06,0.04-0.11,0.08-0.17,0.12c-6.52,18.25-16.15,46.15-19.1,59.65
	c-0.59,2.72,4.02,4.52,5.41,5c0.24,0.08,0.39,0.13,0.39,0.13c2.13,0.68,3.88,1.05,5.26,0.61c1.1-0.36,1.96-1.24,2.56-2.93
	c2.7-7.6,8.67-25.39,12.06-35.59c0.97-2.92,4.1-9.13,7.29-15.75c0.08-7.36,0.34-15.12,0.55-20.37
	C98.95,75.12,98.93,75.11,98.91,75.11z"/>
<g>
	<path class="st6" d="M108.96,147.99c-0.2,0-0.4-0.01-0.59-0.02c0,0,0,0,0,0C108.56,147.98,108.76,147.99,108.96,147.99z"/>
	<path class="st6" d="M108.71,76.37c-0.79,0-1.59-0.03-2.39-0.09c-2.08-0.15-4.18-0.46-6.15-0.88c0,0,0,0,0,0
		c-0.06-0.01-0.12-0.03-0.18-0.04c-0.2-0.04-0.39-0.09-0.58-0.13c-0.14-0.03-0.29-0.07-0.43-0.1c-0.21,5.26-0.47,13.01-0.55,20.37
		c-0.08,7.31,0.03,14.22,0.57,17.86c0.76,5.17,1.25,25.51,4.09,33.22c0.19,0.51,1.12,0.87,2.38,1.1c0.86,0.16,1.87,0.25,2.91,0.29
		c-0.11-0.76-0.24-1.54-0.37-2.33c-0.39-2.27-0.86-4.62-1.44-6.67c-1.86-6.65,4.16-26.02,5-38.59
		C112.23,90.19,109.64,85.9,108.71,76.37z"/>
</g>
<path class="st8" d="M108.61,75.31c-0.38-1.82-1.5-2.96-2.9-3.85c-0.16,0.14-0.33,0.29-0.5,0.43c-0.66,0.55-1.35,1.09-2.12,1.61
	c-1.08,0.73-2.06,1.35-2.93,1.9c1.96,0.42,4.07,0.74,6.15,0.88c0.81,0.06,1.61,0.09,2.39,0.09
	C108.67,76.02,108.64,75.67,108.61,75.31z"/>
<path class="st10" d="M90.82,31.79l-0.98-0.92l-1.82-1.72l-0.03-0.03l-1.27-1.19c0-0.36-0.19-0.78-0.48-1.08
	c-0.26-0.28-0.6-0.47-0.93-0.44c-0.04,0-0.06,0.01-0.1,0.02c-0.27,0.06-0.33,0.23-0.3,0.42l-0.12-0.1
	c-0.52-0.38-1.03-0.51-1.48-0.49c-0.6,0.03-1.09,0.36-1.35,0.87c-0.16,0.33-0.23,0.72-0.16,1.16c0.01,0.04,0,0.08,0.01,0.12
	c0.15,0.75,0.51,2.13,1.28,3.39c0.23,0.38,0.5,0.68,0.79,0.89c0.16-0.07,0.38-0.42,0.6-0.63c0.39-0.37,0.98-0.28,1.56-0.46
	c0.49-0.15,0.97-0.49,1.31-1.45c0.01-0.03,0.01-0.08,0.02-0.11c0.03-0.15,0.03-0.32,0.01-0.49c0-0.04-0.01-0.07-0.01-0.11
	c-0.04-0.25-0.12-0.49-0.18-0.67l0.05,0.05c0.14,0.14,0.24,0.29,0.33,0.45c0.01,0.02,0.03,0.04,0.04,0.07
	c0.01,0.03,0.03,0.05,0.04,0.07c0.04,0.08,0.06,0.16,0.08,0.24c0.06,0.2,0.09,0.41,0.08,0.62c0.03,0.38,0.01,0.85-0.14,1.36
	c-0.03,0.1-0.05,0.2-0.1,0.31c-0.3,0.77-0.83,1.34-1.42,1.71l0.04,0.7C86.3,35.22,86.56,35.92,87,36
	C88.53,36.29,91.19,32.47,90.82,31.79z M83.75,31.12c-0.46,0.01-0.79-0.56-0.79-0.56c0.61-0.28,1.03-0.59,1.25-0.78
	c0.12-0.1,0.2-0.17,0.2-0.17c0.03,0.1,0.04,0.2,0.05,0.29C84.52,30.56,84.16,31.1,83.75,31.12z"/>
<path class="st9" d="M87.83,29.97c-0.01-0.1-0.06-0.21-0.09-0.31c-0.02-0.08-0.05-0.16-0.08-0.24c-0.01-0.03-0.03-0.05-0.04-0.07
	c-0.01-0.02-0.02-0.05-0.04-0.07c-0.09-0.16-0.19-0.32-0.33-0.45l-0.05-0.05c0.06,0.18,0.13,0.42,0.18,0.67
	c0.01,0.04,0.01,0.07,0.01,0.11c0.02,0.18,0.02,0.34-0.01,0.49c-0.01,0.04-0.01,0.08-0.02,0.11c-0.34,0.96-0.82,1.27-1.31,1.42
	c-0.58,0.18-1.13,0.07-1.52,0.44c-0.22,0.21-0.48,0.61-0.64,0.68c0,0,0,0,0,0c0.01,0.01,0.02,0.01,0.04,0.02
	c0.09,0.06,0.18,0.11,0.27,0.16c0.03,0.01,0.06,0.03,0.1,0.04c0.08,0.03,0.16,0.05,0.23,0.07c0.04,0.01,0.07,0.01,0.11,0.02
	c0.08,0.01,0.16,0.01,0.24,0c0.03,0,0.07,0,0.1-0.01c0.01,0,0.02-0.01,0.02-0.01c0.1-0.02,0.21-0.05,0.31-0.09
	c0.31-0.14,0.56-0.27,0.79-0.4c0.25-0.14,0.46-0.28,0.66-0.44c0.18-0.14,0.35-0.3,0.53-0.49c0.34-0.36,0.52-0.8,0.53-1.25
	C87.83,30.17,87.85,30.07,87.83,29.97z"/>
<path class="st11" d="M49.59,27.65l-0.02,0.01l-0.02,0.01c-1.11,0.44-1.99,1.38-2.46,2.63c-0.48,1.26-0.48,2.67-0.01,3.87l0,0l0,0
	l6.13,15.64c1.8-0.42,4.81-1.22,8.46-2.56c-1.81-7.32-7.67-19.91-9.19-23.13C52.17,25.68,51.13,27.03,49.59,27.65z"/>
<path class="st12" d="M47.08,34.17L47.08,34.17c-0.48-1.2-0.47-2.62,0.01-3.88c0.48-1.25,1.35-2.19,2.46-2.63l0.02-0.01l0.02-0.01
	c1.54-0.61,2.58-1.96,2.89-3.51c-0.23-0.49-0.37-0.77-0.37-0.77s-0.69,1.51-2.23,3.13c-0.84,0.88-2.64,1.85-3.08,2.51
	c-1.43,2.16-0.34,6.5,1.61,10.71c1.12,2.42,2.81,6.57,4.23,10.23c0.17-0.04,0.36-0.08,0.56-0.13L47.08,34.17L47.08,34.17z"/>
</svg>
