<?xml version="1.0" encoding="utf-8"?>
<!-- Generator: Adobe Illustrator 24.2.0, SVG Export Plug-In . SVG Version: 6.00 Build 0)  -->
<svg version="1.1" id="레이어_1" xmlns="http://www.w3.org/2000/svg" xmlns:xlink="http://www.w3.org/1999/xlink" x="0px"
	 y="0px" viewBox="0 0 165 165" style="enable-background:new 0 0 165 165;" xml:space="preserve">
<style type="text/css">
	.st0{fill:#881B2B;}
	.st1{fill:#D7E5EA;}
	.st2{fill:#C3C2C2;}
	.st3{fill:#2A2D1E;}
	.st4{fill:#A3AFB2;}
	.st5{fill:#EB605F;}
	.st6{fill:#F4F8F8;}
	.st7{fill:#201B18;}
	.st8{fill:#FFFFFF;}
	.st9{fill:#B94A49;}
	.st10{fill:#681221;}
	.st11{fill:#901D2D;}
	.st12{fill:#EC6B6A;}
</style>
<path class="st0" d="M61.41,56.95c3.53-0.99,8.52-2.74,12.04-3.18c-0.19-0.65-0.37-1.31-0.53-1.98c-2.98,0.36-6.56,1.14-8.37,0.58
	c-3.05-0.94-7.93-6.81-10.99-9.73c2.02,2.34,3.44,5.74,4.45,8.1C58.75,52.42,60.04,54.4,61.41,56.95z"/>
<path class="st1" d="M78.3,144.45c-1.01,1.56,17.66,4.36,29.5,4.58c11.85,0.22,21.79-4.02,21.23-5.14
	c-0.56-1.12-19.2-6.48-19.2-6.48c-2.44,1.79-3.57,0-3.57,0V83.51c-1.78,0.01-3.05-0.3-3.85-0.61v53.04l-22.59,6.12l0.34-0.09
	C79.49,142.8,78.75,143.75,78.3,144.45z"/>
<path class="st2" d="M132.69,142.02l-22.49-6.09V83.04c-1.52,0.34-2.83,0.47-3.93,0.47v53.89c0,0,1.13,1.79,3.57,0
	c0,0,18.64,5.36,19.2,6.48c0.56,1.12-9.39,5.36-21.23,5.14c-11.85-0.22-30.51-3.02-29.5-4.58c0.45-0.7,1.19-1.64,1.87-2.47
	l-0.34,0.09c-3.64,0.99-3.59,4.21,0.06,5.18c6.57,1.75,16.14,3.68,26.44,3.68c9.91,0,19.63-1.97,26.35-3.74
	C136.32,146.23,136.3,143,132.69,142.02z"/>
<path class="st3" d="M106.27,80.22c-0.64,0-1.27-0.02-1.9-0.06c-0.21-0.01-0.41-0.04-0.62-0.05c-0.44-0.04-0.88-0.08-1.31-0.13
	c-0.01,0-0.01,0-0.02,0v2.93c0.8,0.3,2.06,0.62,3.85,0.61V80.22z"/>
<path class="st3" d="M106.27,80.22v3.29c1.11-0.01,2.41-0.13,3.93-0.47v-3.07c-1.28,0.16-2.57,0.25-3.89,0.25
	C106.3,80.22,106.28,80.22,106.27,80.22z"/>
<path class="st1" d="M81.18,68.21c-0.31-0.36-0.61-0.73-0.9-1.1C80.58,67.48,80.88,67.85,81.18,68.21z"/>
<path class="st1" d="M84.09,71.25c-0.41-0.38-0.81-0.78-1.21-1.18C83.27,70.47,83.67,70.87,84.09,71.25z"/>
<path class="st1" d="M82.53,69.7c-0.33-0.35-0.66-0.7-0.97-1.06C81.87,69,82.2,69.36,82.53,69.7z"/>
<path class="st1" d="M85.74,72.71c-0.51-0.42-1-0.85-1.49-1.3C84.74,71.86,85.23,72.29,85.74,72.71z"/>
<path class="st1" d="M87.23,73.86c-0.47-0.35-0.94-0.71-1.39-1.08C86.3,73.16,86.76,73.52,87.23,73.86z"/>
<path class="st1" d="M79.94,66.68c-0.32-0.41-0.62-0.83-0.92-1.26C79.32,65.85,79.63,66.27,79.94,66.68z"/>
<path class="st1" d="M101.73,79.88c-0.4-0.06-0.8-0.12-1.2-0.2C100.93,79.75,101.33,79.82,101.73,79.88z"/>
<path class="st1" d="M94.18,77.79c-0.51-0.21-1.02-0.44-1.51-0.67C93.16,77.35,93.67,77.58,94.18,77.79z"/>
<path class="st1" d="M92.15,76.86c-0.4-0.2-0.79-0.4-1.18-0.61C91.37,76.46,91.76,76.67,92.15,76.86z"/>
<path class="st1" d="M90.42,75.94c-0.37-0.21-0.74-0.43-1.1-0.66C89.68,75.5,90.05,75.72,90.42,75.94z"/>
<path class="st1" d="M96.17,78.54c-0.6-0.2-1.19-0.42-1.78-0.66C94.97,78.12,95.57,78.34,96.17,78.54z"/>
<path class="st1" d="M97.97,79.09c-0.45-0.12-0.9-0.26-1.34-0.4C97.07,78.83,97.52,78.97,97.97,79.09z"/>
<path class="st1" d="M88.79,74.94c-0.38-0.25-0.76-0.51-1.13-0.77C88.04,74.43,88.41,74.69,88.79,74.94z"/>
<path class="st1" d="M99.82,79.54c-0.4-0.08-0.8-0.18-1.2-0.28C99.02,79.36,99.42,79.45,99.82,79.54z"/>
<path class="st1" d="M74.82,53.67c-0.19-0.65-0.36-1.31-0.5-2.01c-0.45,0.03-0.91,0.07-1.4,0.13c0.16,0.67,0.34,1.32,0.53,1.98
	C73.94,53.7,74.4,53.67,74.82,53.67z"/>
<path class="st1" d="M104.36,80.16c0.63,0.04,1.26,0.06,1.9,0.06v0C105.63,80.22,104.99,80.2,104.36,80.16z"/>
<path class="st1" d="M103.75,80.11c-0.44-0.04-0.88-0.08-1.31-0.13C102.87,80.03,103.31,80.07,103.75,80.11z"/>
<path class="st1" d="M106.27,80.22L106.27,80.22c0.01,0,0.03,0,0.04,0C106.3,80.22,106.28,80.22,106.27,80.22z"/>
<path class="st0" d="M106.31,49.65c-4.81,0-9.36-0.19-13.43-0.52c-3.02,7.3-7.26,13.12-12.27,11.61c1.38,2.26,2.98,4.34,4.78,6.18
	c5.51,1.08,12.03,1.32,17.03-1.62c0.38-0.22,0.75-0.45,1.11-0.7c0.31-0.23,0.6-0.46,0.89-0.69c5.44-4.19,8.59-9.22,10.69-14.47
	C112.32,49.57,109.37,49.65,106.31,49.65z"/>
<path class="st2" d="M82.88,70.07c-0.12-0.12-0.23-0.25-0.35-0.37C82.64,69.83,82.76,69.95,82.88,70.07z"/>
<path class="st2" d="M84.25,71.41c-0.06-0.05-0.11-0.11-0.17-0.16C84.14,71.3,84.19,71.36,84.25,71.41z"/>
<path class="st2" d="M81.55,68.64c-0.12-0.14-0.25-0.29-0.37-0.43C81.31,68.36,81.43,68.5,81.55,68.64z"/>
<path class="st2" d="M90.98,76.25c-0.19-0.1-0.37-0.21-0.56-0.31C90.61,76.04,90.79,76.15,90.98,76.25z"/>
<path class="st2" d="M87.66,74.17c-0.14-0.1-0.29-0.2-0.43-0.3C87.38,73.97,87.52,74.07,87.66,74.17z"/>
<path class="st2" d="M85.84,72.79c-0.03-0.03-0.07-0.05-0.1-0.08C85.77,72.73,85.81,72.76,85.84,72.79z"/>
<path class="st2" d="M89.32,75.28c-0.18-0.11-0.35-0.22-0.53-0.34C88.97,75.05,89.14,75.16,89.32,75.28z"/>
<path class="st2" d="M98.62,79.26c-0.22-0.05-0.44-0.11-0.65-0.17C98.18,79.15,98.4,79.2,98.62,79.26z"/>
<path class="st2" d="M100.53,79.68c-0.24-0.04-0.48-0.09-0.71-0.14C100.06,79.59,100.29,79.63,100.53,79.68z"/>
<path class="st2" d="M101.73,79.88c0.23,0.03,0.46,0.07,0.69,0.1v0C102.19,79.94,101.96,79.91,101.73,79.88z"/>
<path class="st2" d="M94.39,77.88c-0.07-0.03-0.14-0.06-0.21-0.09C94.25,77.82,94.32,77.85,94.39,77.88z"/>
<path class="st2" d="M96.63,78.69c-0.15-0.05-0.31-0.09-0.46-0.14C96.32,78.59,96.47,78.64,96.63,78.69z"/>
<path class="st2" d="M78.85,65.18c0.06,0.08,0.12,0.16,0.18,0.24C78.97,65.34,78.91,65.26,78.85,65.18
	C78.85,65.18,78.85,65.18,78.85,65.18z"/>
<path class="st2" d="M92.66,77.12c-0.17-0.08-0.34-0.17-0.51-0.25C92.32,76.95,92.49,77.04,92.66,77.12z"/>
<path class="st2" d="M80.28,67.11c-0.11-0.14-0.23-0.29-0.34-0.43C80.06,66.83,80.17,66.97,80.28,67.11z"/>
<path class="st3" d="M102.42,79.97L102.42,79.97c0.01,0,0.01,0,0.02,0C102.43,79.98,102.43,79.97,102.42,79.97z"/>
<path class="st2" d="M102.42,79.97L102.42,79.97c0.01,0,0.01,0,0.02,0C102.43,79.98,102.43,79.97,102.42,79.97z"/>
<path class="st3" d="M104.36,80.16c-0.21-0.01-0.41-0.04-0.62-0.05C103.95,80.12,104.16,80.14,104.36,80.16z"/>
<path class="st2" d="M104.36,80.16c-0.21-0.01-0.41-0.04-0.62-0.05C103.95,80.12,104.16,80.14,104.36,80.16z"/>
<path class="st1" d="M102.42,75.76c-6.51-0.92-12.4-4.1-17.03-8.84c-2.45-0.48-4.71-1.13-6.54-1.74c0.06,0.08,0.11,0.16,0.17,0.24
	c0.3,0.43,0.61,0.85,0.92,1.26c0.11,0.14,0.22,0.29,0.34,0.43c0.29,0.37,0.59,0.74,0.9,1.1c0.12,0.14,0.25,0.29,0.37,0.43
	c0.32,0.36,0.64,0.71,0.97,1.06c0.12,0.12,0.23,0.25,0.35,0.37c0.39,0.4,0.8,0.8,1.21,1.18c0.06,0.05,0.11,0.11,0.17,0.16
	c0.49,0.45,0.98,0.88,1.49,1.3c0.03,0.03,0.07,0.05,0.1,0.08c0.46,0.37,0.92,0.73,1.39,1.08c0.14,0.1,0.29,0.2,0.43,0.3
	c0.37,0.26,0.75,0.52,1.13,0.77c0.17,0.11,0.35,0.22,0.53,0.34c0.36,0.23,0.73,0.45,1.1,0.66c0.18,0.11,0.37,0.21,0.56,0.31
	c0.39,0.21,0.78,0.42,1.18,0.61c0.17,0.08,0.34,0.17,0.51,0.25c0.5,0.24,1,0.46,1.51,0.67c0.07,0.03,0.14,0.06,0.21,0.09
	c0.59,0.24,1.18,0.46,1.78,0.66c0.15,0.05,0.31,0.09,0.46,0.14c0.44,0.14,0.89,0.28,1.34,0.4c0.22,0.06,0.43,0.11,0.65,0.17
	c0.4,0.1,0.8,0.19,1.2,0.28c0.24,0.05,0.47,0.1,0.71,0.14c0.4,0.07,0.8,0.14,1.2,0.2c0.23,0.03,0.46,0.07,0.69,0.1V75.76z"/>
<path class="st1" d="M118.79,36.93c-0.2,0.83-0.41,1.67-0.62,2.51c11.24,0.8,19.15,2.69,19.15,4.9c0,0.07-0.02,0.14-0.03,0.21h0.03
	c-1.52,16.22-12.83,29.18-27.12,31.2v4.22c17.23-2.14,30.63-18.29,30.63-37.91c0-8.56-2.64-16.5-6.94-22.86l-14.03,0.02
	C120.15,23.69,120.27,30.86,118.79,36.93z"/>
<path class="st1" d="M106.27,76.04c-1.3,0-2.58-0.1-3.85-0.28v4.22c0.01,0,0.01,0,0.02,0c0.43,0.05,0.87,0.09,1.31,0.13
	c0.21,0.02,0.41,0.04,0.62,0.05c0.63,0.04,1.26,0.06,1.9,0.06V76.04z"/>
<path class="st1" d="M106.31,76.04c-0.01,0-0.03,0-0.04,0v4.18c0.01,0,0.03,0,0.04,0c1.32,0,2.61-0.09,3.89-0.25v-4.22
	C108.93,75.94,107.63,76.04,106.31,76.04z"/>
<path class="st4" d="M133.89,19.2l-14.03,0.02c0.29,4.47,0.41,11.64-1.07,17.71c-0.2,0.83-0.41,1.67-0.62,2.51
	c11.24,0.8,19.15,2.69,19.15,4.9c0,0.07-0.02,0.14-0.03,0.21h0.03c-1.52,16.22-12.83,29.18-27.12,31.2
	c-1.28,0.18-2.57,0.28-3.89,0.28c-0.01,0-0.03,0-0.04,0c-1.3,0-2.58-0.1-3.85-0.28c-6.51-0.92-12.4-4.1-17.03-8.84
	c-2.45-0.48-4.71-1.13-6.54-1.74c0.06,0.08,0.11,0.16,0.17,0.24c0.3,0.43,0.61,0.85,0.92,1.26c0.11,0.14,0.22,0.29,0.34,0.43
	c0.29,0.37,0.59,0.74,0.9,1.1c0.12,0.14,0.25,0.29,0.37,0.43c0.32,0.36,0.64,0.71,0.97,1.06c0.12,0.12,0.23,0.25,0.35,0.37
	c0.39,0.4,0.8,0.8,1.21,1.18c0.06,0.05,0.11,0.11,0.17,0.16c0.49,0.45,0.98,0.88,1.49,1.3c0.03,0.03,0.07,0.05,0.1,0.08
	c0.46,0.37,0.92,0.73,1.39,1.08c0.14,0.1,0.29,0.2,0.43,0.3c0.37,0.26,0.75,0.52,1.13,0.77c0.17,0.11,0.35,0.22,0.53,0.34
	c0.36,0.23,0.73,0.45,1.1,0.66c0.18,0.11,0.37,0.21,0.56,0.31c0.39,0.21,0.78,0.42,1.18,0.61c0.17,0.08,0.34,0.17,0.51,0.25
	c0.5,0.24,1,0.46,1.51,0.67c0.07,0.03,0.14,0.06,0.21,0.09c0.59,0.24,1.18,0.46,1.78,0.66c0.15,0.05,0.31,0.09,0.46,0.14
	c0.44,0.14,0.89,0.28,1.34,0.4c0.22,0.06,0.43,0.11,0.65,0.17c0.4,0.1,0.8,0.19,1.2,0.28c0.24,0.05,0.47,0.1,0.71,0.14
	c0.4,0.07,0.8,0.14,1.2,0.2c0.23,0.03,0.46,0.07,0.69,0.1c0.01,0,0.01,0,0.02,0c0.43,0.05,0.87,0.09,1.31,0.13
	c0.21,0.02,0.41,0.04,0.62,0.05c0.63,0.04,1.26,0.06,1.9,0.06c0.01,0,0.03,0,0.04,0c1.32,0,2.61-0.09,3.89-0.25
	c17.23-2.14,30.63-18.29,30.63-37.91C140.83,33.51,138.19,25.57,133.89,19.2z"/>
<path class="st1" d="M76.69,51.79c-0.67-2.32-1.15-4.73-1.38-7.23h0.03c-0.02-0.07-0.03-0.14-0.03-0.21c0-2.31,8.67-4.28,20.76-5
	c1.31-5.22,1.92-9.93,1.68-12.13c0,0-16.85-2.1-19.07-4.69c-1.67-1.95-6.71,17.1-4.35,29.14C75.26,51.59,76.08,51.62,76.69,51.79z"
	/>
<g>
	<path class="st1" d="M133.89,19.2l-55.21,0.07c-4.3,6.36-6.88,14.24-6.88,22.79c0,3.36,0.4,6.62,1.13,9.72
		c0.49-0.06,0.95-0.1,1.4-0.13c-2.36-12.04,2.69-31.09,4.35-29.14c2.22,2.6,19.07,4.69,19.07,4.69c0.24,2.21-0.37,6.91-1.68,12.13
		c3.21-0.19,6.65-0.3,10.24-0.3c4.2,0,8.21,0.14,11.86,0.4c0.21-0.84,0.41-1.68,0.62-2.51c1.48-6.07,1.36-13.24,1.07-17.71
		L133.89,19.2z"/>
	<path class="st1" d="M78.4,56.49c-0.33,0.17-0.75,0.38-1.18,0.57c-0.13,0.26-0.4,0.47-0.59,0.73c-0.33,0.48-0.73,0.81-1.22,1.3
		c0.95,2.08,2.17,4.25,3.44,6.09c1.83,0.61,4.08,1.25,6.54,1.74c-1.8-1.84-3.4-3.91-4.78-6.18C79.79,59.39,79.05,57.97,78.4,56.49z"
		/>
</g>
<path class="st1" d="M77.29,53.68c0-0.01,0-0.01-0.01-0.02c-0.04,0-0.07,0-0.07,0S77.25,53.67,77.29,53.68z"/>
<path class="st1" d="M75.7,53.71c0.25-0.33,0.54-0.62,0.85-0.71c0.14-0.04,0.3-0.07,0.49-0.09c-0.12-0.37-0.23-0.75-0.34-1.13
	c-0.61-0.17-1.42-0.2-2.36-0.14c0.14,0.7,0.31,1.37,0.5,2.01C75.14,53.66,75.43,53.68,75.7,53.71z"/>
<path class="st5" d="M40.87,103.01c0,0.01,0,0.02,0,0.03C40.87,103.03,40.87,103.02,40.87,103.01L40.87,103.01z"/>
<path class="st6" d="M43.7,41.13C43.7,41.13,43.7,41.13,43.7,41.13c0.15-0.07,0.3-0.15,0.46-0.23
	C44.01,40.98,43.86,41.05,43.7,41.13z"/>
<path class="st6" d="M37.61,102.22c-0.29-0.1-0.55-0.2-0.77-0.31C37.06,102.02,37.32,102.12,37.61,102.22z"/>
<path class="st6" d="M38.58,102.51c-0.24-0.06-0.44-0.13-0.65-0.2C38.13,102.38,38.34,102.44,38.58,102.51z"/>
<path class="st6" d="M64.99,65.42c-0.03-0.08-0.05-0.16-0.08-0.25c0,0,0,0,0,0C64.93,65.26,64.96,65.33,64.99,65.42z"/>
<path class="st6" d="M39.72,102.78c-0.25-0.05-0.48-0.11-0.71-0.17C39.25,102.67,39.47,102.73,39.72,102.78z"/>
<path class="st6" d="M40.24,102.89c0.21,0.04,0.41,0.08,0.62,0.12c0,0,0,0,0,0C40.65,102.97,40.45,102.93,40.24,102.89z"/>
<path class="st6" d="M45.48,40.41V40.4c-0.45,0.14-0.89,0.31-1.31,0.5C44.59,40.71,45.03,40.55,45.48,40.41z"/>
<path class="st6" d="M58.02,50.73c-1.01-2.35-2.43-5.76-4.45-8.1c-1.13-1.3-2.45-2.28-4-2.54c-0.64-0.11-1.27-0.13-1.89-0.1
	l0.33,1.46c0.32,0.77,0.77,1.78,0.43,2.05c-0.7,0.56-1.62,0.1-2.26-0.51c-0.13,0.75-0.24,1.54-0.34,2.37
	c0.08,0.09,0.16,0.18,0.24,0.28c2.34,3.05,9.93,12.66,14.36,11.56c0.01,0,0.01,0,0.02,0c0.3-0.08,0.63-0.17,0.96-0.26
	C60.04,54.4,58.75,52.42,58.02,50.73z"/>
<path class="st6" d="M42.02,42.2c-0.17,0.14-0.33,0.27-0.49,0.41C41.68,42.48,41.84,42.34,42.02,42.2z"/>
<path class="st6" d="M42.74,41.69c0.3-0.2,0.63-0.38,0.97-0.56c0,0,0-0.01,0-0.01C43.36,41.3,43.04,41.49,42.74,41.69z"/>
<path class="st6" d="M40.97,43.16c0.13-0.15,0.28-0.29,0.44-0.44C41.26,42.87,41.11,43.01,40.97,43.16z"/>
<path class="st6" d="M42.65,41.75c-0.21,0.14-0.41,0.28-0.6,0.43C42.23,42.04,42.44,41.89,42.65,41.75z"/>
<polygon class="st6" points="40.87,103.01 40.87,103.01 40.87,103.01 40.87,103.01 "/>
<path class="st6" d="M50.33,104.08c0.01,0,0.01,0,0.02,0"/>
<path class="st6" d="M57.94,104.4"/>
<path class="st6" d="M67.96,104.25C67.97,104.25,67.97,104.25,67.96,104.25"/>
<path class="st6" d="M40.87,103.01c0.05,0.01,0.11,0.02,0.16,0.03C40.97,103.03,40.92,103.02,40.87,103.01
	C40.87,103.01,40.87,103.01,40.87,103.01z"/>
<path class="st6" d="M57.94,104.4"/>
<path class="st6" d="M47.19,103.88c0.06,0.01,0.12,0.01,0.18,0.02c-0.32-0.03-0.64-0.07-0.95-0.1
	C46.67,103.82,46.92,103.85,47.19,103.88z"/>
<path class="st6" d="M67.97,104.25c0.98-0.07,1.7-0.17,1.9-0.3c-0.3-1.72-0.35-21.39-4.24-36.25c-2.78,0.53-8.76,0.95-12.75-4.02
	c0,0,0,0,0-0.01c-0.07-0.05-0.15-0.1-0.22-0.14c-0.57-0.37-1.12-0.75-1.64-1.14c-0.1-0.08-0.2-0.15-0.3-0.23
	c-0.5-0.38-0.98-0.77-1.43-1.17c-0.04-0.03-0.08-0.07-0.12-0.1c-0.47-0.42-0.92-0.85-1.35-1.28c-0.1-0.1-0.19-0.19-0.29-0.29
	c-0.06-0.06-0.13-0.13-0.19-0.19c1.17,4.81,2.69,10.99,3.67,17.09c1.07,6.66,1.49,13.22,0.06,17.78c-0.91,2.91-1.78,5.42-2.56,7.54
	c-0.31,0.85-0.61,1.65-0.89,2.37c0.72,0.06,1.67,0.11,2.71,0.16l0.02,0c2.66,0.13,5.92,0.22,7.59,0.31c0.43,0.02,3.3,0.06,6.13,0.01
	C65.49,104.38,66.88,104.33,67.97,104.25"/>
<path class="st6" d="M43.57,103.44c0.15,0.02,0.3,0.04,0.46,0.06C43.88,103.49,43.73,103.46,43.57,103.44
	C43.57,103.44,43.57,103.44,43.57,103.44z"/>
<path class="st6" d="M45.7,103.71c-0.34-0.04-0.66-0.08-0.98-0.12C45.04,103.63,45.36,103.68,45.7,103.71z"/>
<path class="st6" d="M43.11,103.38c0.16,0.02,0.31,0.05,0.47,0.07c0,0,0,0,0,0C43.42,103.42,43.26,103.4,43.11,103.38z"/>
<path class="st6" d="M42.47,103.28c-0.29-0.05-0.57-0.09-0.85-0.14C41.9,103.19,42.18,103.24,42.47,103.28z"/>
<path class="st1" d="M44.17,40.9C44.17,40.9,44.17,40.9,44.17,40.9C44.17,40.9,44.17,40.9,44.17,40.9z"/>
<path class="st1" d="M39.01,102.61c-0.15-0.04-0.3-0.07-0.44-0.11C38.71,102.54,38.87,102.58,39.01,102.61z"/>
<path class="st1" d="M37.92,102.31c-0.1-0.03-0.22-0.06-0.32-0.1C37.7,102.25,37.82,102.28,37.92,102.31z"/>
<path class="st1" d="M40.24,102.89c-0.17-0.04-0.36-0.07-0.52-0.1C39.89,102.82,40.07,102.85,40.24,102.89z"/>
<path class="st1" d="M42.94,58.87c0.04,0.35,0.05,0.68,0.03,1C42.99,59.55,42.98,59.22,42.94,58.87z"/>
<path class="st1" d="M42.94,58.87c-0.06-0.52-0.18-1.09-0.34-1.67C42.76,57.79,42.88,58.35,42.94,58.87z"/>
<path class="st1" d="M41.57,54.07c-0.23-0.65-0.47-1.32-0.7-1.98C41.1,52.76,41.34,53.42,41.57,54.07z"/>
<path class="st1" d="M42.04,42.18c-0.01,0.01-0.02,0.01-0.02,0.02C42.03,42.2,42.03,42.19,42.04,42.18z"/>
<path class="st1" d="M42.74,41.69c-0.03,0.02-0.06,0.04-0.09,0.06C42.68,41.73,42.71,41.71,42.74,41.69z"/>
<path class="st1" d="M41.41,42.72c0.04-0.04,0.08-0.07,0.12-0.11C41.49,42.65,41.45,42.69,41.41,42.72z"/>
<path class="st1" d="M41.03,103.04c0.1,0.02,0.22,0.04,0.32,0.06c0,0,0,0,0,0C41.24,103.08,41.13,103.06,41.03,103.04z"/>
<path class="st1" d="M46.42,103.79c-0.24-0.03-0.48-0.05-0.72-0.08C45.93,103.74,46.18,103.77,46.42,103.79z"/>
<path class="st1" d="M44.71,103.59c-0.23-0.03-0.46-0.06-0.68-0.09C44.26,103.54,44.49,103.57,44.71,103.59z"/>
<path class="st1" d="M47.62,103.92C47.62,103.92,47.62,103.92,47.62,103.92c-0.09-0.01-0.17-0.02-0.25-0.03
	C47.45,103.9,47.53,103.91,47.62,103.92z"/>
<path class="st1" d="M43.11,103.38c-0.21-0.03-0.43-0.06-0.64-0.09C42.68,103.32,42.9,103.35,43.11,103.38z"/>
<path class="st1" d="M41.35,103.1C41.35,103.1,41.35,103.1,41.35,103.1c0.09,0.02,0.18,0.03,0.27,0.05
	C41.53,103.13,41.44,103.11,41.35,103.1z"/>
<path class="st1" d="M40.87,103.01L40.87,103.01"/>
<path class="st1" d="M51.01,76.22c-0.98-6.1-2.5-12.28-3.67-17.09c-0.34-0.36-0.66-0.72-0.97-1.08c-0.08-0.09-0.15-0.18-0.22-0.27
	c-0.32-0.39-0.63-0.77-0.92-1.16c-0.06-0.08-0.12-0.16-0.18-0.24c-0.31-0.42-0.59-0.84-0.86-1.26c-0.08-0.13-0.16-0.25-0.24-0.37
	c-0.25-0.4-0.5-0.81-0.72-1.21c-0.06-0.11-0.12-0.22-0.18-0.34c-0.17-0.32-0.33-0.64-0.49-0.96c-0.06-0.12-0.12-0.25-0.18-0.37
	c-0.14-0.3-0.27-0.61-0.39-0.9C42,51,42,51.01,42.01,51.02c-0.93-2.25-1.29-4.18-1.2-5.41c0.02-0.34,0.07-0.64,0.16-0.86
	c0.27-0.66,0.9-0.94,1.65-0.94c1.06,0.01,2.36,0.6,3.22,1.55c0.1-0.83,0.21-1.62,0.34-2.37c-0.43-0.41-0.72-0.89-0.72-1.19l0.02-1.4
	c-0.45,0.14-0.89,0.3-1.31,0.49c0,0,0,0-0.01,0c-0.16,0.07-0.31,0.16-0.46,0.23c-0.34,0.17-0.66,0.36-0.97,0.56
	c-0.03,0.02-0.06,0.04-0.09,0.06c-0.21,0.14-0.41,0.28-0.6,0.43c-0.01,0.01-0.02,0.01-0.02,0.02c-0.17,0.14-0.33,0.27-0.49,0.41
	c-0.04,0.04-0.08,0.07-0.12,0.11c-0.16,0.15-0.3,0.29-0.44,0.44c-0.77,0.84-1.13,1.86-1.22,2.96c-0.15,1.82,0.41,3.9,1.12,5.97
	c0.23,0.67,0.47,1.33,0.7,1.98c0.39,1.09,0.76,2.14,1.03,3.12c0.16,0.59,0.28,1.15,0.34,1.67c0.04,0.35,0.05,0.68,0.03,1
	c-0.04,0.63-0.2,1.18-0.55,1.63c0,0,0,0,0,0c-4.25,6.05-4.61,10.42-4.71,12.72c-0.02,0.53-0.97,26.12-0.87,27.69
	c0.22,0.1,0.48,0.21,0.77,0.31c0.09,0.03,0.21,0.06,0.32,0.1c0.21,0.07,0.41,0.13,0.65,0.2c0.14,0.04,0.29,0.07,0.44,0.11
	c0.23,0.06,0.46,0.11,0.71,0.17c0.16,0.04,0.35,0.07,0.52,0.1c0.2,0.04,0.41,0.08,0.62,0.12c0.06,0.01,0.1,0.02,0.16,0.03
	c0.1,0.02,0.22,0.04,0.32,0.05c0.09,0.02,0.18,0.03,0.27,0.05c0.28,0.05,0.56,0.1,0.85,0.14c0.21,0.03,0.43,0.06,0.64,0.09
	c0.15,0.02,0.31,0.04,0.47,0.07c0.15,0.02,0.3,0.04,0.46,0.07c0.22,0.03,0.45,0.06,0.68,0.09c0.33,0.04,0.65,0.08,0.98,0.12
	c0.24,0.03,0.48,0.05,0.72,0.08c0.31,0.03,0.63,0.07,0.95,0.1c0.08,0.01,0.16,0.02,0.25,0.02c0.28-0.73,0.58-1.52,0.89-2.37
	c0.78-2.13,1.64-4.63,2.56-7.54C52.5,89.45,52.08,82.89,51.01,76.22z"/>
<path class="st6" d="M48.49,37.53c0,0.01-0.01,0.01-0.01,0.02C48.48,37.54,48.49,37.54,48.49,37.53z"/>
<path class="st7" d="M70.38,141.06c-0.4-0.41-1.12-0.9-2.41-1.43c-0.13-0.05-0.26-0.14-0.39-0.25c-0.33,0.06-0.83,0.11-1.42,0.02
	c-0.99-0.15-3.46-3.57-4.51-4.83c-0.12-0.15-0.23-0.27-0.31-0.35c-0.29-0.29-0.66-0.43-1-0.5c-0.08-0.02-0.15-0.04-0.22-0.04
	c-0.12-0.02-0.23-0.02-0.33-0.03c-0.27,0.67-0.69,1.88-0.53,2.66c0.23,1.13,0.74,4.34,0.58,5.33l1.39,0.07l0.17-3.57
	c0,0,1.03,0.61,1.56,1.25c0.2,0.24,0.38,0.64,0.53,1.05c0.31,0.85,1.12,1.43,2.03,1.47l4.38,0.21
	C70.45,142.14,70.77,141.47,70.38,141.06z"/>
<path class="st7" d="M31.28,136.52c-0.05-0.13-0.08-0.28-0.09-0.46c-0.27-0.19-0.65-0.52-1-1.01c-0.44-0.62-0.13-3.14,0.13-5.04
	c0.12-0.91,0.23-1.68,0.23-2.02c0.01-0.64-0.37-1.18-0.67-1.5c0-0.01,0.01-0.02,0.01-0.03c-0.01,0-0.01,0.01-0.02,0.01
	c-0.67,0.27-1.83,0.82-2.28,1.47c-0.65,0.95-2.6,3.56-3.42,4.13l0.92,1.05l2.68-2.36c0,0,0.28,1.16,0.19,1.99
	c-0.03,0.31-0.2,0.72-0.39,1.12c-0.39,0.82-0.24,1.8,0.36,2.48l2.9,3.29c0.37,0.42,1.08,0.18,1.1-0.39
	C31.95,138.68,31.8,137.82,31.28,136.52z"/>
<path class="st5" d="M47.82,59.62c-0.1-0.1-0.19-0.19-0.29-0.29C47.62,59.42,47.72,59.52,47.82,59.62z"/>
<path class="st5" d="M51.01,62.4c-0.1-0.08-0.2-0.15-0.3-0.23C50.82,62.24,50.91,62.32,51.01,62.4z"/>
<path class="st5" d="M49.28,61c-0.04-0.03-0.08-0.07-0.12-0.1C49.2,60.93,49.24,60.96,49.28,61z"/>
<path class="st5" d="M52.65,63.54c0.07,0.05,0.15,0.1,0.22,0.14c0,0-0.01-0.01-0.01-0.01C52.79,63.63,52.72,63.58,52.65,63.54z"/>
<path class="st5" d="M42.56,52.25c-0.06-0.12-0.12-0.25-0.18-0.37C42.44,52.01,42.5,52.13,42.56,52.25z"/>
<path class="st5" d="M46.37,58.05c-0.08-0.09-0.15-0.18-0.22-0.27C46.22,57.87,46.29,57.96,46.37,58.05z"/>
<path class="st5" d="M44.18,55.13c-0.08-0.12-0.16-0.25-0.24-0.37C44.02,54.88,44.1,55,44.18,55.13z"/>
<path class="st5" d="M43.23,53.55c-0.06-0.11-0.12-0.22-0.18-0.34C43.11,53.32,43.16,53.43,43.23,53.55z"/>
<path class="st5" d="M45.23,56.63c-0.06-0.08-0.12-0.16-0.18-0.24C45.1,56.47,45.17,56.55,45.23,56.63z"/>
<path class="st5" d="M63.77,65.46c-0.15,0.03-0.29,0.07-0.44,0.1C63.48,65.53,63.63,65.49,63.77,65.46z"/>
<path class="st5" d="M60.08,65.94c-0.12,0-0.25,0.01-0.37,0.01C59.83,65.95,59.95,65.94,60.08,65.94z"/>
<path class="st5" d="M64.72,65.22c-0.15,0.04-0.31,0.09-0.46,0.12C64.41,65.31,64.56,65.26,64.72,65.22z"/>
<path class="st5" d="M60.98,65.89c-0.13,0.01-0.26,0.02-0.38,0.03C60.73,65.92,60.86,65.9,60.98,65.89z"/>
<path class="st5" d="M52.87,63.68c0.04,0.03,0.09,0.05,0.13,0.08c-0.05-0.03-0.09-0.06-0.14-0.09
	C52.86,63.67,52.87,63.68,52.87,63.68z"/>
<path class="st5" d="M62.84,65.65c-0.14,0.03-0.28,0.05-0.42,0.08C62.56,65.7,62.7,65.68,62.84,65.65z"/>
<path class="st5" d="M61.9,65.8c-0.13,0.02-0.27,0.04-0.4,0.05C61.64,65.83,61.77,65.81,61.9,65.8z"/>
<path class="st5" d="M56.65,65.55c-0.1-0.03-0.2-0.05-0.29-0.08C56.46,65.5,56.56,65.52,56.65,65.55z"/>
<path class="st5" d="M55.83,65.28c-0.08-0.03-0.16-0.05-0.23-0.08C55.67,65.23,55.75,65.25,55.83,65.28z"/>
<path class="st5" d="M57.48,65.74c-0.11-0.02-0.22-0.04-0.32-0.06C57.26,65.71,57.37,65.72,57.48,65.74z"/>
<path class="st5" d="M59.19,65.93c-0.12,0-0.24-0.01-0.35-0.01C58.95,65.92,59.07,65.93,59.19,65.93z"/>
<path class="st5" d="M58.32,65.87c-0.11-0.01-0.23-0.02-0.34-0.04C58.1,65.84,58.21,65.85,58.32,65.87z"/>
<path class="st0" d="M50.72,62.17c-0.5-0.38-0.98-0.77-1.43-1.17C49.74,61.4,50.22,61.79,50.72,62.17z"/>
<path class="st0" d="M49.16,60.9c-0.47-0.42-0.92-0.85-1.35-1.28C48.24,60.05,48.69,60.48,49.16,60.9z"/>
<polygon class="st0" points="64.91,65.17 64.91,65.17 64.91,65.17 64.91,65.17 "/>
<path class="st0" d="M52.65,63.54c-0.57-0.37-1.12-0.75-1.64-1.14C51.53,62.79,52.08,63.17,52.65,63.54z"/>
<path class="st0" d="M47.34,59.13c0.06,0.06,0.13,0.13,0.19,0.19c-0.07-0.07-0.13-0.14-0.19-0.21
	C47.34,59.12,47.34,59.13,47.34,59.13z"/>
<path class="st0" d="M46.15,57.78c-0.32-0.39-0.63-0.77-0.92-1.16C45.52,57.01,45.82,57.4,46.15,57.78z"/>
<path class="st0" d="M46.37,58.05c0.31,0.36,0.63,0.72,0.97,1.08c0-0.01,0-0.01,0-0.02C47,58.76,46.67,58.41,46.37,58.05z"/>
<path class="st0" d="M43.94,54.75c-0.25-0.4-0.49-0.81-0.72-1.21C43.45,53.94,43.69,54.35,43.94,54.75z"/>
<path class="st0" d="M45.04,56.38c-0.31-0.42-0.59-0.84-0.86-1.26C44.45,55.54,44.74,55.96,45.04,56.38z"/>
<path class="st0" d="M41.99,50.98c0.12,0.29,0.25,0.6,0.39,0.9c-0.14-0.29-0.25-0.58-0.37-0.86C42,51.01,42,51,41.99,50.98z"/>
<path class="st0" d="M43.05,53.21c-0.17-0.32-0.33-0.64-0.49-0.96C42.71,52.57,42.87,52.89,43.05,53.21z"/>
<path class="st0" d="M59.71,65.95c-0.18,0-0.35-0.01-0.52-0.02C59.36,65.94,59.53,65.95,59.71,65.95z"/>
<path class="st0" d="M60.6,65.92c-0.18,0.01-0.35,0.01-0.52,0.02C60.25,65.94,60.42,65.93,60.6,65.92z"/>
<path class="st0" d="M58.84,65.92c-0.17-0.01-0.34-0.03-0.51-0.05C58.49,65.88,58.66,65.9,58.84,65.92z"/>
<path class="st0" d="M61.5,65.85c-0.17,0.02-0.35,0.03-0.52,0.04C61.16,65.88,61.33,65.87,61.5,65.85z"/>
<path class="st0" d="M62.42,65.73c-0.17,0.03-0.34,0.05-0.51,0.07C62.08,65.77,62.24,65.75,62.42,65.73z"/>
<path class="st0" d="M57.98,65.83c-0.17-0.02-0.34-0.06-0.5-0.09C57.65,65.77,57.81,65.81,57.98,65.83z"/>
<path class="st0" d="M64.25,65.35c-0.16,0.04-0.32,0.08-0.48,0.11C63.93,65.42,64.09,65.39,64.25,65.35z"/>
<path class="st0" d="M63.34,65.56c-0.17,0.03-0.33,0.06-0.5,0.09C63,65.62,63.17,65.59,63.34,65.56z"/>
<path class="st0" d="M64.91,65.17C64.91,65.17,64.91,65.17,64.91,65.17c-0.06,0.02-0.13,0.03-0.19,0.05
	C64.78,65.2,64.84,65.19,64.91,65.17z"/>
<path class="st0" d="M56.36,65.47c-0.18-0.06-0.36-0.12-0.53-0.19C56,65.35,56.18,65.42,56.36,65.47z"/>
<path class="st0" d="M55.6,65.2c-0.25-0.1-0.49-0.22-0.73-0.34C55.11,64.98,55.35,65.1,55.6,65.2z"/>
<path class="st0" d="M57.16,65.68c-0.17-0.04-0.34-0.09-0.5-0.13C56.82,65.6,56.99,65.64,57.16,65.68z"/>
<path class="st0" d="M54.87,64.86c-0.65-0.35-1.27-0.72-1.87-1.1C53.6,64.14,54.22,64.51,54.87,64.86z"/>
<path class="st5" d="M41.66,120.15c-0.24,0.3-0.48,0.61-0.73,0.91c3.38-4.19,6.86-8.94,7.89-11.95c0.45-1.32,0.85-2.62,1.22-3.9
	c-1.58-0.06-4.59-0.26-6.65-0.89C42.19,109.58,39.3,117.04,41.66,120.15z"/>
<path class="st3" d="M47.62,103.92C47.62,103.92,47.62,103.92,47.62,103.92c-0.09,0-0.17-0.01-0.25-0.02
	c-0.06-0.01-0.13-0.01-0.18-0.02c-0.26-0.03-0.51-0.06-0.77-0.08c-0.24-0.03-0.48-0.05-0.72-0.08c-0.34-0.04-0.66-0.08-0.98-0.12
	c-0.23-0.03-0.46-0.06-0.68-0.09c-0.16-0.02-0.31-0.04-0.46-0.06c-0.16-0.02-0.31-0.05-0.47-0.07c-0.21-0.03-0.43-0.06-0.64-0.09
	c-0.29-0.05-0.57-0.09-0.85-0.14c-0.09-0.02-0.18-0.03-0.27-0.05c0,0,0,0,0,0c0.31,0.52,1.07,0.91,2.04,1.21
	c2.07,0.64,5.08,0.83,6.65,0.89c0,0,0,0,0,0c0.11-0.38,0.19-0.75,0.29-1.12C49.29,104.03,48.34,103.98,47.62,103.92z"/>
<path class="st0" d="M43.39,104.31c-0.96-0.3-1.73-0.69-2.04-1.21c0,0,0,0,0,0c-0.11-0.02-0.22-0.04-0.32-0.06
	c-0.05-0.01-0.11-0.02-0.16-0.03c0,0.01,0,0.02,0,0.03c0.02,0.32,0.04,0.5,0.04,0.5s-2.03,1.45-3.22,3.22
	c-0.07,0.1-0.15,0.26-0.26,0.47c-0.1,0.21-0.23,0.47-0.36,0.78c-0.21,0.46-0.44,1.02-0.71,1.67c-0.62,1.5-1.38,3.43-2.19,5.51
	c-0.35,0.89-0.7,1.81-1.05,2.73c-0.35,0.92-0.71,1.85-1.05,2.76c-0.23,0.61-0.46,1.21-0.68,1.79c-0.22,0.59-0.43,1.16-0.64,1.71
	c-0.21,0.55-0.4,1.08-0.59,1.58c-0.09,0.24-0.18,0.48-0.26,0.7c0,0.01-0.01,0.02-0.01,0.03c0.3,0.32,0.67,0.86,0.67,1.5
	c0,0.34-0.11,1.11-0.23,2.02c-0.25,1.9-0.57,4.43-0.13,5.04c0.35,0.49,0.73,0.81,1,1.01c-0.05-0.9,0.42-2.35,1.02-3.83
	c0.22-0.54,0.49-1.16,0.94-1.8c0.2-0.28,0.4-0.56,0.59-0.84c0,0,0,0.01-0.01,0.01c0-0.01,0.01-0.01,0.01-0.01
	c0.02-0.02,0.05-0.06,0.07-0.08c0.04-0.05,0.08-0.09,0.12-0.15c0.04-0.04,0.08-0.09,0.12-0.14c0.05-0.05,0.09-0.11,0.15-0.17
	c0.05-0.06,0.11-0.12,0.16-0.19c0.06-0.07,0.12-0.14,0.19-0.22c0.06-0.06,0.11-0.13,0.17-0.2c0.06-0.07,0.13-0.15,0.2-0.23
	c0.64-0.74,1.46-1.7,2.4-2.8c0.02-0.02,0.04-0.05,0.06-0.07c0.19-0.22,0.38-0.45,0.58-0.69c0.04-0.05,0.09-0.1,0.13-0.16
	c0.18-0.21,0.35-0.42,0.53-0.63c0.06-0.07,0.11-0.14,0.17-0.2c0.17-0.21,0.35-0.42,0.53-0.64c0.06-0.07,0.12-0.14,0.18-0.22
	c0.18-0.22,0.36-0.44,0.55-0.67c0.05-0.07,0.11-0.13,0.16-0.2c0.2-0.25,0.4-0.5,0.61-0.75c0.04-0.05,0.08-0.09,0.11-0.14
	c0.24-0.3,0.48-0.6,0.73-0.91C39.3,117.04,42.19,109.58,43.39,104.31z"/>
<path class="st0" d="M60.41,132.75c0.39-4.92,1.72-20.48,3.27-26.4c0.1-0.37,0.18-0.75,0.25-1.13c-2.36,0.02-4.91-0.15-5.99-0.83
	c0,0-4.19,8.11,2.03,28.8c0.01-0.03,0.02-0.04,0.02-0.04L60.41,132.75z"/>
<path class="st5" d="M65.54,135.97c-0.24-0.54-0.49-1.16-0.64-1.93c-0.09-0.46-0.17-0.91-0.25-1.35c0.89-3.67,2.92-14.27,3.3-27.64
	c-0.92,0.07-2.43,0.16-4.02,0.17c-0.07,0.38-0.15,0.75-0.25,1.13c-1.55,5.91-2.87,21.48-3.27,26.4l-0.42,0.4
	c0,0-0.01,0.02-0.02,0.04c-0.03,0.07-0.1,0.23-0.19,0.45c0.1,0,0.22,0.01,0.33,0.03c0.07,0.01,0.15,0.03,0.22,0.04
	c0.34,0.07,0.71,0.21,1,0.5c0.08,0.08,0.19,0.2,0.31,0.35c1.05,1.25,3.51,4.68,4.51,4.83c0.6,0.09,1.09,0.04,1.42-0.02
	C66.9,138.78,66.18,137.43,65.54,135.97z"/>
<path class="st3" d="M64.72,65.22c-0.15,0.04-0.31,0.09-0.46,0.12c-0.16,0.04-0.32,0.08-0.48,0.11c-0.15,0.03-0.29,0.07-0.44,0.1
	c-0.17,0.03-0.33,0.06-0.5,0.09c-0.14,0.03-0.28,0.05-0.42,0.08c-0.17,0.03-0.34,0.05-0.51,0.07c-0.13,0.02-0.27,0.04-0.4,0.05
	c-0.17,0.02-0.35,0.03-0.52,0.04c-0.13,0.01-0.26,0.02-0.38,0.03c-0.18,0.01-0.35,0.01-0.52,0.02c-0.12,0-0.25,0.01-0.37,0.01
	c-0.18,0-0.35-0.01-0.52-0.02c-0.12,0-0.24-0.01-0.35-0.01c-0.17-0.01-0.34-0.03-0.51-0.05c-0.11-0.01-0.23-0.02-0.34-0.04
	c-0.17-0.02-0.34-0.06-0.5-0.09c-0.11-0.02-0.22-0.04-0.32-0.06c-0.17-0.04-0.34-0.09-0.5-0.13c-0.1-0.03-0.2-0.05-0.29-0.08
	c-0.18-0.06-0.36-0.12-0.53-0.19c-0.08-0.03-0.16-0.05-0.23-0.08c-0.25-0.1-0.49-0.22-0.73-0.34c-0.65-0.35-1.27-0.72-1.87-1.1
	c-0.04-0.03-0.09-0.05-0.13-0.08c0,0,0,0,0,0.01c4,4.97,9.97,4.55,12.75,4.02c-0.02-0.07-0.04-0.14-0.05-0.2
	c-0.19-0.71-0.38-1.41-0.59-2.09c-0.03-0.09-0.06-0.16-0.08-0.25C64.84,65.19,64.78,65.2,64.72,65.22z"/>
<path class="st0" d="M76.44,57.37c-0.51,0.19-0.99,0.31-1.31,0.25c-0.56-0.1-0.58-0.81-0.5-1.42c0.02-0.19,0.06-0.37,0.09-0.51
	c-0.2,0.03-0.41,0.07-0.61,0.12c-0.6,0.15-1.24,0.39-1.91,0.78c-0.83,0.49-1.47,0.99-2,1.46c-1.98,1.76-6.12,3.89-7.26,4
	c-4.12,0.42-5.12-0.68-6.99-1.69c-0.78-0.42-1.7-0.82-3.05-1.08c-3.04-0.59-4.57-0.75-5.91-1.63c-0.71-0.46-1.36-1.12-2.16-2.15
	c-0.7-0.9-1.69-2.65-2.81-4.48c0.12,0.28,0.23,0.57,0.37,0.86c0.06,0.12,0.12,0.25,0.18,0.37c0.15,0.31,0.31,0.63,0.49,0.96
	c0.06,0.11,0.12,0.22,0.18,0.34c0.22,0.4,0.46,0.8,0.72,1.21c0.08,0.12,0.16,0.25,0.24,0.37c0.27,0.42,0.56,0.84,0.86,1.26
	c0.06,0.08,0.12,0.16,0.18,0.24c0.29,0.39,0.6,0.77,0.92,1.16c0.07,0.09,0.15,0.18,0.22,0.27c0.3,0.36,0.63,0.71,0.97,1.06
	c0.07,0.07,0.13,0.14,0.19,0.21c0.09,0.1,0.19,0.19,0.29,0.29c0.43,0.43,0.87,0.86,1.35,1.28c0.04,0.03,0.08,0.07,0.12,0.1
	c0.46,0.4,0.94,0.79,1.43,1.17c0.1,0.08,0.19,0.15,0.3,0.23c0.52,0.39,1.07,0.77,1.64,1.14c0.07,0.04,0.14,0.09,0.21,0.13
	c0.05,0.03,0.09,0.06,0.14,0.09c0.6,0.38,1.22,0.75,1.87,1.1c0.24,0.13,0.48,0.24,0.73,0.34c0.07,0.03,0.15,0.05,0.23,0.08
	c0.18,0.07,0.35,0.14,0.53,0.19c0.1,0.03,0.2,0.05,0.29,0.08c0.17,0.05,0.33,0.09,0.5,0.13c0.11,0.02,0.22,0.04,0.32,0.06
	c0.17,0.03,0.33,0.06,0.5,0.09c0.11,0.02,0.23,0.02,0.34,0.04c0.17,0.02,0.34,0.04,0.51,0.05c0.12,0.01,0.24,0.01,0.35,0.01
	c0.17,0.01,0.34,0.02,0.52,0.02c0.12,0,0.25-0.01,0.37-0.01c0.17,0,0.35-0.01,0.52-0.02c0.13-0.01,0.26-0.02,0.38-0.03
	c0.17-0.01,0.35-0.03,0.52-0.04c0.13-0.01,0.27-0.04,0.4-0.05c0.17-0.02,0.34-0.04,0.51-0.07c0.14-0.02,0.28-0.05,0.42-0.08
	c0.17-0.03,0.33-0.06,0.5-0.09c0.15-0.03,0.29-0.07,0.44-0.1c0.16-0.04,0.32-0.07,0.48-0.11c0.15-0.04,0.31-0.08,0.46-0.12
	c0.06-0.02,0.37-0.1,0.46-0.13c0.16-0.05,0.32-0.1,0.48-0.15c0.14-0.05,0.29-0.09,0.43-0.14c0.17-0.06,0.34-0.12,0.51-0.18
	c0.13-0.05,0.26-0.09,0.39-0.14c0.18-0.07,0.36-0.14,0.54-0.21c0.12-0.05,0.23-0.09,0.35-0.14c0.19-0.08,0.38-0.16,0.56-0.24
	c0.1-0.05,0.21-0.09,0.31-0.14c0.2-0.09,0.39-0.18,0.58-0.27c0.09-0.04,0.18-0.08,0.27-0.13c0.21-0.1,0.41-0.21,0.61-0.31
	c0.07-0.04,0.14-0.07,0.22-0.11c0.21-0.11,0.42-0.23,0.63-0.35c0.06-0.03,0.11-0.06,0.17-0.1c0.22-0.13,0.43-0.25,0.64-0.38
	c0.04-0.03,0.09-0.05,0.13-0.08c0.22-0.14,0.43-0.27,0.64-0.41c0.03-0.02,0.06-0.04,0.09-0.06c0.22-0.15,0.43-0.3,0.64-0.45
	c0.02-0.01,0.04-0.03,0.06-0.04c0.21-0.16,0.42-0.31,0.63-0.47c0.01-0.01,0.02-0.02,0.03-0.02c0.21-0.17,0.41-0.33,0.61-0.5
	c0,0,0.01,0,0.01-0.01c0.3-0.26,0.57-0.52,0.83-0.77c0.49-0.49,0.9-0.97,1.23-1.45c0.18-0.26,0.34-0.52,0.47-0.78
	C76.96,57.18,76.7,57.28,76.44,57.37z"/>
<g>
	<path class="st8" d="M97.75,27.21c0,0-16.85-2.1-19.07-4.69c-1.67-1.95-6.71,17.1-4.35,29.14c0.14,0.7,0.31,1.37,0.5,2.01
		c0.31,0,0.61,0.01,0.88,0.04c0.25-0.33,0.54-0.62,0.85-0.71c0.14-0.04,0.3-0.07,0.49-0.09c-0.12-0.37-0.23-0.75-0.34-1.13
		c-0.67-2.32-1.15-4.73-1.38-7.23h0.03c-0.02-0.07-0.03-0.14-0.03-0.21c0-2.31,8.67-4.28,20.76-5
		C97.37,34.12,97.99,29.42,97.75,27.21z"/>
	<path class="st8" d="M77.22,57.06c-0.13,0.26-0.38,0.65-0.57,0.91c0.75,1.05,1.76,1.77,2.86,2.33c0.37,0.19,0.73,0.33,1.1,0.44
		c-0.82-1.35-1.57-2.77-2.22-4.25C78.06,56.66,77.65,56.86,77.22,57.06z"/>
</g>
<path class="st5" d="M79.88,54.65c-0.31-0.33-1.44-0.67-2.12-0.85c-0.21-0.06-0.38-0.1-0.46-0.12c-0.04-0.01-0.08-0.02-0.08-0.02
	s0.03,0,0.07,0c0.1,0,0.29-0.01,0.54-0.03c0.62-0.04,1.5-0.13,1.68-0.31c0.18-0.19-0.75-0.39-1.67-0.42
	c-0.28-0.01-0.55-0.01-0.79,0.02c-0.18,0.02-0.35,0.05-0.49,0.09c-0.31,0.09-0.59,0.38-0.85,0.71c-0.27-0.03-0.56-0.05-0.88-0.04
	c-0.42,0-0.88,0.04-1.37,0.1c-3.51,0.44-8.51,2.19-12.04,3.18c-0.33,0.09-0.66,0.18-0.96,0.26c-0.01,0-0.01,0-0.02,0
	c-4.42,1.1-12.02-8.51-14.36-11.56c-0.07-0.1-0.15-0.19-0.24-0.28c-0.86-0.95-2.16-1.54-3.22-1.55c-0.74,0-1.37,0.28-1.65,0.94
	c-0.09,0.22-0.14,0.52-0.16,0.86c-0.09,1.22,0.27,3.15,1.2,5.41c1.12,1.83,2.12,3.57,2.81,4.48c0.79,1.03,1.45,1.69,2.16,2.15
	c1.34,0.88,2.87,1.04,5.91,1.63c1.36,0.26,2.28,0.66,3.05,1.08c1.87,1.01,2.88,2.14,6.99,1.69c0.29-0.03,0.55-0.07,0.81-0.11
	c0,0,0.01,0,0.01,0c3.88-0.6,4.46-2.13,6.43-3.89c0.53-0.47,1.17-0.97,2-1.46c0.67-0.4,1.3-0.64,1.91-0.78
	c0.21-0.05,0.41-0.09,0.61-0.12c-0.03,0.15-0.07,0.32-0.09,0.51c-0.08,0.61-0.06,1.32,0.5,1.42c0.32,0.06,0.8-0.06,1.31-0.25
	c0.25-0.09,0.51-0.2,0.77-0.31c0,0,0,0,0.01,0c0.43-0.2,0.84-0.4,1.18-0.57c0.29-0.15,0.53-0.27,0.65-0.31
	C79.58,55.98,80.34,55.13,79.88,54.65z"/>
<path class="st5" d="M106.31,39.04c-3.59,0-7.04,0.11-10.24,0.3c-0.43,1.71-0.93,3.47-1.5,5.22c-0.51,1.55-1.07,3.09-1.68,4.57
	c4.06,0.33,8.62,0.52,13.43,0.52c3.06,0,6.01-0.08,8.8-0.22c0.64-1.61,1.19-3.24,1.68-4.87c0.51-1.71,0.96-3.42,1.38-5.11
	C114.52,39.19,110.51,39.04,106.31,39.04z"/>
<path class="st9" d="M118.17,39.45c-0.42,1.7-0.87,3.41-1.38,5.11c-0.49,1.63-1.04,3.26-1.68,4.87c12.45-0.63,21.64-2.56,22.17-4.87
	c0.02-0.07,0.03-0.14,0.03-0.21C137.32,42.14,129.41,40.24,118.17,39.45z"/>
<path class="st6" d="M47.19,36.88c0.35,0.71,0.84,1.07,1.18,0.79c0.04-0.03,0.08-0.07,0.11-0.12c0-0.01,0.01-0.01,0.01-0.02
	c0.25-0.33,0.34-0.87,0.34-0.87C47.89,36.93,47.19,36.88,47.19,36.88z"/>
<path class="st5" d="M48.01,41.45L47.68,40l-0.02-0.1c-0.32-0.1-0.64-0.33-0.93-0.59c-0.57-0.51-1-1.15-1-1.15h0.01
	c0,0,0-0.01,0-0.01c-0.08-0.11-0.15-0.23-0.21-0.36l-0.02,1.87l-0.01,0.75v0.01l-0.02,1.4c0,0.3,0.29,0.78,0.72,1.19
	c0.63,0.61,1.56,1.07,2.26,0.51C48.78,43.23,48.33,42.22,48.01,41.45z"/>
<path class="st3" d="M47.49,39.15c-0.07-0.01-0.36-0.06-0.44-0.08c-0.11-0.03-0.22-0.06-0.32-0.11c-0.05-0.02-0.1-0.05-0.15-0.08
	c-0.12-0.06-0.23-0.13-0.33-0.21c-0.05-0.04-0.1-0.08-0.14-0.12c-0.1-0.09-0.19-0.18-0.27-0.28c-0.03-0.04-0.07-0.08-0.1-0.12h-0.01
	c0,0,0.43,0.64,1,1.15c0.29,0.26,0.6,0.49,0.93,0.59L47.49,39.15z"/>
<path class="st0" d="M49.23,38.07c-0.34,0.28-1.11,0.47-1.63,0.49c-0.06,0-0.12,0.01-0.18,0.01c-0.02,0-0.05-0.01-0.07-0.01
	c-0.32-0.02-0.77-0.14-1.24-0.41c-0.2-0.11-0.4-0.25-0.59-0.43c-0.02-0.02-0.04-0.03-0.06-0.05c0.01,0.01,0.01,0.02,0.02,0.04
	c0.01,0.02,0.04,0.07,0.05,0.09c0.06,0.13,0.12,0.24,0.25,0.4c0.3,0.37,0.62,0.59,0.74,0.65c0.05,0.03,0.43,0.25,0.98,0.29
	c1.17,0.11,2.26-0.61,2.44-2.1c0-0.02,0-0.05,0-0.07C49.86,37.14,49.56,37.8,49.23,38.07z"/>
<path class="st5" d="M49.72,34.63c-0.02-0.01-0.04-0.04-0.07-0.05c-0.21-0.09-0.33-0.03-0.39,0.08c-0.21-0.35-0.41-0.65-0.54-0.87
	c-0.83-1.45-2.75-1.29-3.2,0.67l-0.14,0.93c-0.08-0.19-0.23-0.33-0.5-0.14c-0.54,0.39-0.26,1.77,0.4,1.9
	c0.04,0.19,0.1,0.37,0.18,0.54c0.02,0.02,0.04,0.03,0.06,0.05c0.19,0.18,0.39,0.31,0.59,0.43c0.47,0.27,0.92,0.39,1.24,0.41
	c0.02,0,0.05,0.01,0.07,0.01c0.05,0,0.12-0.01,0.18-0.01c0.53-0.02,1.29-0.21,1.63-0.49c0.33-0.28,0.62-0.93,0.69-1.09
	c0.02-0.21,0.01-0.42-0.02-0.62C50.27,35.92,50.2,34.91,49.72,34.63z M48.49,37.53c0,0.01-0.01,0.01-0.01,0.02
	c-0.03,0.04-0.07,0.08-0.11,0.12c-0.35,0.28-0.83-0.08-1.18-0.79c0,0,0.71,0.06,1.65-0.22C48.84,36.66,48.74,37.2,48.49,37.53z"/>
<path class="st7" d="M48.56,31.75c-0.82-1.01-2.41-1.41-3.76-0.87c-0.1-0.63-0.54-1.57-2.2-1.87c-2.57-0.46-4.78,2.78-4.48,5.14
	c0.31,2.37,1.13,5.15-0.62,5.95c-1.75,0.79-3.76,3.37-1.8,5.38c0.91,0.94,2.5,1.19,4.04,0.65c0.09-1.11,0.45-2.12,1.22-2.96
	c0.13-0.15,0.28-0.29,0.44-0.44c0.04-0.04,0.08-0.07,0.12-0.11c0.15-0.14,0.32-0.28,0.49-0.41c0.01-0.01,0.02-0.01,0.02-0.02
	c0.19-0.15,0.39-0.29,0.6-0.43c0.03-0.02,0.06-0.04,0.09-0.06c0.3-0.2,0.63-0.39,0.97-0.56c0.01-0.05,0.03-0.09,0.04-0.14
	c0.17-0.89,0.31-1.74,0.43-2.55c0.44,0.6,0.91,1.05,1.32,1.22l0.02-1.87c-0.01-0.02-0.03-0.05-0.04-0.07
	c-0.01-0.01-0.02-0.03-0.02-0.04c0,0,0,0,0,0c-0.08-0.17-0.14-0.35-0.18-0.54c-0.66-0.13-0.94-1.51-0.4-1.9
	c0.27-0.19,0.41-0.06,0.5,0.14l0.14-0.93c0.45-1.96,2.38-2.12,3.2-0.67c0.13,0.22,0.33,0.52,0.54,0.87
	c0.07-0.11,0.18-0.17,0.39-0.08c0.03,0.01,0.04,0.03,0.07,0.05C49.71,33.95,49.5,32.91,48.56,31.75z"/>
<path class="st3" d="M64.07,104.4c-2.82,0.05-5.69,0.02-6.13-0.01c1.08,0.69,3.62,0.85,5.99,0.83c1.59-0.01,3.1-0.1,4.02-0.17
	c0-0.1,0-0.2,0.01-0.31c0-0.16,0-0.33,0.01-0.5C66.88,104.33,65.49,104.38,64.07,104.4z"/>
<path class="st10" d="M137.29,44.56c-0.54,2.31-9.72,4.24-22.17,4.87c-2.1,5.26-5.25,10.28-10.69,14.47
	c-0.3,0.23-0.58,0.47-0.89,0.69c-0.36,0.26-0.73,0.48-1.11,0.7c-5.01,2.94-11.52,2.7-17.03,1.62c4.63,4.74,10.52,7.92,17.03,8.84
	c1.26,0.18,2.54,0.28,3.85,0.28c0.01,0,0.03,0,0.04,0c1.32,0,2.61-0.1,3.89-0.28c14.28-2.02,25.59-14.98,27.12-31.2H137.29z"/>
<path class="st11" d="M75.34,44.56H75.3c0.23,2.5,0.71,4.91,1.38,7.23c0.11,0.38,0.22,0.75,0.34,1.13c0.25-0.02,0.52-0.03,0.79-0.02
	c0.93,0.03,1.86,0.23,1.67,0.42c-0.18,0.18-1.06,0.27-1.68,0.31c-0.25,0.02-0.44,0.03-0.54,0.03c0,0.01,0,0.01,0.01,0.02
	c0.09,0.02,0.25,0.06,0.46,0.12c0.68,0.18,1.81,0.52,2.12,0.85c0.46,0.48-0.29,1.32-0.83,1.52c-0.13,0.05-0.36,0.17-0.65,0.31
	c0.65,1.48,1.39,2.9,2.22,4.25c5.01,1.51,9.26-4.31,12.27-11.61C82.84,48.3,75.8,46.58,75.34,44.56z"/>
<path class="st12" d="M75.31,44.35c0,0.07,0.01,0.14,0.03,0.21c0.47,2.01,7.5,3.74,17.55,4.57c0.61-1.48,1.17-3.02,1.68-4.57
	c0.57-1.75,1.08-3.51,1.5-5.22C83.98,40.07,75.31,42.03,75.31,44.35z"/>
</svg>
